<svg xmlns="http://www.w3.org/2000/svg" viewBox="0 0 395.02 38.84"><defs><style>.cls-1{fill:#ffd100;}</style></defs><title>comeing_soon</title><g id="圖層_2" data-name="圖層 2"><g id="圖層_1-2" data-name="圖層 1"><path class="cls-1" d="M21.1,13.36a13.24,13.24,0,0,0-2.65-1.93,6.38,6.38,0,0,0-3.15-.81,5.28,5.28,0,0,0-2.09.41,5.55,5.55,0,0,0-1.71,1.13,5.21,5.21,0,0,0-1.15,1.67,5.14,5.14,0,0,0-.41,2.07A4.9,4.9,0,0,0,10.39,18a5.29,5.29,0,0,0,1.21,1.67,5.87,5.87,0,0,0,1.75,1.12,5.4,5.4,0,0,0,2.11.41,6.83,6.83,0,0,0,3.1-.68,10.25,10.25,0,0,0,2.56-1.84l-.29,10.15a7.18,7.18,0,0,1-1.53.49q-.92.2-1.91.34t-2,.2c-.65,0-1.19.05-1.62.05a13.75,13.75,0,0,1-9.79-4,13.45,13.45,0,0,1-2.93-4.36A13.72,13.72,0,0,1,0,16.16,14.11,14.11,0,0,1,8.6,3a14,14,0,0,1,5.58-1.12,19.86,19.86,0,0,1,3.37.29A21.27,21.27,0,0,1,20.81,3Z"/><path class="cls-1" d="M38.81,9.94a15.18,15.18,0,0,1,4.48.65A10.76,10.76,0,0,1,47,12.53a9.29,9.29,0,0,1,2.5,3.2,10.11,10.11,0,0,1,.92,4.43,8.76,8.76,0,0,1-1,4.19,9.38,9.38,0,0,1-2.59,3.06,11.47,11.47,0,0,1-3.71,1.87,15.13,15.13,0,0,1-8.64,0,11.46,11.46,0,0,1-3.71-1.87,9.38,9.38,0,0,1-2.59-3.06,8.76,8.76,0,0,1-1-4.19,10.11,10.11,0,0,1,.92-4.43,9.29,9.29,0,0,1,2.5-3.2,10.75,10.75,0,0,1,3.69-1.94A15.17,15.17,0,0,1,38.81,9.94Zm0,7.27a2.36,2.36,0,0,0-1.87.83,2.92,2.92,0,0,0-.72,2,2.59,2.59,0,1,0,5.18,0,2.92,2.92,0,0,0-.72-2A2.36,2.36,0,0,0,38.81,17.21Z"/><path class="cls-1" d="M65.77,13.75h.29A5.42,5.42,0,0,1,68.2,11a6.36,6.36,0,0,1,1.6-.76,6,6,0,0,1,1.8-.27A5.57,5.57,0,0,1,75.06,11a5.84,5.84,0,0,1,2,3h.22a7,7,0,0,1,2.2-3,5.85,5.85,0,0,1,3.6-1,6.65,6.65,0,0,1,3,.61,5.72,5.72,0,0,1,2.05,1.67,7.05,7.05,0,0,1,1.19,2.45,11.12,11.12,0,0,1,.38,2.93V29.48h-9V20q0-.43,0-.88a3,3,0,0,0-.14-.83,1.3,1.3,0,0,0-.41-.61,1.22,1.22,0,0,0-.79-.23,1.14,1.14,0,0,0-.77.23,1.36,1.36,0,0,0-.4.61,3,3,0,0,0-.14.83q0,.45,0,.88v9.47H69V20q0-.43,0-.88a3,3,0,0,0-.14-.83,1.3,1.3,0,0,0-.41-.61,1.22,1.22,0,0,0-.79-.23,1.14,1.14,0,0,0-.77.23,1.36,1.36,0,0,0-.4.61,3,3,0,0,0-.14.83q0,.45,0,.88v9.47h-9V10.37h8.78Z"/><path class="cls-1" d="M105.77,13.75h.29A5.42,5.42,0,0,1,108.2,11a6.36,6.36,0,0,1,1.6-.76,6,6,0,0,1,1.8-.27A5.57,5.57,0,0,1,115.05,11a5.84,5.84,0,0,1,2,3h.22a7,7,0,0,1,2.2-3,5.85,5.85,0,0,1,3.6-1,6.65,6.65,0,0,1,3,.61,5.72,5.72,0,0,1,2.05,1.67,7.05,7.05,0,0,1,1.19,2.45,11.12,11.12,0,0,1,.38,2.93V29.48h-9V20q0-.43,0-.88a3,3,0,0,0-.14-.83,1.3,1.3,0,0,0-.41-.61,1.22,1.22,0,0,0-.79-.23,1.14,1.14,0,0,0-.77.23,1.36,1.36,0,0,0-.4.61,3,3,0,0,0-.14.83q0,.45,0,.88v9.47h-9V20q0-.43,0-.88a3,3,0,0,0-.14-.83,1.3,1.3,0,0,0-.41-.61,1.22,1.22,0,0,0-.79-.23,1.14,1.14,0,0,0-.77.23,1.36,1.36,0,0,0-.4.61,3,3,0,0,0-.14.83q0,.45,0,.88v9.47h-9V10.37h8.78Z"/><path class="cls-1" d="M142.31,0A5.6,5.6,0,0,1,146,1.19a4,4,0,0,1,1.46,3.28,4.42,4.42,0,0,1-.43,2,4,4,0,0,1-1.13,1.39,4.9,4.9,0,0,1-1.62.81,7,7,0,0,1-3.85,0,4.89,4.89,0,0,1-1.62-.81,4,4,0,0,1-1.13-1.39,4.42,4.42,0,0,1-.43-2,4,4,0,0,1,1.46-3.28A5.59,5.59,0,0,1,142.31,0Zm-4.64,10.37H147V29.48h-9.29Z"/><path class="cls-1" d="M163.47,13.43h.22q.68-.79,1.31-1.42a8.79,8.79,0,0,1,1.33-1.1,5.71,5.71,0,0,1,1.55-.72,6.89,6.89,0,0,1,2-.25,6.7,6.7,0,0,1,3,.63,5.84,5.84,0,0,1,2.07,1.69,6.8,6.8,0,0,1,1.17,2.47,12,12,0,0,1,.36,3V29.48h-9.29V20.16q0-.43,0-.9a2.56,2.56,0,0,0-.18-.86,1.69,1.69,0,0,0-.49-.67,1.63,1.63,0,0,0-1.8,0,1.53,1.53,0,0,0-.47.67,2.84,2.84,0,0,0-.16.86q0,.47,0,.9v9.32h-9.29V10.37h9.07Z"/><path class="cls-1" d="M205.88,28.37a10,10,0,0,1-1.06,4.79A9.36,9.36,0,0,1,202,36.4a12.11,12.11,0,0,1-4.09,1.85,19.29,19.29,0,0,1-4.81.59,22.15,22.15,0,0,1-4.19-.38,25.63,25.63,0,0,1-4-1.13L184,37,186,30.56a9.06,9.06,0,0,0,3.15,1.75,11.4,11.4,0,0,0,3.55.59,3.81,3.81,0,0,0,3-1.21,5.14,5.14,0,0,0,1.26-3l.18-1.94h-.25a4.52,4.52,0,0,1-1,1.39,5.86,5.86,0,0,1-1.37,1,6.77,6.77,0,0,1-1.6.59,7.39,7.39,0,0,1-1.67.2,6.72,6.72,0,0,1-3.47-.9,8.71,8.71,0,0,1-2.59-2.32,10.3,10.3,0,0,1-1.6-3.2,12.05,12.05,0,0,1,0-7.13,10.54,10.54,0,0,1,1.6-3.22,8.42,8.42,0,0,1,2.59-2.32,6.9,6.9,0,0,1,3.51-.88,6.26,6.26,0,0,1,3.24.83,6.81,6.81,0,0,1,2.34,2.34h.25l-.25-2.74h9Zm-13.64-8.42a2.75,2.75,0,0,0,.7,1.93,2.47,2.47,0,0,0,1.93.77,2,2,0,0,0,1.76-.79,3.1,3.1,0,0,0,.58-1.87,3.14,3.14,0,0,0-.63-1.93,2.09,2.09,0,0,0-1.78-.85,2.36,2.36,0,0,0-1.85.79A2.82,2.82,0,0,0,192.24,19.94Z"/><path class="cls-1" d="M233.89,19.76l.5.4a14.67,14.67,0,0,0,2.88,1.76,7.68,7.68,0,0,0,3.28.72,5.09,5.09,0,0,0,.81-.07,2.69,2.69,0,0,0,.83-.27,2,2,0,0,0,.63-.5,1.18,1.18,0,0,0,.25-.77,1.16,1.16,0,0,0-.22-.74,1.43,1.43,0,0,0-.54-.41,3.24,3.24,0,0,0-.72-.22l-.72-.14-2-.36a12.2,12.2,0,0,1-2.74-.81,7.92,7.92,0,0,1-2.27-1.46,6.58,6.58,0,0,1-1.53-2.12A6.69,6.69,0,0,1,231.8,12a8.89,8.89,0,0,1,1-4.28,9.79,9.79,0,0,1,2.66-3.15,12.06,12.06,0,0,1,3.76-1.94,14.32,14.32,0,0,1,4.34-.67,16.3,16.3,0,0,1,8.6,2.38l-2.66,6.95a14.79,14.79,0,0,0-2.68-1.46,7.8,7.8,0,0,0-3-.59,3.78,3.78,0,0,0-.7.07,2.42,2.42,0,0,0-.68.23,1.67,1.67,0,0,0-.52.43,1.09,1.09,0,0,0-.22.7.87.87,0,0,0,.2.61,1.59,1.59,0,0,0,.5.36,2.93,2.93,0,0,0,.65.22l.63.14,2.23.5a15,15,0,0,1,2.88,1A8,8,0,0,1,251,15a6.71,6.71,0,0,1,1.49,2.23,7.82,7.82,0,0,1,.54,3,8.56,8.56,0,0,1-1,4.25,9.48,9.48,0,0,1-2.66,3,11.5,11.5,0,0,1-3.78,1.82,16,16,0,0,1-4.32.59,22.91,22.91,0,0,1-5.36-.67,23.59,23.59,0,0,1-5.08-1.82Z"/><path class="cls-1" d="M270.36,9.94a15.18,15.18,0,0,1,4.48.65,10.76,10.76,0,0,1,3.69,1.94,9.29,9.29,0,0,1,2.5,3.2,10.11,10.11,0,0,1,.92,4.43,8.76,8.76,0,0,1-1,4.19,9.38,9.38,0,0,1-2.59,3.06,11.47,11.47,0,0,1-3.71,1.87,15.13,15.13,0,0,1-8.64,0,11.46,11.46,0,0,1-3.71-1.87,9.38,9.38,0,0,1-2.59-3.06,8.76,8.76,0,0,1-1-4.19,10.11,10.11,0,0,1,.92-4.43,9.29,9.29,0,0,1,2.5-3.2,10.75,10.75,0,0,1,3.69-1.94A15.17,15.17,0,0,1,270.36,9.94Zm0,7.27a2.36,2.36,0,0,0-1.87.83,2.92,2.92,0,0,0-.72,2,2.59,2.59,0,1,0,5.18,0,2.92,2.92,0,0,0-.72-2A2.36,2.36,0,0,0,270.36,17.21Z"/><path class="cls-1" d="M299.66,9.94a15.18,15.18,0,0,1,4.48.65,10.76,10.76,0,0,1,3.69,1.94,9.29,9.29,0,0,1,2.5,3.2,10.11,10.11,0,0,1,.92,4.43,8.76,8.76,0,0,1-1,4.19,9.38,9.38,0,0,1-2.59,3.06A11.47,11.47,0,0,1,304,29.29a15.13,15.13,0,0,1-8.64,0,11.46,11.46,0,0,1-3.71-1.87A9.38,9.38,0,0,1,289,24.35a8.76,8.76,0,0,1-1-4.19,10.11,10.11,0,0,1,.92-4.43,9.29,9.29,0,0,1,2.5-3.2,10.75,10.75,0,0,1,3.69-1.94A15.17,15.17,0,0,1,299.66,9.94Zm0,7.27a2.36,2.36,0,0,0-1.87.83,2.92,2.92,0,0,0-.72,2,2.59,2.59,0,1,0,5.18,0,2.92,2.92,0,0,0-.72-2A2.36,2.36,0,0,0,299.66,17.21Z"/><path class="cls-1" d="M326.62,13.43h.22q.68-.79,1.31-1.42a8.79,8.79,0,0,1,1.33-1.1,5.71,5.71,0,0,1,1.55-.72,6.89,6.89,0,0,1,2-.25,6.7,6.7,0,0,1,3,.63,5.84,5.84,0,0,1,2.07,1.69,6.8,6.8,0,0,1,1.17,2.47,12,12,0,0,1,.36,3V29.48h-9.29V20.16q0-.43,0-.9a2.56,2.56,0,0,0-.18-.86,1.69,1.69,0,0,0-.49-.67,1.63,1.63,0,0,0-1.8,0,1.53,1.53,0,0,0-.47.67,2.84,2.84,0,0,0-.16.86q0,.47,0,.9v9.32h-9.29V10.37H327Z"/><path class="cls-1" d="M352.51,20.88a6.44,6.44,0,0,1,1.94.31,5.39,5.39,0,0,1,1.73.9,4.72,4.72,0,0,1,1.22,1.44,3.92,3.92,0,0,1,.47,1.93,3.81,3.81,0,0,1-.47,1.91,4.36,4.36,0,0,1-1.22,1.39,5.79,5.79,0,0,1-1.73.86,6.33,6.33,0,0,1-3.89,0,5.79,5.79,0,0,1-1.73-.86,4.35,4.35,0,0,1-1.22-1.39,3.81,3.81,0,0,1-.47-1.91,3.92,3.92,0,0,1,.47-1.93,4.71,4.71,0,0,1,1.22-1.44,5.4,5.4,0,0,1,1.73-.9A6.44,6.44,0,0,1,352.51,20.88Z"/><path class="cls-1" d="M371.08,20.88a6.44,6.44,0,0,1,1.94.31,5.39,5.39,0,0,1,1.73.9A4.72,4.72,0,0,1,376,23.53a3.92,3.92,0,0,1,.47,1.93,3.81,3.81,0,0,1-.47,1.91,4.36,4.36,0,0,1-1.22,1.39,5.79,5.79,0,0,1-1.73.86,6.33,6.33,0,0,1-3.89,0,5.79,5.79,0,0,1-1.73-.86,4.35,4.35,0,0,1-1.22-1.39,3.81,3.81,0,0,1-.47-1.91,3.92,3.92,0,0,1,.47-1.93,4.71,4.71,0,0,1,1.22-1.44,5.4,5.4,0,0,1,1.73-.9A6.44,6.44,0,0,1,371.08,20.88Z"/><path class="cls-1" d="M389.66,20.88a6.44,6.44,0,0,1,1.94.31,5.39,5.39,0,0,1,1.73.9,4.72,4.72,0,0,1,1.22,1.44,3.92,3.92,0,0,1,.47,1.93,3.81,3.81,0,0,1-.47,1.91,4.36,4.36,0,0,1-1.22,1.39,5.79,5.79,0,0,1-1.73.86,6.33,6.33,0,0,1-3.89,0,5.79,5.79,0,0,1-1.73-.86,4.35,4.35,0,0,1-1.22-1.39,3.81,3.81,0,0,1-.47-1.91,3.92,3.92,0,0,1,.47-1.93A4.71,4.71,0,0,1,386,22.09a5.4,5.4,0,0,1,1.73-.9A6.44,6.44,0,0,1,389.66,20.88Z"/></g></g></svg>