<svg xmlns="http://www.w3.org/2000/svg" viewBox="0 0 515 387"><defs><style>.cls-1,.cls-2{fill:none;stroke:#fff;stroke-miterlimit:10;stroke-width:4px;}.cls-2{stroke-linecap:round;}.cls-3{fill:#fff;}</style></defs><title>資產 6</title><g id="圖層_2" data-name="圖層 2"><g id="圖層_1-2" data-name="圖層 1"><ellipse class="cls-1" cx="257.5" cy="53" rx="255.5" ry="51"/><path class="cls-1" d="M513,53c0,50.81-114.39,92-255.5,92S2,103.81,2,53"/><path class="cls-2" d="M52.32,50.83C94.84,34.08,168.61,23,252.5,23,339.75,23,416,35,457.63,52.86"/><rect class="cls-3" x="244" y="145" width="28" height="35"/><ellipse class="cls-3" cx="258" cy="179.5" rx="14" ry="6.5"/><path class="cls-1" d="M462.47,199.5H58.83a10.74,10.74,0,0,1-7.52-18.42l26.05-25.51a10.74,10.74,0,0,1,7.52-3.07H444a10.74,10.74,0,0,1,8.71,4.45l18.45,25.51A10.74,10.74,0,0,1,462.47,199.5Z"/><polyline class="cls-1" points="48.06 186 27 385 492 385 474 190.36"/><path class="cls-3" d="M118,247v81H411V247Zm230.08,35.24h12.55l1.87,1.47-1.87,1.47H348.08l-2.4-1.47Zm14.61,18.67-2.4,1.47H347.74l-1.87-1.47,1.87-1.47h12.55Zm-124-41.85h20.6l3.07,2.41-3.07,2.41h-20.6l-3.95-2.41Zm-40,0h20.6l3.07,2.41-3.07,2.41H198.7l-3.95-2.41Zm-39.27,1H179l2.92,2.29L179,264.61H159.43l-3.75-2.29ZM153,313.76V294.18l2.29-3.75,2.29,3.75v19.58l-2.29,2.92ZM178.47,319H158.9L156,316.71l2.92-2.29h19.58l3.75,2.29Zm0-27.56H158.9L156,289.15l2.92-2.29h19.58l3.75,2.29Zm6.66-5.18-2.29,2.92-2.29-2.92V266.69l2.29-3.75,2.29,3.75Zm6.86.42v-20.6l2.41-3.95,2.41,3.95v20.6l-2.41,3.07Zm6.14,5.45-3.07-2.41,3.07-2.41h20.6l3.95,2.41-3.95,2.41Zm27.62,23.48-2.41,3.07-2.41-3.07V295l2.41-3.95,2.41,3.95Zm0-28.93-2.41,3.07-2.41-3.07v-20.6l2.41-3.95,2.41,3.95Zm6.2,0v-20.6l2.41-3.95,2.41,3.95v20.6l-2.41,3.07Zm6.14,5.45L235,289.72l3.07-2.41h20.6l3.95,2.41-3.95,2.41Zm27.62,23.48-2.41,3.07-2.41-3.07V295l2.41-3.95,2.41,3.95Zm0-28.93-2.41,3.07-2.41-3.07v-20.6l2.41-3.95,2.41,3.95ZM344,299.06V286.52l1.47-2.4,1.47,2.4v12.55l-1.47,1.87ZM360.28,320H347.74l-1.87-1.47,1.87-1.47h12.55l2.4,1.47Zm4.27-3.32-1.47,1.87-1.47-1.87V304.14l1.47-2.4,1.47,2.4Zm0-17.62-1.47,1.87-1.47-1.87V286.52l1.47-2.4,1.47,2.4Z"/></g></g></svg>