<svg xmlns="http://www.w3.org/2000/svg" viewBox="0 0 342 628"><defs><style>.cls-1,.cls-10,.cls-11,.cls-3,.cls-5,.cls-7,.cls-9{fill:none;stroke-miterlimit:10;}.cls-1,.cls-3,.cls-5,.cls-7{stroke:#fff;}.cls-1{stroke-width:4px;}.cls-2,.cls-4{fill:#fff;}.cls-3{stroke-width:3px;}.cls-4{opacity:0.7;}.cls-10,.cls-11,.cls-5,.cls-9{stroke-width:2px;}.cls-6{font-size:16px;font-family:MicrosoftJhengHeiRegular, Microsoft JhengHei;letter-spacing:0.2em;}.cls-6,.cls-8{fill:#1f5572;}.cls-9{stroke:#ff3f00;}.cls-10{stroke:#3054ff;}.cls-11{stroke:#139700;}</style></defs><title>資產 4</title><g id="圖層_2" data-name="圖層 2"><g id="圖層_1-2" data-name="圖層 1"><rect class="cls-1" x="2" y="2" width="338" height="624" rx="46.75" ry="46.75"/><rect class="cls-2" x="141.5" y="34" width="68" height="8" rx="4" ry="4"/><circle class="cls-2" cx="130" cy="38" r="4"/><rect class="cls-3" x="18" y="75" width="305" height="479"/><rect class="cls-4" x="18" y="481" width="305" height="73"/><circle class="cls-5" cx="178" cy="590" r="27"/><text class="cls-6" transform="translate(130 525)">距離500m</text><polyline class="cls-7" points="124 75 85 120 18 107"/><polyline class="cls-7" points="18 120 80.5 132.5 18 216"/><polyline class="cls-7" points="152 75 110.5 125.5 194.5 108.5 191 75"/><polygon class="cls-7" points="221.5 199.5 194.5 125.5 110.5 143.5 56.5 207.5 129.5 238.5 152.5 246.5 221.5 199.5"/><polyline class="cls-7" points="211 75 214.5 103.5 323 83.56"/><polyline class="cls-7" points="323 119.5 241.5 190.5 216.5 119.5 323 97.5"/><polygon class="cls-7" points="53.5 216.5 149.5 254.5 101.5 289.5 53.5 216.5"/><polyline class="cls-7" points="323 144 250.5 207.5 323 225"/><polygon class="cls-7" points="236.5 216.5 175.5 254.5 258.5 286.5 311.5 238.5 236.5 216.5"/><polyline class="cls-7" points="18 353.67 86 303 41 225 18 254.5"/><polygon class="cls-7" points="170.5 263.5 250.5 293.5 170.5 365.5 116.5 302.5 170.5 263.5"/><polyline class="cls-7" points="323 263.5 236.5 339.5 323 406"/><polyline class="cls-7" points="323 440 221.5 353.5 189.5 384.5 256.25 481"/><polyline class="cls-7" points="18 375 96.5 314.5 150.5 386.5 18 410"/><polyline class="cls-7" points="18 433 85.5 424.5 96 481"/><polyline class="cls-7" points="124 481 110.5 424.5 163.5 417.5 211 481"/><path class="cls-2" d="M187.89,213.45c0-14.06-14.09-25.45-31.47-25.45s-31.47,11.4-31.47,25.45,14.09,25.45,31.47,25.45a38.44,38.44,0,0,0,8.75-1l7.45,6.1,1.34-9.41C182.36,230,187.89,222.26,187.89,213.45Z"/><rect class="cls-8" x="158.55" y="212.09" width="1.02" height="14.75" transform="translate(-61.61 62.08) rotate(-18.57)"/><path class="cls-8" d="M143.27,217.18a5.54,5.54,0,0,1,5.47,1.38,5.22,5.22,0,0,1,9-3,5.22,5.22,0,0,1,9-3,5.54,5.54,0,0,1,3.53-4.4,4.81,4.81,0,0,1,1.67-.25A16.08,16.08,0,0,0,141.79,218,4.81,4.81,0,0,1,143.27,217.18Z"/><path class="cls-8" d="M161.12,225.43a2.54,2.54,0,0,1-3.51-1,.51.51,0,0,0-.61-.25h0a.51.51,0,0,0-.3.71,3.53,3.53,0,0,0,4.75,1.51Z"/><rect class="cls-8" x="152.12" y="198.38" width="1.02" height="3.56" rx="0.49" ry="0.49" transform="translate(-55.79 59.02) rotate(-18.57)"/><polyline class="cls-9" points="18 97 175 125 216 214 226 338 226 397 276 442 323 472.33"/><polyline class="cls-10" points="323 300 158 300 106 365 101 463 18 463"/><polyline class="cls-11" points="71 75 70.5 323.5 163.5 374.5 165.5 480.5"/></g></g></svg>