<svg xmlns="http://www.w3.org/2000/svg" viewBox="0 0 226.82 226.82"><defs><style>.cls-1,.cls-3,.cls-4,.cls-6{fill:none;}.cls-1{stroke:gray;stroke-width:3px;}.cls-1,.cls-3,.cls-4{stroke-linecap:round;stroke-miterlimit:10;}.cls-2{fill:gray;}.cls-3,.cls-4{stroke:#fff;}.cls-3{stroke-width:0.95px;}.cls-4{stroke-width:1.06px;}.cls-5{fill:#fff;}</style></defs><title>資產 4 1</title><g id="圖層_2" data-name="圖層 2"><g id="圖層_1-2" data-name="圖層 1"><path class="cls-1" d="M121.24,78.75s-2-12.91-16.06-10"/><path class="cls-1" d="M116,82.07s-1.34-8.68-10.8-6.74"/><path class="cls-1" d="M130.31,77.2S127,55.88,103.73,60.61"/><path class="cls-2" d="M192.35,72.75a8.5,8.5,0,0,1-8-2.68l-.17,0a9.06,9.06,0,0,1-14.69,2.35h-.08a9.06,9.06,0,0,1-14.69,2.35l-.17,0a8.5,8.5,0,0,1-6.73,5,9,9,0,0,1-6.26-1.21l45.06,101.58L197.71,69.89A9.08,9.08,0,0,1,192.35,72.75Z"/><rect class="cls-2" x="185.74" y="176.37" width="1.46" height="5.49" rx="0.73" ry="0.73" transform="translate(-25.99 31.75) rotate(-9.1)"/><path class="cls-2" d="M166.07,38.74h2.85a0,0,0,0,1,0,0V78.48a1.65,1.65,0,0,1-1.65,1.65h-1.2a0,0,0,0,1,0,0V38.74A0,0,0,0,1,166.07,38.74Z" transform="translate(342.41 90.95) rotate(170.68)"/><path class="cls-2" d="M164.49,42a7.14,7.14,0,0,1,9.28,4.33,1.44,1.44,0,0,0,1.58,1h0a1.42,1.42,0,0,0,1.14-1.83A9.91,9.91,0,0,0,164,39.15Z"/><line class="cls-3" x1="154.94" y1="85.12" x2="180.51" y2="160.63"/><line class="cls-3" x1="186.98" y1="79.98" x2="186.28" y2="159.7"/><line class="cls-4" x1="170.86" y1="81.83" x2="183.5" y2="160.74"/><path class="cls-2" d="M108.42,224.14V96.22a13,13,0,0,0-13-13H28.33a13,13,0,0,0-13,13v68.83l14.3,20.83,10.5,10.75,14.5,11.75,15.25,7.75,17.5,6Z"/><rect class="cls-5" x="53.1" y="94.96" width="18.88" height="1.65" rx="0.77" ry="0.77"/><ellipse class="cls-5" cx="49.53" cy="95.78" rx="0.88" ry="0.95"/><polygon class="cls-5" points="100.81 222.89 100.81 105.64 21.96 105.64 21.96 175.38 43.16 196.13 55.91 207.13 73.66 217.13 91.14 222.89 100.81 222.89"/><path class="cls-2" d="M91.14,152.2c0-13.73-12.81-24.86-28.6-24.86s-28.6,11.13-28.6,24.86,12.81,24.86,28.6,24.86a32.63,32.63,0,0,0,8-1l6.77,6,1.22-9.19C86.12,168.37,91.14,160.8,91.14,152.2Z"/><polygon class="cls-5" points="67.52 164.74 66.64 165.05 62.37 151.4 63.25 151.08 67.52 164.74"/><path class="cls-5" d="M50.6,155.84a4.79,4.79,0,0,1,5,1.35,5.34,5.34,0,0,1,3.21-4.3,4.79,4.79,0,0,1,5,1.35,5.34,5.34,0,0,1,3.21-4.3,4.79,4.79,0,0,1,5,1.35,5.34,5.34,0,0,1,3.21-4.3,4.1,4.1,0,0,1,1.52-.24C73.13,140,65.77,136.54,59,139s-10.73,10-9.73,17.64A4.3,4.3,0,0,1,50.6,155.84Z"/><path class="cls-5" d="M66.81,163.89a2.22,2.22,0,0,1-3.19-1,.45.45,0,0,0-.56-.25h0a.51.51,0,0,0-.27.69,3.08,3.08,0,0,0,4.32,1.47Z"/><path class="cls-5" d="M59.63,140.85h0a.44.44,0,0,1-.56-.3l-.75-2.39a.49.49,0,0,1,.28-.6h0a.44.44,0,0,1,.56.3l.75,2.39A.49.49,0,0,1,59.63,140.85Z"/><circle class="cls-6" cx="113.41" cy="113.41" r="113.41"/><path class="cls-2" d="M113.41,5a108.41,108.41,0,0,1,76.66,185.07A108.41,108.41,0,0,1,36.75,36.75,107.7,107.7,0,0,1,113.41,5m0-5A113.41,113.41,0,1,0,226.82,113.41,113.41,113.41,0,0,0,113.41,0Z"/></g></g></svg>