<svg xmlns="http://www.w3.org/2000/svg" viewBox="0 0 34.57 31.36"><defs><style>.cls-1{fill:#666;}</style></defs><title>資產 2</title><g id="圖層_2" data-name="圖層 2"><g id="圖層_1-2" data-name="圖層 1"><path class="cls-1" d="M1.28,2.56H4.94l5.23,18.91a1.28,1.28,0,0,0,1.24.94h16a1.28,1.28,0,0,0,1.17-.77L34.46,8.19A1.3,1.3,0,0,0,34.35,7a1.27,1.27,0,0,0-1.07-.58H15.58a1.35,1.35,0,0,0-1.29,1.08,1.28,1.28,0,0,0,1.26,1.47H31.33l-4.75,10.9H12.36L7.13.94A1.28,1.28,0,0,0,5.9,0H1.31A1.35,1.35,0,0,0,0,1.08,1.28,1.28,0,0,0,1.28,2.56Z"/><path class="cls-1" d="M10.18,31.36a2.9,2.9,0,1,0-2.9-2.9A2.9,2.9,0,0,0,10.18,31.36Z"/><path class="cls-1" d="M28.3,31.36h.21a3,3,0,1,0-.21,0Z"/></g></g></svg>