<svg xmlns="http://www.w3.org/2000/svg" xmlns:xlink="http://www.w3.org/1999/xlink" viewBox="0 0 226.82 228.62"><defs><style>.cls-1{fill:none;}.cls-2{fill:gray;}.cls-3,.cls-6{fill:#b3b3b3;}.cls-4{font-size:16px;fill:#666;font-family:MicrosoftJhengHeiRegular, Microsoft JhengHei;letter-spacing:0.2em;}.cls-5{clip-path:url(#clip-path);}.cls-6{stroke:#fff;stroke-miterlimit:10;stroke-width:2px;}</style><clipPath id="clip-path"><circle class="cls-1" cx="113.41" cy="115.21" r="113.41"/></clipPath></defs><title>資產 5</title><g id="圖層_2" data-name="圖層 2"><g id="圖層_1-2" data-name="圖層 1"><path class="cls-2" d="M100.39,163h4.88a0,0,0,0,1,0,0v61.27a1.36,1.36,0,0,1-1.36,1.36h-3.51a0,0,0,0,1,0,0V163A0,0,0,0,1,100.39,163Z" transform="translate(-2.15 1.15) rotate(-0.64)"/><path class="cls-2" d="M34.2,164.65c9.47-.11,17.88,5.6,22.92,14.36,4.85-8.87,13.13-14.76,22.6-14.87s17.88,5.6,22.92,14.36c4.85-8.87,13.13-14.76,22.6-14.87s17.88,5.6,22.92,14.36c4.85-8.87,13.13-14.76,22.6-14.87a23.09,23.09,0,0,1,8,1.35c-7.43-37.4-39.21-65.34-77-64.92s-68.94,29.05-75.54,66.61A23.09,23.09,0,0,1,34.2,164.65Z"/><rect class="cls-2" x="100.45" y="84.57" width="5.44" height="19.03" rx="0.52" ry="0.52" transform="translate(-1.04 1.15) rotate(-0.64)"/><polygon class="cls-3" points="44.75 79.73 72.01 77.42 43.49 107.06 44.75 79.73"/><rect class="cls-3" x="66.16" y="83.8" width="22.31" height="54.54" transform="translate(-56.33 89.78) rotate(-46.11)"/><rect class="cls-3" x="113.25" y="61.17" width="22.73" height="92.9" transform="translate(109.43 -56.34) rotate(43.89)"/><text class="cls-4" transform="matrix(0.7, -0.72, 0.72, 0.7, 122.65, 117.94)">UV</text><g class="cls-5"><path class="cls-3" d="M216.52,56.24a7.4,7.4,0,0,1,4.21-3.37,7.4,7.4,0,0,1,2.6-9.7,7.4,7.4,0,0,1,0-10,7.4,7.4,0,0,1-2.6-9.7,7.4,7.4,0,0,1-5-8.71,7.35,7.35,0,0,1-7.09-7.09,7.4,7.4,0,0,1-8.71-5,7.4,7.4,0,0,1-5.36.6A7.4,7.4,0,0,1,190.21,0a7.4,7.4,0,0,1-5,2,7.4,7.4,0,0,1-5-2,7.4,7.4,0,0,1-4.34,3.2,7.4,7.4,0,0,1-5.36-.6,7.4,7.4,0,0,1-8.71,5,7.35,7.35,0,0,1-7.09,7.09,7.4,7.4,0,0,1-5,8.71,7.4,7.4,0,0,1-2.6,9.7,7.4,7.4,0,0,1,0,10,7.4,7.4,0,0,1,2.6,9.7,7.4,7.4,0,0,1,5,8.71,7.35,7.35,0,0,1,7.09,7.09,7.4,7.4,0,0,1,8.71,5,7.4,7.4,0,0,1,9.7,2.6,7.4,7.4,0,0,1,10,0,7.4,7.4,0,0,1,9.7-2.6,7.4,7.4,0,0,1,8.71-5,7.35,7.35,0,0,1,7.09-7.09A7.4,7.4,0,0,1,216.52,56.24Z"/><circle class="cls-6" cx="185.22" cy="38.39" r="28.33"/></g><path class="cls-2" d="M113.41,6.8a108.41,108.41,0,0,1,76.66,185.07A108.41,108.41,0,0,1,36.75,38.55,107.7,107.7,0,0,1,113.41,6.8m0-5A113.41,113.41,0,1,0,226.82,115.21,113.41,113.41,0,0,0,113.41,1.8Z"/></g></g></svg>