<svg xmlns="http://www.w3.org/2000/svg" viewBox="0 0 25.04 22.21"><defs><style>.cls-1{fill:#1f5572;}</style></defs><title>資產 10</title><g id="圖層_2" data-name="圖層 2"><g id="圖層_3" data-name="圖層 3"><path class="cls-1" d="M.93,1.81H3.58L7.37,15.2a.93.93,0,0,0,.9.67H19.88a.93.93,0,0,0,.85-.54L25,5.8a.9.9,0,0,0-.08-.86.93.93,0,0,0-.77-.41H11.29a1,1,0,0,0-.94.77.91.91,0,0,0,.92,1H22.7l-3.44,7.72H9L5.17.67A.93.93,0,0,0,4.27,0H.95A1,1,0,0,0,0,.77.91.91,0,0,0,.93,1.81Z"/><path class="cls-1" d="M7.38,22.21a2.05,2.05,0,1,0-2.1-2.05A2.08,2.08,0,0,0,7.38,22.21Z"/><path class="cls-1" d="M20.5,22.21h.15a2.11,2.11,0,0,0,1.44-.71A2,2,0,0,0,22.6,20a2.1,2.1,0,1,0-2.1,2.2Z"/></g></g></svg>