<svg xmlns="http://www.w3.org/2000/svg" viewBox="0 0 226.82 226.82"><defs><style>.cls-1{fill:gray;}</style></defs><title>資產 4</title><g id="圖層_2" data-name="圖層 2"><g id="圖層_1-2" data-name="圖層 1"><path class="cls-1" d="M113.41,5a108.41,108.41,0,0,1,76.66,185.07A108.41,108.41,0,0,1,36.75,36.75,107.7,107.7,0,0,1,113.41,5m0-5A113.41,113.41,0,1,0,226.82,113.41,113.41,113.41,0,0,0,113.41,0Z"/><path class="cls-1" d="M116.75,116.79l-47.3,47.3a2.55,2.55,0,0,0-1.65.74L55.73,176.9a6.61,6.61,0,0,1-9.35-9.35,2.57,2.57,0,0,0-3.63-3.63,11.75,11.75,0,1,0,16.62,16.62l12.08-12.08a2.55,2.55,0,0,0,.74-1.64l47.3-47.3Z"/><path class="cls-1" d="M150.58,87.49a345.87,345.87,0,0,0,34,29.62c-22.51,13.05-52.13,4.6-61.79,1.25a5.28,5.28,0,0,1-2-1.25l0,0a5.23,5.23,0,0,1-1.24-2c-3.39-9.59-11.91-39,1.26-61.35A344.94,344.94,0,0,0,150.58,87.49Z"/><path class="cls-1" d="M87.7,30.61a122.12,122.12,0,0,0,29.74,20.27c-7.17,11.75-9.68,27-7.27,44.33a109.92,109.92,0,0,0,2.71,13.27,114,114,0,0,1-20.1-35.66A100.32,100.32,0,0,1,87.7,30.61Z"/><path class="cls-1" d="M198.4,150.38c-24.4,0-49-9.18-69-25.47a112.17,112.17,0,0,0,13.38,2.7,92.19,92.19,0,0,0,12.53.89c12.3,0,23.21-2.75,32.12-8.11a121.18,121.18,0,0,0,20.41,29.53C204.74,150.23,201.58,150.38,198.4,150.38Z"/><path class="cls-1" d="M85.81,107.09a1.93,1.93,0,0,0-1.93-1.93H34.21a1.93,1.93,0,1,0,0,3.85H83.88A1.93,1.93,0,0,0,85.81,107.09Z"/><path class="cls-1" d="M34.21,80.32H83.88a1.93,1.93,0,0,0,0-3.85H34.21a1.93,1.93,0,0,0,0,3.85Z"/><path class="cls-1" d="M55.41,118.22a1.93,1.93,0,0,0,1.93,1.93h44.11a1.93,1.93,0,1,0,0-3.85H57.33A1.93,1.93,0,0,0,55.41,118.22Z"/><path class="cls-1" d="M144.69,152.27H100.59a1.93,1.93,0,1,0,0,3.85h44.11a1.93,1.93,0,0,0,0-3.85Z"/></g></g></svg>