<svg xmlns="http://www.w3.org/2000/svg" xmlns:xlink="http://www.w3.org/1999/xlink" viewBox="0 0 226.82 226.82"><defs><style>.cls-1{fill:none;}.cls-2{fill:gray;}.cls-3{fill:#999;}.cls-4{clip-path:url(#clip-path);}.cls-5{fill:#b3b3b3;}</style><clipPath id="clip-path"><rect class="cls-1" x="78.6" y="117.17" width="23" height="42.17" rx="5.75" ry="5.75" transform="translate(76.13 -26.17) rotate(28.23)"/></clipPath></defs><title>資產 5 1</title><g id="圖層_2" data-name="圖層 2"><g id="圖層_1-2" data-name="圖層 1"><path class="cls-2" d="M113.41,5a108.41,108.41,0,0,1,76.66,185.07A108.41,108.41,0,0,1,36.75,36.75,107.7,107.7,0,0,1,113.41,5m0-5A113.41,113.41,0,1,0,226.82,113.41,113.41,113.41,0,0,0,113.41,0Z"/><path class="cls-3" d="M109.35,173.09q-.55-1.44-1.14-2.74A36.1,36.1,0,0,0,96,155.73a10.33,10.33,0,0,1-.13,9.61A24.48,24.48,0,0,0,85.5,148.5l-7-4.84c-8.3-5.75-15.38-11.89-21.61-17,.83,3,.69,7.23-2.31,13a26.82,26.82,0,0,0,.34-9.48,13.19,13.19,0,0,0-5.55-9.31c-7.5-5.24-14.25-7.72-21.2-3.52-7.25,4.33-7.64,13.27-2.1,24.22a13.17,13.17,0,0,0,7.42,6.5c7.31,2.55,11.92,1,11.89,1.1-5.79,3.08-10.55,2.61-14,.93,6,8.32,15,16.9,25.77,24.39a92.34,92.34,0,0,0,12,7,20.69,20.69,0,0,0,20.3-1.17h0s-1,5.16-7.76,6.19l1.94.58a27.39,27.39,0,0,0,12.76.56,26.78,26.78,0,0,0,9.84-4c.15,0-7.1,7.83,1.22,14.11-.77-3.4,4.35-12.19,6.26-15.54.06-.09-1.79,8.52,9.55,12.23-5.4-4.19-4-8.15-3-11.05a124.89,124.89,0,0,1-20.94-5.65,122.9,122.9,0,0,1-33.7-18.82A118.6,118.6,0,0,1,56,150.48c-2.17-2.16-3.3-3.49-3.31-3.49s1.4,1.05,3.85,2.86,6,4.29,10.34,7.1a171.2,171.2,0,0,0,33.75,16.82,166.26,166.26,0,0,0,20.22,6c.26-3.09.78-7.06,6.35-9.3-9.91-.21-12.54,7.51-12.54,7.59-.21-3.87.28-13.92,2.36-16.56C108.78,163.1,109.23,173,109.35,173.09Z"/><path class="cls-2" d="M50.77,144.46s18.24,23.67,54,35.89c24.08,8.23,58,12.14,70.69,12.23,2.27,0-2.75-2.08-2.75-2.08C80.38,179.6,50.9,143.8,50.9,143.8"/><rect class="cls-2" x="69.01" y="126.75" width="42.17" height="23" rx="5.75" ry="5.75" transform="translate(-74.33 152.22) rotate(-61.77)"/><g class="cls-4"><circle class="cls-5" cx="81.27" cy="132.33" r="6.81" transform="translate(-62.43 191.21) rotate(-80.73)"/></g><rect class="cls-2" x="118.41" y="28.23" width="7.2" height="101.21" transform="translate(51.81 -48.34) rotate(28.23)"/><path class="cls-2" d="M201.58,46.74A68.93,68.93,0,0,1,200,73.14,462,462,0,0,0,149.46,40.3,463.28,463.28,0,0,0,95,14.24a66.82,66.82,0,0,1,15.2-11.52l22.17.75,13.83,4,17.5,6.67L177.55,23l10.67,8.67,8.5,8Z"/><path class="cls-2" d="M220.11,79.09q-7.31-2-14.77-3.39A71.1,71.1,0,0,0,208,56.14L215,67.61Z"/><path class="cls-2" d="M99.84,2.53A69.93,69.93,0,0,0,90.08,11Q87.57,8.21,84.93,5.5Z"/><circle class="cls-1" cx="113.41" cy="113.41" r="113.41"/></g></g></svg>