<svg xmlns="http://www.w3.org/2000/svg" viewBox="0 0 35.21 35.23"><defs><style>.cls-1{fill:#666;}</style></defs><title>資產 1</title><g id="圖層_2" data-name="圖層 2"><g id="圖層_1-2" data-name="圖層 1"><path class="cls-1" d="M24.43,3.23H18V1.53A1.8,1.8,0,0,0,17.13.29a1.77,1.77,0,0,0-1.5-.2L1.28,4.87A1.78,1.78,0,0,0,0,6.32v22A2,2,0,0,0,1.2,30l14.21,5.24h0c.17,0,.36-.11.54-.11a2.48,2.48,0,0,0,1.12-.38A2,2,0,0,0,18,33.39V30.23h6.43c.73,0,1.57-.1,1.57-.83V4.13C26,3.4,25.16,3.23,24.43,3.23ZM16,32.72,2,28V6.66L16,2.19V32.72Zm8-4.5H18v-23h6Z"/><rect class="cls-1" x="19.84" y="13.08" width="10.47" height="7.5" rx="0.37" ry="0.37"/><path class="cls-1" d="M35.14,16.56,29.39,11a.23.23,0,0,0-.39.17v11a.23.23,0,0,0,.39.17l5.74-5.51A.23.23,0,0,0,35.14,16.56Z"/></g></g></svg>