<svg xmlns="http://www.w3.org/2000/svg" viewBox="0 0 336.5 99.95"><defs><style>.cls-1{fill:#4d4d4d;}</style></defs><title>資產 1</title><g id="圖層_2" data-name="圖層 2"><g id="圖層_1-2" data-name="圖層 1"><path class="cls-1" d="M85.49,25.86A3.35,3.35,0,0,0,84,25.45c-.81,0-3.46.33-3.46,4.6a4.09,4.09,0,0,0,.17,1.35l.23.65.65.23c1.13.4,1.7,2.06,1.7,4.94a38.41,38.41,0,0,1-1.75,11.51c-1.36,3.08-2.65,6-4,8.56A42.73,42.73,0,0,1,70,68,61.83,61.83,0,0,1,52.74,79.92c-7.23,3.49-14,5.26-20,5.26H30.35c-5.61,0-10.83-3-15.54-8.95-4.6-5.61-6.93-11.44-6.93-17.33,0-4,.55-7.22,1.63-9.47,2.9-6,6.19-12.73,6.63-13.39l-1.08-.86h1.4V34l-.13,0a2,2,0,0,0-2-1.66,8.62,8.62,0,0,0-3.71,1.11C7.39,35,4.76,38.71,2.56,44.71A40.67,40.67,0,0,0,0,58.37c0,3,.89,7.31,2.81,13.42l.31,1A9.8,9.8,0,0,1,3.47,74l.06.38.61.75A18.48,18.48,0,0,0,5.7,76.88,51.21,51.21,0,0,0,8.84,82a37.4,37.4,0,0,0,10,7.83c4.62,2.59,8.75,3.9,12.29,3.9,8.41,0,17.57-2.68,27.22-8,9.47-5.19,16.84-11.56,21.9-18.93a44.4,44.4,0,0,0,5.95-12.7h0C89.61,42.23,90,39.09,90,37.75,90,30.83,88.47,26.92,85.49,25.86Z"/><path class="cls-1" d="M128.17,63c-3.43,0-8.29,2.07-15.29,6.52A112.67,112.67,0,0,0,99.51,79.64l-.61.49c.26-4,.38-6.74.36-8.07l-.07-.41c-.91-2.89-1.25-4-2.56-4.1s-1.56.24-3.14,2.4C92.09,72.79,90.92,78,90.92,87.3a20.84,20.84,0,0,0,.09,2.3v4.34h1.42c2.52,0,4.15-.52,5.1-1.59,1.6-1.69,2.89-3.14,3.56-4A70.66,70.66,0,0,1,110.78,79,63,63,0,0,1,118,74.76c4.52-2.42,6.22-2.93,6.66-3a2.57,2.57,0,0,1,.18,1.26,39.56,39.56,0,0,1-1.12,6.45,51,51,0,0,0-1.09,7.09,25.41,25.41,0,0,0,.84,6.1c.88,3.53,2.27,5.32,4.12,5.32,2.08,0,2.68-1,2.83-2,.6-4.69,1-9,1.45-13l.41-4c.62-6.27.89-9.78.89-10.49a5.67,5.67,0,0,0-1.47-3.64A4.4,4.4,0,0,0,128.17,63Z"/><path class="cls-1" d="M148.55,46.07c-1.6,0-3,1.33-4.13,4l-.38.87.66.68c3.27,3.41,4.4,3.83,4.77,4l.68.26.61-.41c2.81-1.87,4.17-3.62,4.17-5.34v-.92l-.61-.42C151.75,46.93,149.87,46.07,148.55,46.07Z"/><path class="cls-1" d="M151.41,71.4a3.74,3.74,0,0,0-2.27-2.73l-.46-.21-.49.13c-3.5.94-5.12,6.88-5.12,18.71a17.69,17.69,0,0,0,.78,5.38l.31,1h1a9.21,9.21,0,0,0,4.41-1.42l.72-.41V91c0-1.16.14-2.9.31-5.12l.22-2.82c.46-5.61.59-9.2.56-10.91h.06A3.79,3.79,0,0,0,151.41,71.4Z"/><path class="cls-1" d="M211.45,64.52a27.45,27.45,0,0,0-11.57-2.43c-.37,0-1.47.1-6.82.81l-19.36,2.52c-2.39.31-4.28.56-4.62.56-.13,0-.42-.15-.79-.58a2.94,2.94,0,0,1-.62-.91l3.1-45.82a10.75,10.75,0,0,0-1.56-6.91l-.42-.63a4.61,4.61,0,0,0-2.29-1.17c-1,0-1.83,1.17-1.83,1.17l-.39.78a19.23,19.23,0,0,0-1.74,7.43l-1.86,24.94C160.1,51.58,160,56.84,160,60v12.8l1,.32c3.45,1.12,5.47,1.51,6.8,1.28l28.67-5.46H197a33.53,33.53,0,0,1,8.45,1.27c4.77,1.37,5.15,2.7,5.18,3,0,0,.14,1.81-8.67,5.39-4.89,1.9-9.82,3.71-12.84,4.07-7.56.89-13,1.34-16.3,1.6l-.88.07A49.7,49.7,0,0,0,161.5,85.8,7.32,7.32,0,0,0,157.7,90l-.49,1.15,1.08.64a8.86,8.86,0,0,0,4.09,1.53A47.64,47.64,0,0,0,169,92.5c4.47-.9,6.11-1.12,6.53-1.13,8-1,12-1.42,12-1.42a61.59,61.59,0,0,0,12-2.35,44.81,44.81,0,0,0,11-5c5.35-3.12,7.94-6,7.94-8.74C218.47,69.84,216.11,66.7,211.45,64.52Z"/><path class="cls-1" d="M263.59,86,262,85.65c-2.34-.35-3.67-.55-3.93-.6l-.32,1.33V85H243.72a24.6,24.6,0,0,1-6.11-.58l-2-.51c2.33-.54,5.52-1.61,9.7-3.06,6.43-2.29,9.17-4.27,9.17-6.65a9.48,9.48,0,0,0-4-8c-2.58-1.88-6-2.84-10.13-2.84A23.35,23.35,0,0,0,228,66.56a12.74,12.74,0,0,0-6.22,11.28A20.58,20.58,0,0,0,223.08,85c.86,2.7,4.15,4.63,10.68,6.26a56.64,56.64,0,0,0,12.17,1.54h15.22a6.7,6.7,0,0,0,5.33-2.36l.67-.78-.53-.88A7.73,7.73,0,0,0,263.59,86ZM245.23,72.32a24.45,24.45,0,0,1-5.53,2.94c-4.39,1.61-6.81,2-7.48,2h-2a3.31,3.31,0,0,1-.13-.88c0-1.55,1.12-2.84,3.33-3.84a15,15,0,0,1,6.4-1.38A11.43,11.43,0,0,1,245.23,72.32Z"/><path class="cls-1" d="M336.11,88.72a22.11,22.11,0,0,1-3.22-4.46,47.6,47.6,0,0,0-2.34-4.2,6.53,6.53,0,0,0-5.12-1.88c-2,0-5.56,1.12-11.88,3.74-7.24,3.06-9.25,3.52-9.8,3.52a3.48,3.48,0,0,1-1.92-.55,6.82,6.82,0,0,1,1.72-2.28,64.74,64.74,0,0,1,7.73-4.86c5.77-3.31,7.11-3.35,7.14-3.35a7.17,7.17,0,0,1,1,.38,4.66,4.66,0,0,0,2.14.68,3.71,3.71,0,0,0,3.11-1.85l.26-.37V70.48l-.27-.37c-1.78-2.46-3.72-3-5-3-3.83,0-9.14,2.1-15.78,6.22-7.48,4.55-11.12,8.59-11.12,12.36,0,1.71,1,3.37,3.18,5.09a9.25,9.25,0,0,0,5.66,2.44c2.28,0,6.33-1.18,12.73-3.72l3.33-1.3c3.19-1.25,5.49-2.15,5.62-2.23s1.25,0,4.14,3.74c3.24,3.87,4.69,4.67,5.86,4.67a3.56,3.56,0,0,0,3.07-2l.21-.34V89.13Z"/><path class="cls-1" d="M310.79,21.35l-.12.55-.06.23.45.16-.06.19h0l.06-.19.45.16.29-.76Z"/><path class="cls-1" d="M303.12,25h0c-2.7-.91-4.51-3.22-4.32-5.5l-1-.17-20,75.52.94.33L311,23.72l-.87-.48C308.81,25.21,305.87,26,303.12,25Z"/><polygon class="cls-1" points="298.58 18.29 298.62 18.31 298.7 18.07 299.17 18.2 299.45 17.54 298.4 17.17 298.2 17.93 298.66 18.06 298.58 18.29"/><path class="cls-1" d="M283.83,14.66l-1.11,0,.08.58c0,.06,0,.12,0,.24h.47v.2h0v-.2h.49l0-.26Z"/><path class="cls-1" d="M276.81,20.49c-2.85,0-5.37-1.7-6-3.95l-1,.18,7.28,78.06h1l5.59-78-1-.15C282.2,18.93,279.69,20.53,276.81,20.49Z"/><path class="cls-1" d="M270.19,15.45h0V15.2l.49,0s0-.1,0-.14l0-.56h-1.12l.08.8.47,0Z"/><path class="cls-1" d="M276.74,93.69h2.16a0,0,0,0,1,0,0V99a1,1,0,0,1-1,1h-.16a1,1,0,0,1-1-1V93.69A0,0,0,0,1,276.74,93.69Z" transform="translate(15.05 -35.5) rotate(7.51)"/><path class="cls-1" d="M292.56,17.32c.78-3.73,1.3-7.64,2.37-11.29.26-.88.51-2.28,1.42-2.77s2.57-.12,3.51.24a5.73,5.73,0,0,1,3.56,4.85c.3,1.9,3.19,1.09,2.89-.8-.77-4.9-5.73-8.8-10.77-7.19-2.15.69-2.94,2.23-3.4,4.3-.87,3.94-1.66,7.9-2.48,11.85-.39,1.88,2.5,2.69,2.89.8Z"/></g></g></svg>