<svg xmlns="http://www.w3.org/2000/svg" viewBox="0 0 14.62 16.17"><defs><style>.cls-1{fill:#1f5572;}</style></defs><title>資產 1</title><g id="圖層_2" data-name="圖層 2"><g id="圖層_1-2" data-name="圖層 1"><path class="cls-1" d="M14.22.07a.67.67,0,0,0-.9.3L12.16,2.59a3.11,3.11,0,0,0-1.37-.42H3.25A3.38,3.38,0,0,0,0,5.4v7.54a3.38,3.38,0,0,0,3.25,3.23h7.54A3.34,3.34,0,0,0,14,12.94V5.4a3.1,3.1,0,0,0-.71-1.85L14.55,1A.69.69,0,0,0,14.22.07ZM13,5.4v7.54a2.25,2.25,0,0,1-2.21,2.23H3.25A2.29,2.29,0,0,1,1,12.94V5.4A2.29,2.29,0,0,1,3.25,3.17h7.54a2.18,2.18,0,0,1,1,.26l-4,8L3.9,6.55a.67.67,0,0,0-1.06.84L8,13.92l4.77-9.45A2.17,2.17,0,0,1,13,5.4Z"/></g></g></svg>