<svg xmlns="http://www.w3.org/2000/svg" viewBox="0 0 14.42 16.22"><defs><style>.cls-1{fill:#f8cf4e;}</style></defs><title>資產 3</title><g id="圖層_2" data-name="圖層 2"><g id="圖層_1-2" data-name="圖層 1"><path class="cls-1" d="M14,.07a.67.67,0,0,0-.9.3L11.91,2.61a3.08,3.08,0,0,0-1.37-.39H3A3.12,3.12,0,0,0,0,5.4v7.54a3.2,3.2,0,0,0,3,3.28h7.54A3.61,3.61,0,0,0,14,12.94V5.4a3.24,3.24,0,0,0-.83-1.85L14.37,1A.72.72,0,0,0,14,.07ZM13,5.4v7.54a2.52,2.52,0,0,1-2.46,2.28H3a2.12,2.12,0,0,1-2-2.28V5.4A2,2,0,0,1,3,3.22h7.54a2.16,2.16,0,0,1,1,.24l-4,8L3.65,6.56a.67.67,0,0,0-1.06.83l5.15,6.52,4.9-9.45A2.32,2.32,0,0,1,13,5.4Z"/></g></g></svg>