<?xml version="1.0" encoding="utf-8"?>
<!-- Generator: Adobe Illustrator 20.1.0, SVG Export Plug-In . SVG Version: 6.00 Build 0)  -->
<svg version="1.1" id="圖層_1" xmlns="http://www.w3.org/2000/svg" xmlns:xlink="http://www.w3.org/1999/xlink" x="0px" y="0px"
	 viewBox="0 0 789.5 452.8" style="enable-background:new 0 0 789.5 452.8;" xml:space="preserve">
<style type="text/css">
	.st0{fill:#FFFFFF;}
	.st1{enable-background:new    ;}
	.st2{fill:#1F5572;}
</style>
<title>nextdesigner</title>
<rect y="0" class="st0" width="789.5" height="452.8"/>
<g class="st1">
	<path class="st2" d="M70.8,53.7h18.9l17.7,30.1h0.6c-0.4-2.3-0.8-4.6-1.1-6.9c-0.4-2.3-0.5-4.6-0.5-6.9V53.7h18.9V108h-18.9
		L89.1,79.5h-0.6c0.3,1.9,0.6,3.7,0.9,5.5c0.2,1.8,0.4,3.6,0.4,5.4V108H70.8V53.7z"/>
	<path class="st2" d="M140.8,53.7h36.5v14.8h-16.6v5.2h15.2v14.1h-15.2v5.3h17.2V108h-37.1V53.7z"/>
	<path class="st2" d="M246.5,53.7l-17,25.4l19.4,28.9h-22.5l-6.2-11.5c-0.5-1-0.9-2.1-1.2-3.3h-0.6c-0.3,1.2-0.8,2.5-1.5,3.7
		l-6,11.1h-22.5l19-28.9l-17.1-25.4h22.2l4,7.7c0.4,0.7,0.7,1.5,0.9,2.2c0.2,0.7,0.5,1.5,0.7,2.3h0.4c0.2-0.8,0.4-1.6,0.7-2.3
		s0.6-1.4,1-2.2l3.7-7.7H246.5z"/>
	<path class="st2" d="M256.5,53.7H298v17.6l-10.9-0.5V108h-19.7V70.8l-10.9,0.5V53.7z"/>
</g>
<g class="st1">
	<path class="st2" d="M71.3,140.1h20.1c4.6,0,8.8,0.5,12.7,1.5c3.9,1,7.3,2.7,10.2,4.9c2.9,2.3,5.1,5.1,6.8,8.7s2.5,7.8,2.5,12.8
		c0,4-0.7,7.7-2,10.9c-1.3,3.2-3.2,6-5.7,8.3c-2.4,2.3-5.3,4.1-8.6,5.3c-3.3,1.2-7,1.8-11,1.8h-25V140.1z M91,178.1h1.2
		c1.6,0,3.2-0.2,4.6-0.6c1.4-0.4,2.6-1,3.7-1.8c1-0.8,1.8-1.9,2.4-3.2c0.6-1.3,0.9-2.8,0.9-4.6c0-3.8-1-6.6-3.1-8.3
		c-2.1-1.7-4.9-2.6-8.5-2.6H91V178.1z"/>
	<path class="st2" d="M137.6,140.1h36.5v14.8h-16.6v5.2h15.2v14.1h-15.2v5.3h17.2v14.8h-37.1V140.1z"/>
	<path class="st2" d="M193.2,174.9l1,0.8c1.8,1.4,3.7,2.6,5.8,3.5c2.1,1,4.2,1.4,6.6,1.4c0.5,0,1,0,1.6-0.1c0.6-0.1,1.2-0.3,1.7-0.5
		c0.5-0.3,0.9-0.6,1.3-1c0.3-0.4,0.5-0.9,0.5-1.5c0-0.6-0.1-1.1-0.4-1.5c-0.3-0.4-0.6-0.6-1.1-0.8c-0.4-0.2-0.9-0.3-1.4-0.4
		c-0.5-0.1-1-0.2-1.4-0.3l-4-0.7c-1.9-0.3-3.7-0.9-5.5-1.6c-1.7-0.7-3.2-1.7-4.5-2.9c-1.3-1.2-2.3-2.6-3.1-4.2
		c-0.7-1.6-1.1-3.5-1.1-5.6c0-3.2,0.7-6.1,2-8.6c1.3-2.5,3.1-4.6,5.3-6.3c2.2-1.7,4.7-3,7.5-3.9c2.8-0.9,5.7-1.3,8.7-1.3
		c6.2,0,12,1.6,17.2,4.8l-5.3,13.9c-1.7-1.2-3.5-2.1-5.4-2.9c-1.9-0.8-3.9-1.2-6.1-1.2c-0.4,0-0.9,0-1.4,0.1c-0.5,0.1-1,0.3-1.4,0.5
		c-0.4,0.2-0.8,0.5-1,0.9c-0.3,0.4-0.4,0.8-0.4,1.4c0,0.5,0.1,0.9,0.4,1.2c0.3,0.3,0.6,0.5,1,0.7c0.4,0.2,0.8,0.3,1.3,0.4
		c0.5,0.1,0.9,0.2,1.3,0.3l4.5,1c2.1,0.5,4,1.1,5.8,1.9c1.8,0.8,3.3,1.8,4.6,3.1c1.3,1.2,2.3,2.7,3,4.5c0.7,1.7,1.1,3.7,1.1,6
		c0,3.3-0.7,6.1-2,8.5c-1.3,2.4-3.1,4.4-5.3,6c-2.2,1.6-4.7,2.8-7.6,3.6c-2.8,0.8-5.7,1.2-8.6,1.2c-3.5,0-7-0.4-10.7-1.3
		c-3.7-0.9-7.1-2.1-10.2-3.6L193.2,174.9z"/>
	<path class="st2" d="M245.1,140.1h19.7v54.3h-19.7V140.1z"/>
	<path class="st2" d="M338.5,162.4c0,2.2-0.1,4.3-0.2,6.4c-0.1,2-0.3,4-0.7,5.9c-0.4,1.9-1.1,3.8-1.9,5.6c-0.9,1.8-2.1,3.6-3.7,5.3
		c-1.4,1.6-3.1,3-4.9,4.2c-1.8,1.2-3.7,2.2-5.7,3c-2,0.8-4,1.4-6.2,1.8c-2.1,0.4-4.2,0.6-6.3,0.6c-4.1,0-8-0.6-11.7-1.9
		c-3.6-1.2-6.8-3.1-9.5-5.4c-2.7-2.4-4.8-5.3-6.4-8.7c-1.6-3.4-2.3-7.3-2.3-11.7c0-4.4,0.8-8.4,2.3-11.9c1.5-3.5,3.6-6.5,6.3-8.9
		c2.7-2.4,5.9-4.3,9.5-5.6s7.6-1.9,11.9-1.9c2.4,0,4.9,0.3,7.5,0.9s5.2,1.5,7.7,2.6c2.5,1.2,4.8,2.6,6.8,4.4s3.6,3.8,4.6,6.1
		l-18.4,6.8c-0.8-1.4-1.8-2.4-3.1-3.1c-1.3-0.7-2.8-1-4.4-1c-1.8,0-3.3,0.3-4.7,1c-1.3,0.7-2.5,1.6-3.4,2.8c-0.9,1.2-1.6,2.5-2.1,4
		c-0.5,1.5-0.7,3.1-0.7,4.7c0,1.5,0.2,2.9,0.7,4.3c0.5,1.4,1.1,2.6,2,3.7c0.9,1.1,1.9,1.9,3.2,2.6c1.3,0.6,2.7,1,4.3,1
		c0.8,0,1.6-0.1,2.4-0.3c0.8-0.2,1.6-0.5,2.4-0.9c0.7-0.4,1.4-0.9,2-1.5c0.6-0.6,1-1.3,1.2-2.1h-8.9v-12.8H338.5z"/>
	<path class="st2" d="M352.2,140.1h18.9l17.7,30.1h0.6c-0.4-2.3-0.8-4.6-1.1-6.9c-0.4-2.3-0.5-4.6-0.5-6.9v-16.3h18.9v54.3h-18.9
		l-17.4-28.5h-0.6c0.3,1.9,0.6,3.7,0.9,5.5c0.2,1.8,0.4,3.6,0.4,5.4v17.6h-18.9V140.1z"/>
	<path class="st2" d="M422.2,140.1h36.5v14.8h-16.6v5.2h15.2v14.1h-15.2v5.3h17.2v14.8h-37.1V140.1z"/>
	<path class="st2" d="M474.6,140.1h23.8c3.1,0,6,0.3,8.7,1c2.7,0.7,5.1,1.8,7.2,3.3c2.1,1.5,3.7,3.5,4.9,5.9
		c1.2,2.4,1.8,5.3,1.8,8.7c0,2.1-0.2,3.8-0.6,5.3c-0.4,1.5-1,2.8-1.9,3.9c-0.9,1.1-2,2-3.3,2.8c-1.3,0.8-2.9,1.5-4.7,2.1v0.4
		c0.5,0.4,1.1,0.8,1.7,1.3c0.6,0.5,1.1,1.1,1.7,1.9l11.8,17.6h-22.8l-8.6-17.4h-0.4v17.4h-19.3V140.1z M493.9,164.1h1.4
		c0.8,0,1.6,0,2.4-0.1c0.8-0.1,1.5-0.3,2.1-0.6c0.6-0.3,1.1-0.8,1.5-1.4c0.4-0.6,0.5-1.4,0.5-2.4c0-1.1-0.2-1.9-0.5-2.5
		c-0.3-0.6-0.8-1.1-1.4-1.4c-0.6-0.3-1.2-0.6-2-0.6c-0.8-0.1-1.6-0.1-2.4-0.1h-1.5V164.1z"/>
</g>
<g class="st1">
	<path class="st2" d="M306.2,225.3h-13v4.8c4.7,2.5,8.3,4.7,10.8,6.8l-1.7,2.3c-2.3-2-5.3-4-9.2-6.1V248h-2.7v-22.7h-10.3v-2.6h26.1
		V225.3z"/>
	<path class="st2" d="M323.1,222.3c-0.2,1.2-0.6,2.6-1.1,4.4l-0.8,2.5V248h-2.6v-13.6c-0.5,0.7-0.9,1.3-1.3,1.8l-1.5-2.5
		c2.1-3.2,3.7-7.2,4.7-12.1L323.1,222.3z M341.5,248h-2.6v-1.3h-12.8v1.3h-2.6v-25.4h18V248z M338.9,244.1v-19h-12.8v19H338.9z
		 M338,231.2h-4.2v2.6h3.2v8.5h-8.9v-8.5h3.1v-2.6H327v-2.3h4.3v-2.9h2.5v2.9h4.2V231.2z M334.5,239.9v-3.8h-3.9v3.8H334.5z"/>
	<path class="st2" d="M362.6,227.1h-10.5v-2.4h4c-0.3-0.8-0.6-1.5-1-2.3l2.7-0.7c0.4,0.8,0.8,1.7,1.2,2.9h3.6V227.1z M361.8,231.5
		h-9v-2.4h9V231.5z M361.8,235.8h-9v-2.4h9V235.8z M361.9,247.4h-2.6v-1.2h-3.8v1.9h-2.5v-10.4h8.9V247.4z M359.3,243.8v-3.6h-3.8
		v3.6H359.3z M378.6,245.8l-1.3,2.4c-2.5-0.8-4.8-2-6.9-3.5c-1.9,1.4-4,2.6-6.5,3.6l-1.5-2.3c2.5-0.8,4.5-1.8,6.1-3.1
		c-1.6-1.8-2.9-3.9-3.8-6.2h-1.4v-2.5h13.1v2.5c-1.3,2.6-2.6,4.7-4,6.2C374.1,244.2,376.2,245.2,378.6,245.8z M378.3,232.6h-3.9
		c-0.5,0-0.9-0.2-1.3-0.6c-0.4-0.4-0.6-0.9-0.6-1.4v-5.3h-4.1v1.8c0,1.3-0.3,2.6-1,3.8s-1.6,2.2-2.7,2.8l-1.9-1.8
		c2-1,2.9-2.9,2.9-5.6v-3.5h9.3v6.7c0,0.2,0.1,0.4,0.3,0.5s0.4,0.2,0.5,0.2h2.4V232.6z M373.6,236.8h-6c0.9,1.9,1.8,3.4,2.9,4.4
		C371.6,240.2,372.7,238.7,373.6,236.8z"/>
	<path class="st2" d="M400.6,227h-12.5v-2.4h5c-0.3-0.8-0.7-1.7-1.1-2.4l2.8-0.5c0.5,0.8,0.9,1.8,1.3,2.9h4.5V227z M399.2,231.5h-10
		v-2.4h10V231.5z M399.2,235.8h-10v-2.4h10V235.8z M399.2,247.7h-2.6v-1.5H392v1.9h-2.6v-10.3h9.9V247.7z M396.6,243.8v-3.6H392v3.6
		H396.6z M414.3,232.8h-5.5v15.3h-2.7v-15.3h-5.3v-2.6h5.3v-8.2h2.7v8.2h5.5V232.8z"/>
	<path class="st2" d="M434.6,246.5h-7.2v1.6H425v-23h2.8c0.6-1.1,1.1-2.3,1.4-3.4l2.7,0.5c-0.5,1.3-0.9,2.2-1.1,2.8h3.3v8.8h-6.6
		v3.1h7.2V246.5z M431.5,231.4v-3.9h-4.1v3.9H431.5z M432.2,244.1v-4.7h-4.7v4.7H432.2z M450.2,225h-6.1v3.4h5.1v15
		c0,0.8-0.2,1.5-0.7,2s-1.6,0.7-3.4,0.6l-0.5-2.6c0.2,0,0.7,0.1,1.6,0.1c0.4,0,0.6-0.2,0.6-0.6v-12.1h-2.5V248h-2.6v-17.2h-2.5v15.3
		h-2.5v-17.7h5V225h-6.2v-2.5h14.9V225z"/>
	<path class="st2" d="M469.9,242.1c-2.5,2-5.3,3.5-8.2,4.7l-1.6-2.2c2.9-1.1,5.5-2.5,7.8-4.2L469.9,242.1z M485.9,239.2l-2.2,1.6
		c-0.7-1-1.2-1.7-1.7-2.2c-2.8,0.4-5.3,0.6-7.4,0.7v6.1c0,0.8-0.2,1.5-0.7,1.9s-2.1,0.7-4.8,0.7l-1.1-2.7c1.1,0.1,2.1,0.1,3.1,0.1
		c0.5,0,0.8-0.3,0.8-0.8v-5.2c-4.1,0.2-7.1,0.3-9.1,0.4l-0.6-2.3c2.5-0.7,5.5-1.9,8.8-3.7c-3.5,0.2-6,0.3-7.5,0.3l-0.4-1.9
		c4.1-1.3,7.8-3.4,11-6.2l2.5,1.4c-2,1.8-4.4,3.2-7.3,4.5l2.4-0.1l3.6-0.3c0.2,0,0.8-0.4,2-1.3l2.1-1.5l2.3,1.6
		c-4.7,3.3-9.1,5.7-13.3,7.2c3.5-0.1,7.4-0.5,11.6-1c-0.5-0.5-1.1-1.1-1.8-1.7l2.4-1.3C482.9,235.4,484.6,237.4,485.9,239.2z
		 M476.7,223.1c-3,2.4-7.2,4.4-12.7,5.9l-1.5-2.3c4.8-1,8.8-2.7,11.9-5L476.7,223.1z M486.5,244.9l-1.8,2c-2-1.7-4.7-3.4-7.9-5
		l1.9-1.9C481.9,241.7,484.5,243.3,486.5,244.9z"/>
	<path class="st2" d="M511.6,225.1h-7.5c-0.3,1.1-0.7,2.5-1.2,4h7.9c-0.6,5.6-1.9,9.8-4.1,12.5c-2.2,2.7-4.9,4.9-8.3,6.6l-2.1-1.9
		c3.7-1.8,6.7-4,8.7-6.8c-1.4-1.2-3.1-2.4-5.2-3.5c-0.7,1.2-1.4,2.1-2.1,2.8l-1.7-2.1c2.2-2.5,3.9-6.4,5.3-11.5h-4.8v-2.7h15.1
		V225.1z M507.7,231.6h-5.8c-0.2,0.6-0.5,1.2-0.8,1.9c1.8,1,3.5,2.2,5.1,3.5C507,235.2,507.5,233.4,507.7,231.6z M515.7,242.7h-2.7
		V224h2.7V242.7z M521.6,245.5c0,0.6-0.2,1.1-0.6,1.6c-0.4,0.5-0.9,0.8-1.4,0.9c-0.6,0.1-2,0.1-4.5,0.1l-1.1-2.6
		c0.9,0,1.6,0.1,2.2,0.1c1.4,0,2.2-0.1,2.4-0.2s0.3-0.3,0.3-0.5V222h2.6V245.5z"/>
</g>
</svg>
