<?xml version="1.0" encoding="utf-8"?>
<!-- Generator: Adobe Illustrator 21.0.0, SVG Export Plug-In . SVG Version: 6.00 Build 0)  -->
<svg version="1.1" id="圖層_1" xmlns="http://www.w3.org/2000/svg" xmlns:xlink="http://www.w3.org/1999/xlink" x="0px" y="0px"
	 viewBox="0 0 800 800" style="enable-background:new 0 0 800 800;" xml:space="preserve">
<style type="text/css">
	.st0{fill:#83D6FF;}
</style>

		<path class="st0" d="M257,396.2c0,7.4,3.7,10.2,8.2,10.2c4.5,0,8.2-3,8.2-10.2c0-7.2-8.2-21.2-8.2-21.2S257,388.8,257,396.2z"/>
		<path class="st0" d="M676,186.2c0,7.4,3.7,10.2,8.2,10.2s8.2-3,8.2-10.2s-8.2-21.2-8.2-21.2S676,178.8,676,186.2z"/>
		<path class="st0" d="M526,431.2c0,7.4,3.7,10.2,8.2,10.2s8.2-3,8.2-10.2c0-7.2-8.2-21.2-8.2-21.2S526,423.8,526,431.2z"/>
		<path class="st0" d="M206,258.2c0,7.4,3.7,10.2,8.2,10.2s8.2-3,8.2-10.2c0-7.2-8.2-21.2-8.2-21.2S206,250.8,206,258.2z"/>
		<path class="st0" d="M452,233.2c0,7.4,3.7,10.2,8.2,10.2c4.5,0,8.2-3,8.2-10.2s-8.2-21.2-8.2-21.2S452,225.8,452,233.2z"/>
		<path class="st0" d="M444,472.2c0,7.4,3.7,10.2,8.2,10.2c4.5,0,8.2-3,8.2-10.2c0-7.2-8.2-21.2-8.2-21.2S444,464.8,444,472.2z"/>
		<path class="st0" d="M307,289.2c0,7.4,3.7,10.2,8.2,10.2c4.5,0,8.2-3,8.2-10.2c0-7.2-8.2-21.2-8.2-21.2S307,281.8,307,289.2z"/>
		<path class="st0" d="M323,507.2c0,7.4,3.7,10.2,8.2,10.2c4.5,0,8.2-3,8.2-10.2s-8.2-21.2-8.2-21.2S323,499.8,323,507.2z"/>
		<path class="st0" d="M190,651.2c0,7.4,3.7,10.2,8.2,10.2s8.2-3,8.2-10.2c0-7.2-8.2-21.2-8.2-21.2S190,643.8,190,651.2z"/>
		<path class="st0" d="M299,635.2c0,7.4,3.7,10.2,8.2,10.2c4.5,0,8.2-3,8.2-10.2c0-7.2-8.2-21.2-8.2-21.2S299,627.8,299,635.2z"/>

		<path class="st0" d="M526,679.2c0,7.4,3.7,10.2,8.2,10.2s8.2-3,8.2-10.2c0-7.2-8.2-21.2-8.2-21.2S526,671.8,526,679.2z"/>

		<path class="st0" d="M719,523.2c0,7.4,3.7,10.2,8.2,10.2s8.2-3,8.2-10.2c0-7.2-8.2-21.2-8.2-21.2S719,515.8,719,523.2z"/>

		<path class="st0" d="M614,561.2c0,7.4,3.7,10.2,8.2,10.2s8.2-3,8.2-10.2c0-7.2-8.2-21.2-8.2-21.2S614,553.8,614,561.2z"/>

		<path class="st0" d="M142,351.2c0,7.4,3.7,10.2,8.2,10.2s8.2-3,8.2-10.2c0-7.2-8.2-21.2-8.2-21.2S142,343.8,142,351.2z"/>

		<path class="st0" d="M115,155.2c0,7.4,3.7,10.2,8.2,10.2c4.5,0,8.2-3,8.2-10.2s-8.2-21.2-8.2-21.2S115,147.8,115,155.2z"/>

		<path class="st0" d="M630,386.2c0,7.4,3.7,10.2,8.2,10.2s8.2-3,8.2-10.2c0-7.2-8.2-21.2-8.2-21.2S630,378.8,630,386.2z"/>

		<path class="st0" d="M415,612.2c0,7.4,3.7,10.2,8.2,10.2c4.5,0,8.2-3,8.2-10.2c0-7.2-8.2-21.2-8.2-21.2S415,604.8,415,612.2z"/>

		<path class="st0" d="M103,488.2c0,7.4,3.7,10.2,8.2,10.2c4.5,0,8.2-3,8.2-10.2c0-7.2-8.2-21.2-8.2-21.2S103,480.8,103,488.2z"/>


		<path class="st0" d="M392,367.2c0,7.4,3.7,10.2,8.2,10.2c4.5,0,8.2-3,8.2-10.2c0-7.2-8.2-21.2-8.2-21.2S392,359.8,392,367.2z"/>

</svg>
