<svg xmlns="http://www.w3.org/2000/svg" viewBox="0 0 1565.43 1500.1"><defs><style>.cls-1{fill:#83d6ff;}</style></defs><title>資產 1</title><g id="圖層_2" data-name="圖層 2"><g id="圖層_1-2" data-name="圖層 1"><path class="cls-1" d="M1537,66.2s-7.54,12.29-7.54,18.59,3.38,8.93,7.54,8.93,7.54-2.41,7.54-8.93S1537,66.2,1537,66.2Z"/><path class="cls-1" d="M1471,134.59s-5.08,8.29-5.08,12.54,2.28,6,5.08,6,5.08-1.63,5.08-6S1471,134.59,1471,134.59Z"/><path class="cls-1" d="M1537,406.31s-5.08,8.29-5.08,12.54,2.28,6,5.08,6,5.08-1.63,5.08-6S1537,406.31,1537,406.31Z"/><path class="cls-1" d="M1264.22,319.92s-5.08,8.29-5.08,12.54,2.28,6,5.08,6,5.08-1.63,5.08-6S1264.22,319.92,1264.22,319.92Z"/><path class="cls-1" d="M1116.88,372s-5.08,8.29-5.08,12.54,2.28,6,5.08,6,5.08-1.63,5.08-6S1116.88,372,1116.88,372Z"/><path class="cls-1" d="M992.78,727.29s-5.08,8.29-5.08,12.54,2.28,6,5.08,6,5.08-1.63,5.08-6S992.78,727.29,992.78,727.29Z"/><path class="cls-1" d="M1413.19,457.9s-5.08,8.29-5.08,12.54,2.28,6,5.08,6,5.08-1.63,5.08-6S1413.19,457.9,1413.19,457.9Z"/><path class="cls-1" d="M748.37,240.63s-5.08,8.29-5.08,12.54,2.28,6,5.08,6,5.08-1.63,5.08-6S748.37,240.63,748.37,240.63Z"/><path class="cls-1" d="M1026.87,50.59s-5.08,8.29-5.08,12.54,2.28,6,5.08,6,5.08-1.63,5.08-6S1026.87,50.59,1026.87,50.59Z"/><path class="cls-1" d="M839.87,0s-5.08,8.29-5.08,12.54,2.28,6,5.08,6,5.08-1.63,5.08-6S839.87,0,839.87,0Z"/><path class="cls-1" d="M676.71,59.87s-5.08,8.29-5.08,12.54,2.28,6,5.08,6,5.08-1.63,5.08-6S676.71,59.87,676.71,59.87Z"/><path class="cls-1" d="M944,220.06S939,228.35,939,232.6s2.28,6,5.08,6,5.08-1.63,5.08-6S944,220.06,944,220.06Z"/><path class="cls-1" d="M638.78,194.87s-5.08,8.29-5.08,12.54,2.28,6,5.08,6,5.08-1.63,5.08-6S638.78,194.87,638.78,194.87Z"/><path class="cls-1" d="M592.86,406.31s-5.08,8.29-5.08,12.54,2.28,6,5.08,6,5.08-1.63,5.08-6S592.86,406.31,592.86,406.31Z"/><path class="cls-1" d="M758.54,381.28s-5.08,8.29-5.08,12.54,2.28,6,5.08,6,5.08-1.63,5.08-6S758.54,381.28,758.54,381.28Z"/><path class="cls-1" d="M706.54,691.68s-5.08,8.29-5.08,12.54,2.28,6,5.08,6,5.08-1.63,5.08-6S706.54,691.68,706.54,691.68Z"/><path class="cls-1" d="M533.54,568.54s-5.08,8.29-5.08,12.54,2.28,6,5.08,6,5.08-1.63,5.08-6S533.54,568.54,533.54,568.54Z"/><path class="cls-1" d="M363.78,499.31s-5.08,8.29-5.08,12.54,2.28,6,5.08,6,5.08-1.63,5.08-6S363.78,499.31,363.78,499.31Z"/><path class="cls-1" d="M296.84,645.9s-5.08,8.29-5.08,12.54,2.28,6,5.08,6,5.08-1.63,5.08-6S296.84,645.9,296.84,645.9Z"/><path class="cls-1" d="M130.85,718s-5.08,8.29-5.08,12.54,2.28,6,5.08,6,5.08-1.63,5.08-6S130.85,718,130.85,718Z"/><path class="cls-1" d="M210.64,490s-5.08,8.29-5.08,12.54,2.28,6,5.08,6,5.08-1.63,5.08-6S210.64,490,210.64,490Z"/><path class="cls-1" d="M59.9,429.35s-5.08,8.29-5.08,12.54,2.28,6,5.08,6,5.08-1.63,5.08-6S59.9,429.35,59.9,429.35Z"/><path class="cls-1" d="M368.87,305.2s-5.08,8.29-5.08,12.54,2.28,6,5.08,6,5.08-1.63,5.08-6S368.87,305.2,368.87,305.2Z"/><path class="cls-1" d="M296.84,118.85s-5.08,8.29-5.08,12.54,2.28,6,5.08,6,5.08-1.63,5.08-6S296.84,118.85,296.84,118.85Z"/><path class="cls-1" d="M100,312.08s-5.08,8.29-5.08,12.54,2.28,6,5.08,6,5.08-1.63,5.08-6S100,312.08,100,312.08Z"/><path class="cls-1" d="M133.94,21.35s-5.08,8.29-5.08,12.54,2.28,6,5.08,6,5.08-1.63,5.08-6S133.94,21.35,133.94,21.35Z"/><path class="cls-1" d="M404.87,162.11s-5.08,8.29-5.08,12.54,2.28,6,5.08,6,5.08-1.63,5.08-6S404.87,162.11,404.87,162.11Z"/><path class="cls-1" d="M1280,128.13s-5.08,8.29-5.08,12.54,2.28,6,5.08,6,5.08-1.63,5.08-6S1280,128.13,1280,128.13Z"/><path class="cls-1" d="M1433.57,727.29s-5.08,8.29-5.08,12.54,2.28,6,5.08,6,5.08-1.63,5.08-6S1433.57,727.29,1433.57,727.29Z"/><path class="cls-1" d="M1133.66,691.68s-5.08,8.29-5.08,12.54,2.28,6,5.08,6,5.08-1.63,5.08-6S1133.66,691.68,1133.66,691.68Z"/><path class="cls-1" d="M1372,624.43s-5.08,8.29-5.08,12.54,2.28,6,5.08,6,5.08-1.63,5.08-6S1372,624.43,1372,624.43Z"/><path class="cls-1" d="M1098.87,485.55s-5.08,8.29-5.08,12.54,2.28,6,5.08,6,5.08-1.63,5.08-6S1098.87,485.55,1098.87,485.55Z"/><path class="cls-1" d="M862.68,568.54s-5.08,8.29-5.08,12.54,2.28,6,5.08,6,5.08-1.63,5.08-6S862.68,568.54,862.68,568.54Z"/><path class="cls-1" d="M1298.77,28.87S1295,35,1295,38.17s1.69,4.47,3.77,4.47,3.77-1.21,3.77-4.47S1298.77,28.87,1298.77,28.87Z"/><path class="cls-1" d="M1492.2,229.34s-3.77,6.15-3.77,9.3,1.69,4.47,3.77,4.47,3.77-1.21,3.77-4.47S1492.2,229.34,1492.2,229.34Z"/><path class="cls-1" d="M1449.53,329.2s-2,3.25-2,4.92.89,2.36,2,2.36,2-.64,2-2.36S1449.53,329.2,1449.53,329.2Z"/><path class="cls-1" d="M1411.2,90.09s-2,3.25-2,4.92.89,2.36,2,2.36,2-.64,2-2.36S1411.2,90.09,1411.2,90.09Z"/><path class="cls-1" d="M1248.87,225.7s-2,3.25-2,4.92.89,2.36,2,2.36,2-.64,2-2.36S1248.87,225.7,1248.87,225.7Z"/><path class="cls-1" d="M1336.86,528.23s-2,3.25-2,4.92.89,2.36,2,2.36,2-.64,2-2.36S1336.86,528.23,1336.86,528.23Z"/><path class="cls-1" d="M801.51,463.54s-2,3.25-2,4.92.89,2.36,2,2.36,2-.64,2-2.36S801.51,463.54,801.51,463.54Z"/><path class="cls-1" d="M482.06,383.28s-2,3.25-2,4.92.89,2.36,2,2.36,2-.64,2-2.36S482.06,383.28,482.06,383.28Z"/><path class="cls-1" d="M406.87,587.26s-2,3.25-2,4.92.89,2.36,2,2.36,2-.64,2-2.36S406.87,587.26,406.87,587.26Z"/><path class="cls-1" d="M590.87,642.26s-2,3.25-2,4.92.89,2.36,2,2.36,2-.64,2-2.36S590.87,642.26,590.87,642.26Z"/><path class="cls-1" d="M262.86,723.62s-2,3.25-2,4.92.89,2.36,2,2.36,2-.64,2-2.36S262.86,723.62,262.86,723.62Z"/><path class="cls-1" d="M128.86,491.19s-2,3.25-2,4.92.89,2.36,2,2.36,2-.64,2-2.36S128.86,491.19,128.86,491.19Z"/><path class="cls-1" d="M201.11,350.78s-2,3.25-2,4.92.89,2.36,2,2.36,2-.64,2-2.36S201.11,350.78,201.11,350.78Z"/><path class="cls-1" d="M837.87,222.06s-2,3.25-2,4.92.89,2.36,2,2.36,2-.64,2-2.36S837.87,222.06,837.87,222.06Z"/><path class="cls-1" d="M908.4,707.84s-2,3.25-2,4.92.89,2.36,2,2.36,2-.64,2-2.36S908.4,707.84,908.4,707.84Z"/><path class="cls-1" d="M1338.85,697.32s-2,3.25-2,4.92.89,2.36,2,2.36,2-.64,2-2.36S1338.85,697.32,1338.85,697.32Z"/><path class="cls-1" d="M1174.86,47s-2,3.25-2,4.92.89,2.36,2,2.36,2-.64,2-2.36S1174.86,47,1174.86,47Z"/><path class="cls-1" d="M1356.48,373.16s-3.77,6.15-3.77,9.3,1.69,4.47,3.77,4.47,3.77-1.21,3.77-4.47S1356.48,373.16,1356.48,373.16Z"/><path class="cls-1" d="M957.54,494.83s-3.77,6.15-3.77,9.3,1.69,4.47,3.77,4.47,3.77-1.21,3.77-4.47S957.54,494.83,957.54,494.83Z"/><path class="cls-1" d="M1074.5,293.84s-3.77,6.15-3.77,9.3,1.69,4.47,3.77,4.47,3.77-1.21,3.77-4.47S1074.5,293.84,1074.5,293.84Z"/><path class="cls-1" d="M944,114.37s-3.77,6.15-3.77,9.3,1.69,4.47,3.77,4.47,3.77-1.21,3.77-4.47S944,114.37,944,114.37Z"/><path class="cls-1" d="M478.29,462.12s-3.77,6.15-3.77,9.3,1.69,4.47,3.77,4.47,3.77-1.21,3.77-4.47S478.29,462.12,478.29,462.12Z"/><path class="cls-1" d="M689.33,307.6s-3.77,6.15-3.77,9.3,1.69,4.47,3.77,4.47,3.77-1.21,3.77-4.47S689.33,307.6,689.33,307.6Z"/><path class="cls-1" d="M545,80s-3.77,6.15-3.77,9.3,1.69,4.47,3.77,4.47,3.77-1.21,3.77-4.47S545,80,545,80Z"/><path class="cls-1" d="M245.1,222.39s-3.77,6.15-3.77,9.3,1.69,4.47,3.77,4.47,3.77-1.21,3.77-4.47S245.1,222.39,245.1,222.39Z"/><path class="cls-1" d="M206.87,619.95s-3.77,6.15-3.77,9.3,1.69,4.47,3.77,4.47,3.77-1.21,3.77-4.47S206.87,619.95,206.87,619.95Z"/><path class="cls-1" d="M1208.76,613.07s-3.77,6.15-3.77,9.3,1.69,4.47,3.77,4.47,3.77-1.21,3.77-4.47S1208.76,613.07,1208.76,613.07Z"/><path class="cls-1" d="M1547.28,704.59s-3.77,6.15-3.77,9.3,1.69,4.47,3.77,4.47,3.77-1.21,3.77-4.47S1547.28,704.59,1547.28,704.59Z"/><path class="cls-1" d="M1403.66,194.87s-7.54,12.29-7.54,18.59,3.38,8.93,7.54,8.93,7.54-2.41,7.54-8.93S1403.66,194.87,1403.66,194.87Z"/><path class="cls-1" d="M1133.66,143.87s-7.54,12.29-7.54,18.59,3.38,8.93,7.54,8.93,7.54-2.41,7.54-8.93S1133.66,143.87,1133.66,143.87Z"/><path class="cls-1" d="M784.4,93.72s-7.54,12.29-7.54,18.59,3.38,8.93,7.54,8.93,7.54-2.41,7.54-8.93S784.4,93.72,784.4,93.72Z"/><path class="cls-1" d="M59.9,100.6s-7.54,12.29-7.54,18.59,3.38,8.93,7.54,8.93,7.54-2.41,7.54-8.93S59.9,100.6,59.9,100.6Z"/><path class="cls-1" d="M900.87,337s-7.54,12.29-7.54,18.59,3.38,8.93,7.54,8.93,7.54-2.41,7.54-8.93S900.87,337,900.87,337Z"/><path class="cls-1" d="M689.33,518.11s-7.54,12.29-7.54,18.59,3.38,8.93,7.54,8.93,7.54-2.41,7.54-8.93S689.33,518.11,689.33,518.11Z"/><path class="cls-1" d="M351.85,30.63s-7.54,12.29-7.54,18.59,3.38,8.93,7.54,8.93,7.54-2.41,7.54-8.93S351.85,30.63,351.85,30.63Z"/><path class="cls-1" d="M508.25,222.39s-7.54,12.29-7.54,18.59,3.38,8.93,7.54,8.93,7.54-2.41,7.54-8.93S508.25,222.39,508.25,222.39Z"/><path class="cls-1" d="M296.84,424.87s-7.54,12.29-7.54,18.59,3.38,8.93,7.54,8.93,7.54-2.41,7.54-8.93S296.84,424.87,296.84,424.87Z"/><path class="cls-1" d="M416.83,676.86s-7.54,12.29-7.54,18.59,3.38,8.93,7.54,8.93,7.54-2.41,7.54-8.93S416.83,676.86,416.83,676.86Z"/><path class="cls-1" d="M82.35,606.19s-7.54,12.29-7.54,18.59,3.38,8.93,7.54,8.93,7.54-2.41,7.54-8.93S82.35,606.19,82.35,606.19Z"/><path class="cls-1" d="M819.71,677.91s-7.54,12.29-7.54,18.59,3.38,8.93,7.54,8.93,7.54-2.41,7.54-8.93S819.71,677.91,819.71,677.91Z"/><path class="cls-1" d="M146.56,157.63S139,169.93,139,176.22s3.38,8.93,7.54,8.93,7.54-2.41,7.54-8.93S146.56,157.63,146.56,157.63Z"/><path class="cls-1" d="M1034.4,619.95s-7.54,12.29-7.54,18.59,3.38,8.93,7.54,8.93,7.54-2.41,7.54-8.93S1034.4,619.95,1034.4,619.95Z"/><path class="cls-1" d="M1231.66,424.87s-7.54,12.29-7.54,18.59,3.38,8.93,7.54,8.93,7.54-2.41,7.54-8.93S1231.66,424.87,1231.66,424.87Z"/><path class="cls-1" d="M1484.66,531.87s-7.54,12.29-7.54,18.59,3.38,8.93,7.54,8.93,7.54-2.41,7.54-8.93S1484.66,531.87,1484.66,531.87Z"/><path class="cls-1" d="M105,1027.45S97.5,1039.74,97.5,1046s3.38,8.93,7.54,8.93,7.54-2.41,7.54-8.93S105,1027.45,105,1027.45Z"/><path class="cls-1" d="M1560.35,888.84s-5.08,8.29-5.08,12.54,2.28,6,5.08,6,5.08-1.63,5.08-6S1560.35,888.84,1560.35,888.84Z"/><path class="cls-1" d="M48.59,1125s-5.08,8.29-5.08,12.54,2.28,6,5.08,6,5.08-1.63,5.08-6S48.59,1125,48.59,1125Z"/><path class="cls-1" d="M1353.61,1074.17s-5.08,8.29-5.08,12.54,2.28,6,5.08,6,5.08-1.63,5.08-6S1353.61,1074.17,1353.61,1074.17Z"/><path class="cls-1" d="M1206.28,1126.25s-5.08,8.29-5.08,12.54,2.28,6,5.08,6,5.08-1.63,5.08-6S1206.28,1126.25,1206.28,1126.25Z"/><path class="cls-1" d="M1082.18,1481.54s-5.08,8.29-5.08,12.54,2.28,6,5.08,6,5.08-1.63,5.08-6S1082.18,1481.54,1082.18,1481.54Z"/><path class="cls-1" d="M1502.59,1212.15s-5.08,8.29-5.08,12.54,2.28,6,5.08,6,5.08-1.63,5.08-6S1502.59,1212.15,1502.59,1212.15Z"/><path class="cls-1" d="M837.76,994.88s-5.08,8.29-5.08,12.54,2.28,6,5.08,6,5.08-1.63,5.08-6S837.76,994.88,837.76,994.88Z"/><path class="cls-1" d="M1116.26,804.84s-5.08,8.29-5.08,12.54,2.28,6,5.08,6,5.08-1.63,5.08-6S1116.26,804.84,1116.26,804.84Z"/><path class="cls-1" d="M929.26,754.25s-5.08,8.29-5.08,12.54,2.28,6,5.08,6,5.08-1.63,5.08-6S929.26,754.25,929.26,754.25Z"/><path class="cls-1" d="M766.11,814.12S761,822.42,761,826.66s2.28,6,5.08,6,5.08-1.63,5.08-6S766.11,814.12,766.11,814.12Z"/><path class="cls-1" d="M1033.44,974.31s-5.08,8.29-5.08,12.54,2.28,6,5.08,6,5.08-1.63,5.08-6S1033.44,974.31,1033.44,974.31Z"/><path class="cls-1" d="M728.18,949.12s-5.08,8.29-5.08,12.54,2.28,6,5.08,6,5.08-1.63,5.08-6S728.18,949.12,728.18,949.12Z"/><path class="cls-1" d="M682.26,1160.56s-5.08,8.29-5.08,12.54,2.28,6,5.08,6,5.08-1.63,5.08-6S682.26,1160.56,682.26,1160.56Z"/><path class="cls-1" d="M847.93,1135.53s-5.08,8.29-5.08,12.54,2.28,6,5.08,6,5.08-1.63,5.08-6S847.93,1135.53,847.93,1135.53Z"/><path class="cls-1" d="M795.93,1445.93s-5.08,8.29-5.08,12.54,2.28,6,5.08,6,5.08-1.63,5.08-6S795.93,1445.93,795.93,1445.93Z"/><path class="cls-1" d="M622.93,1322.79s-5.08,8.29-5.08,12.54,2.28,6,5.08,6,5.08-1.63,5.08-6S622.93,1322.79,622.93,1322.79Z"/><path class="cls-1" d="M453.18,1253.56s-5.08,8.29-5.08,12.54,2.28,6,5.08,6,5.08-1.63,5.08-6S453.18,1253.56,453.18,1253.56Z"/><path class="cls-1" d="M386.24,1400.15s-5.08,8.29-5.08,12.54,2.28,6,5.08,6,5.08-1.63,5.08-6S386.24,1400.15,386.24,1400.15Z"/><path class="cls-1" d="M220.25,1472.23s-5.08,8.29-5.08,12.54,2.28,6,5.08,6,5.08-1.63,5.08-6S220.25,1472.23,220.25,1472.23Z"/><path class="cls-1" d="M5.08,1481.54S0,1489.83,0,1494.08s2.28,6,5.08,6,5.08-1.63,5.08-6S5.08,1481.54,5.08,1481.54Z"/><path class="cls-1" d="M300,1244.28s-5.08,8.29-5.08,12.54,2.28,6,5.08,6,5.08-1.63,5.08-6S300,1244.28,300,1244.28Z"/><path class="cls-1" d="M149.3,1183.6s-5.08,8.29-5.08,12.54,2.28,6,5.08,6,5.08-1.63,5.08-6S149.3,1183.6,149.3,1183.6Z"/><path class="cls-1" d="M458.26,1059.45s-5.08,8.29-5.08,12.54,2.28,6,5.08,6,5.08-1.63,5.08-6S458.26,1059.45,458.26,1059.45Z"/><path class="cls-1" d="M386.24,873.1s-5.08,8.29-5.08,12.54,2.28,6,5.08,6,5.08-1.63,5.08-6S386.24,873.1,386.24,873.1Z"/><path class="cls-1" d="M189.35,1066.33s-5.08,8.29-5.08,12.54,2.28,6,5.08,6,5.08-1.63,5.08-6S189.35,1066.33,189.35,1066.33Z"/><path class="cls-1" d="M223.34,775.61s-5.08,8.29-5.08,12.54,2.28,6,5.08,6,5.08-1.63,5.08-6S223.34,775.61,223.34,775.61Z"/><path class="cls-1" d="M494.27,916.36s-5.08,8.29-5.08,12.54,2.28,6,5.08,6,5.08-1.63,5.08-6S494.27,916.36,494.27,916.36Z"/><path class="cls-1" d="M1369.35,882.38s-5.08,8.29-5.08,12.54,2.28,6,5.08,6,5.08-1.63,5.08-6S1369.35,882.38,1369.35,882.38Z"/><path class="cls-1" d="M1523,1481.54s-5.08,8.29-5.08,12.54,2.28,6,5.08,6,5.08-1.63,5.08-6S1523,1481.54,1523,1481.54Z"/><path class="cls-1" d="M1223.06,1445.93s-5.08,8.29-5.08,12.54,2.28,6,5.08,6,5.08-1.63,5.08-6S1223.06,1445.93,1223.06,1445.93Z"/><path class="cls-1" d="M1461.35,1378.68s-5.08,8.29-5.08,12.54,2.28,6,5.08,6,5.08-1.63,5.08-6S1461.35,1378.68,1461.35,1378.68Z"/><path class="cls-1" d="M1188.26,1239.8s-5.08,8.29-5.08,12.54,2.28,6,5.08,6,5.08-1.63,5.08-6S1188.26,1239.8,1188.26,1239.8Z"/><path class="cls-1" d="M952.07,1322.79s-5.08,8.29-5.08,12.54,2.28,6,5.08,6,5.08-1.63,5.08-6S952.07,1322.79,952.07,1322.79Z"/><path class="cls-1" d="M1388.16,783.12s-3.77,6.15-3.77,9.3,1.69,4.47,3.77,4.47,3.77-1.21,3.77-4.47S1388.16,783.12,1388.16,783.12Z"/><path class="cls-1" d="M52.36,894.06s-3.77,6.15-3.77,9.3,1.69,4.47,3.77,4.47,3.77-1.21,3.77-4.47S52.36,894.06,52.36,894.06Z"/><path class="cls-1" d="M1538.93,1083.46s-2,3.25-2,4.92.89,2.36,2,2.36,2-.64,2-2.36S1538.93,1083.46,1538.93,1083.46Z"/><path class="cls-1" d="M1500.6,844.34s-2,3.25-2,4.92.89,2.36,2,2.36,2-.64,2-2.36S1500.6,844.34,1500.6,844.34Z"/><path class="cls-1" d="M1338.27,980s-2,3.25-2,4.92.89,2.36,2,2.36,2-.64,2-2.36S1338.27,980,1338.27,980Z"/><path class="cls-1" d="M1426.26,1282.48s-2,3.25-2,4.92.89,2.36,2,2.36,2-.64,2-2.36S1426.26,1282.48,1426.26,1282.48Z"/><path class="cls-1" d="M890.9,1217.79s-2,3.25-2,4.92.89,2.36,2,2.36,2-.64,2-2.36S890.9,1217.79,890.9,1217.79Z"/><path class="cls-1" d="M571.46,1137.53s-2,3.25-2,4.92.89,2.36,2,2.36,2-.64,2-2.36S571.46,1137.53,571.46,1137.53Z"/><path class="cls-1" d="M496.26,1341.51s-2,3.25-2,4.92.89,2.36,2,2.36,2-.64,2-2.36S496.26,1341.51,496.26,1341.51Z"/><path class="cls-1" d="M680.26,1396.51s-2,3.25-2,4.92.89,2.36,2,2.36,2-.64,2-2.36S680.26,1396.51,680.26,1396.51Z"/><path class="cls-1" d="M352.26,1477.87s-2,3.25-2,4.92.89,2.36,2,2.36,2-.64,2-2.36S352.26,1477.87,352.26,1477.87Z"/><path class="cls-1" d="M218.26,1245.44s-2,3.25-2,4.92.89,2.36,2,2.36,2-.64,2-2.36S218.26,1245.44,218.26,1245.44Z"/><path class="cls-1" d="M290.5,1105s-2,3.25-2,4.92.89,2.36,2,2.36,2-.64,2-2.36S290.5,1105,290.5,1105Z"/><path class="cls-1" d="M927.27,976.31s-2,3.25-2,4.92.89,2.36,2,2.36,2-.64,2-2.36S927.27,976.31,927.27,976.31Z"/><path class="cls-1" d="M997.8,1462.09s-2,3.25-2,4.92.89,2.36,2,2.36,2-.64,2-2.36S997.8,1462.09,997.8,1462.09Z"/><path class="cls-1" d="M1428.25,1451.57s-2,3.25-2,4.92.89,2.36,2,2.36,2-.64,2-2.36S1428.25,1451.57,1428.25,1451.57Z"/><path class="cls-1" d="M1264.26,801.21s-2,3.25-2,4.92.89,2.36,2,2.36,2-.64,2-2.36S1264.26,801.21,1264.26,801.21Z"/><path class="cls-1" d="M1445.88,1127.41s-3.77,6.15-3.77,9.3,1.69,4.47,3.77,4.47,3.77-1.21,3.77-4.47S1445.88,1127.41,1445.88,1127.41Z"/><path class="cls-1" d="M1046.93,1249.08s-3.77,6.15-3.77,9.3,1.69,4.47,3.77,4.47,3.77-1.21,3.77-4.47S1046.93,1249.08,1046.93,1249.08Z"/><path class="cls-1" d="M1163.89,1048.09s-3.77,6.15-3.77,9.3,1.69,4.47,3.77,4.47,3.77-1.21,3.77-4.47S1163.89,1048.09,1163.89,1048.09Z"/><path class="cls-1" d="M1033.44,868.62s-3.77,6.15-3.77,9.3,1.69,4.47,3.77,4.47,3.77-1.21,3.77-4.47S1033.44,868.62,1033.44,868.62Z"/><path class="cls-1" d="M567.69,1216.37s-3.77,6.15-3.77,9.3,1.69,4.47,3.77,4.47,3.77-1.21,3.77-4.47S567.69,1216.37,567.69,1216.37Z"/><path class="cls-1" d="M778.73,1061.85s-3.77,6.15-3.77,9.3,1.69,4.47,3.77,4.47,3.77-1.21,3.77-4.47S778.73,1061.85,778.73,1061.85Z"/><path class="cls-1" d="M634.42,834.22s-3.77,6.15-3.77,9.3,1.69,4.47,3.77,4.47,3.77-1.21,3.77-4.47S634.42,834.22,634.42,834.22Z"/><path class="cls-1" d="M334.49,976.64s-3.77,6.15-3.77,9.3,1.69,4.47,3.77,4.47,3.77-1.21,3.77-4.47S334.49,976.64,334.49,976.64Z"/><path class="cls-1" d="M296.26,1374.2s-3.77,6.15-3.77,9.3,1.69,4.47,3.77,4.47,3.77-1.21,3.77-4.47S296.26,1374.2,296.26,1374.2Z"/><path class="cls-1" d="M1298.15,1367.32s-3.77,6.15-3.77,9.3,1.69,4.47,3.77,4.47,3.77-1.21,3.77-4.47S1298.15,1367.32,1298.15,1367.32Z"/><path class="cls-1" d="M70.16,1438s-3.77,6.15-3.77,9.3,1.69,4.47,3.77,4.47,3.77-1.21,3.77-4.47S70.16,1438,70.16,1438Z"/><path class="cls-1" d="M1493.06,949.12s-7.54,12.29-7.54,18.59,3.38,8.93,7.54,8.93,7.54-2.41,7.54-8.93S1493.06,949.12,1493.06,949.12Z"/><path class="cls-1" d="M1223.06,898.12s-7.54,12.29-7.54,18.59,3.38,8.93,7.54,8.93,7.54-2.41,7.54-8.93S1223.06,898.12,1223.06,898.12Z"/><path class="cls-1" d="M873.8,848s-7.54,12.29-7.54,18.59,3.38,8.93,7.54,8.93,7.54-2.41,7.54-8.93S873.8,848,873.8,848Z"/><path class="cls-1" d="M149.3,854.86s-7.54,12.29-7.54,18.59,3.38,8.93,7.54,8.93,7.54-2.41,7.54-8.93S149.3,854.86,149.3,854.86Z"/><path class="cls-1" d="M990.26,1091.27s-7.54,12.29-7.54,18.59,3.38,8.93,7.54,8.93,7.54-2.41,7.54-8.93S990.26,1091.27,990.26,1091.27Z"/><path class="cls-1" d="M778.73,1272.36s-7.54,12.29-7.54,18.59,3.38,8.93,7.54,8.93,7.54-2.41,7.54-8.93S778.73,1272.36,778.73,1272.36Z"/><path class="cls-1" d="M441.24,784.89s-7.54,12.29-7.54,18.59,3.38,8.93,7.54,8.93,7.54-2.41,7.54-8.93S441.24,784.89,441.24,784.89Z"/><path class="cls-1" d="M597.65,976.64s-7.54,12.29-7.54,18.59,3.38,8.93,7.54,8.93,7.54-2.41,7.54-8.93S597.65,976.64,597.65,976.64Z"/><path class="cls-1" d="M386.24,1179.12s-7.54,12.29-7.54,18.59,3.38,8.93,7.54,8.93,7.54-2.41,7.54-8.93S386.24,1179.12,386.24,1179.12Z"/><path class="cls-1" d="M506.23,1431.11s-7.54,12.29-7.54,18.59,3.38,8.93,7.54,8.93,7.54-2.41,7.54-8.93S506.23,1431.11,506.23,1431.11Z"/><path class="cls-1" d="M171.75,1360.44s-7.54,12.29-7.54,18.59,3.38,8.93,7.54,8.93,7.54-2.41,7.54-8.93S171.75,1360.44,171.75,1360.44Z"/><path class="cls-1" d="M909.11,1432.17s-7.54,12.29-7.54,18.59,3.38,8.93,7.54,8.93,7.54-2.41,7.54-8.93S909.11,1432.17,909.11,1432.17Z"/><path class="cls-1" d="M236,911.88s-7.54,12.29-7.54,18.59,3.38,8.93,7.54,8.93,7.54-2.41,7.54-8.93S236,911.88,236,911.88Z"/><path class="cls-1" d="M1123.8,1374.2s-7.54,12.29-7.54,18.59,3.38,8.93,7.54,8.93,7.54-2.41,7.54-8.93S1123.8,1374.2,1123.8,1374.2Z"/><path class="cls-1" d="M1321.06,1179.12s-7.54,12.29-7.54,18.59,3.38,8.93,7.54,8.93,7.54-2.41,7.54-8.93S1321.06,1179.12,1321.06,1179.12Z"/><path class="cls-1" d="M1555.26,1324.95s-7.54,12.29-7.54,18.59,3.38,8.93,7.54,8.93,7.54-2.41,7.54-8.93S1555.26,1324.95,1555.26,1324.95Z"/><path class="cls-1" d="M36,1276s-7.54,12.29-7.54,18.59,3.38,8.93,7.54,8.93,7.54-2.41,7.54-8.93S36,1276,36,1276Z"/></g></g></svg>