<svg id="圖層_1" data-name="圖層 1" xmlns="http://www.w3.org/2000/svg" viewBox="0 0 1496.24 745.85"><defs><style>.cls-1{fill:#83d6ff;}</style></defs><title>rainDropsss</title><path class="cls-1" d="M61.33,121.26c0,6.52,3.38,8.93,7.54,8.93s7.54-2.63,7.54-8.93-7.54-18.59-7.54-18.59S61.33,114.74,61.33,121.26Z" transform="translate(-54.82 -36.46)"/><path class="cls-1" d="M129.83,183.59c0,4.39,2.28,6,5.08,6s5.08-1.78,5.08-6-5.08-12.54-5.08-12.54S129.83,179.2,129.83,183.59Z" transform="translate(-54.82 -36.46)"/><path class="cls-1" d="M63.79,455.31c0,4.39,2.28,6,5.08,6s5.08-1.78,5.08-6-5.08-12.54-5.08-12.54S63.79,450.92,63.79,455.31Z" transform="translate(-54.82 -36.46)"/><path class="cls-1" d="M336.57,368.92c0,4.39,2.28,6,5.08,6s5.08-1.78,5.08-6-5.08-12.54-5.08-12.54S336.57,364.53,336.57,368.92Z" transform="translate(-54.82 -36.46)"/><path class="cls-1" d="M483.9,421c0,4.39,2.28,6,5.08,6s5.08-1.78,5.08-6S489,408.46,489,408.46,483.9,416.6,483.9,421Z" transform="translate(-54.82 -36.46)"/><path class="cls-1" d="M608,776.29c0,4.39,2.28,6,5.08,6s5.08-1.78,5.08-6-5.08-12.54-5.08-12.54S608,771.89,608,776.29Z" transform="translate(-54.82 -36.46)"/><path class="cls-1" d="M187.59,506.9c0,4.39,2.28,6,5.08,6s5.08-1.78,5.08-6-5.08-12.54-5.08-12.54S187.59,502.5,187.59,506.9Z" transform="translate(-54.82 -36.46)"/><path class="cls-1" d="M852.42,289.63c0,4.39,2.28,6,5.08,6s5.08-1.78,5.08-6-5.08-12.54-5.08-12.54S852.42,285.24,852.42,289.63Z" transform="translate(-54.82 -36.46)"/><path class="cls-1" d="M573.92,99.59c0,4.39,2.28,6,5.08,6s5.08-1.78,5.08-6S579,87.06,579,87.06,573.92,95.2,573.92,99.59Z" transform="translate(-54.82 -36.46)"/><path class="cls-1" d="M760.92,49c0,4.39,2.28,6,5.08,6s5.08-1.78,5.08-6S766,36.46,766,36.46,760.92,44.61,760.92,49Z" transform="translate(-54.82 -36.46)"/><path class="cls-1" d="M924.07,108.87c0,4.39,2.28,6,5.08,6s5.08-1.78,5.08-6-5.08-12.54-5.08-12.54S924.07,104.48,924.07,108.87Z" transform="translate(-54.82 -36.46)"/><path class="cls-1" d="M656.74,269.06c0,4.39,2.28,6,5.08,6s5.08-1.78,5.08-6-5.08-12.54-5.08-12.54S656.74,264.67,656.74,269.06Z" transform="translate(-54.82 -36.46)"/><path class="cls-1" d="M962,243.87c0,4.39,2.28,6,5.08,6s5.08-1.78,5.08-6-5.08-12.54-5.08-12.54S962,239.48,962,243.87Z" transform="translate(-54.82 -36.46)"/><path class="cls-1" d="M1007.92,455.31c0,4.39,2.28,6,5.08,6s5.08-1.78,5.08-6-5.08-12.54-5.08-12.54S1007.92,450.92,1007.92,455.31Z" transform="translate(-54.82 -36.46)"/><path class="cls-1" d="M842.25,430.28c0,4.39,2.28,6,5.08,6s5.08-1.78,5.08-6-5.08-12.54-5.08-12.54S842.25,425.88,842.25,430.28Z" transform="translate(-54.82 -36.46)"/><path class="cls-1" d="M894.25,740.68c0,4.39,2.28,6,5.08,6s5.08-1.78,5.08-6-5.08-12.54-5.08-12.54S894.25,736.28,894.25,740.68Z" transform="translate(-54.82 -36.46)"/><path class="cls-1" d="M1067.25,617.54c0,4.39,2.28,6,5.08,6s5.08-1.78,5.08-6-5.08-12.54-5.08-12.54S1067.25,613.15,1067.25,617.54Z" transform="translate(-54.82 -36.46)"/><path class="cls-1" d="M1237,548.31c0,4.39,2.28,6,5.08,6s5.08-1.78,5.08-6-5.08-12.54-5.08-12.54S1237,543.91,1237,548.31Z" transform="translate(-54.82 -36.46)"/><path class="cls-1" d="M1303.94,694.9c0,4.39,2.28,6,5.08,6s5.08-1.78,5.08-6-5.08-12.54-5.08-12.54S1303.94,690.5,1303.94,694.9Z" transform="translate(-54.82 -36.46)"/><path class="cls-1" d="M1469.93,767c0,4.39,2.28,6,5.08,6s5.08-1.78,5.08-6-5.08-12.54-5.08-12.54S1469.93,762.59,1469.93,767Z" transform="translate(-54.82 -36.46)"/><path class="cls-1" d="M1390.15,539c0,4.39,2.28,6,5.08,6s5.08-1.78,5.08-6-5.08-12.54-5.08-12.54S1390.15,534.63,1390.15,539Z" transform="translate(-54.82 -36.46)"/><path class="cls-1" d="M1540.88,478.35c0,4.39,2.28,6,5.08,6s5.08-1.78,5.08-6-5.08-12.54-5.08-12.54S1540.88,474,1540.88,478.35Z" transform="translate(-54.82 -36.46)"/><path class="cls-1" d="M1231.92,354.2c0,4.39,2.28,6,5.08,6s5.08-1.78,5.08-6-5.08-12.54-5.08-12.54S1231.92,349.8,1231.92,354.2Z" transform="translate(-54.82 -36.46)"/><path class="cls-1" d="M1303.94,167.85c0,4.39,2.28,6,5.08,6s5.08-1.78,5.08-6-5.08-12.54-5.08-12.54S1303.94,163.45,1303.94,167.85Z" transform="translate(-54.82 -36.46)"/><path class="cls-1" d="M1500.83,361.08c0,4.39,2.28,6,5.08,6s5.08-1.78,5.08-6-5.08-12.54-5.08-12.54S1500.83,356.68,1500.83,361.08Z" transform="translate(-54.82 -36.46)"/><path class="cls-1" d="M1466.84,70.35c0,4.39,2.28,6,5.08,6s5.08-1.78,5.08-6-5.08-12.54-5.08-12.54S1466.84,66,1466.84,70.35Z" transform="translate(-54.82 -36.46)"/><path class="cls-1" d="M1195.91,211.11c0,4.39,2.28,6,5.08,6s5.08-1.78,5.08-6-5.08-12.54-5.08-12.54S1195.91,206.72,1195.91,211.11Z" transform="translate(-54.82 -36.46)"/><path class="cls-1" d="M320.83,177.13c0,4.39,2.28,6,5.08,6s5.08-1.78,5.08-6-5.08-12.54-5.08-12.54S320.83,172.73,320.83,177.13Z" transform="translate(-54.82 -36.46)"/><path class="cls-1" d="M167.21,776.29c0,4.39,2.28,6,5.08,6s5.08-1.78,5.08-6-5.08-12.54-5.08-12.54S167.21,771.89,167.21,776.29Z" transform="translate(-54.82 -36.46)"/><path class="cls-1" d="M467.12,740.68c0,4.39,2.28,6,5.08,6s5.08-1.78,5.08-6-5.08-12.54-5.08-12.54S467.12,736.28,467.12,740.68Z" transform="translate(-54.82 -36.46)"/><path class="cls-1" d="M228.83,673.43c0,4.39,2.28,6,5.08,6s5.08-1.78,5.08-6-5.08-12.54-5.08-12.54S228.83,669,228.83,673.43Z" transform="translate(-54.82 -36.46)"/><path class="cls-1" d="M501.92,534.55c0,4.39,2.28,6,5.08,6s5.08-1.78,5.08-6S507,522,507,522,501.92,530.15,501.92,534.55Z" transform="translate(-54.82 -36.46)"/><path class="cls-1" d="M738.11,617.54c0,4.39,2.28,6,5.08,6s5.08-1.78,5.08-6S743.19,605,743.19,605,738.11,613.15,738.11,617.54Z" transform="translate(-54.82 -36.46)"/><path class="cls-1" d="M303.33,74.63c0,3.26,1.69,4.47,3.77,4.47s3.77-1.32,3.77-4.47-3.77-9.3-3.77-9.3S303.33,71.37,303.33,74.63Z" transform="translate(-54.82 -36.46)"/><path class="cls-1" d="M109.9,275.1c0,3.26,1.69,4.47,3.77,4.47s3.77-1.32,3.77-4.47-3.77-9.3-3.77-9.3S109.9,271.84,109.9,275.1Z" transform="translate(-54.82 -36.46)"/><path class="cls-1" d="M154.34,370.58c0,1.72.89,2.36,2,2.36s2-.7,2-2.36-2-4.92-2-4.92S154.34,368.86,154.34,370.58Z" transform="translate(-54.82 -36.46)"/><path class="cls-1" d="M192.67,131.46c0,1.72.89,2.36,2,2.36s2-.7,2-2.36-2-4.92-2-4.92S192.67,129.74,192.67,131.46Z" transform="translate(-54.82 -36.46)"/><path class="cls-1" d="M355,267.08c0,1.72.89,2.36,2,2.36s2-.7,2-2.36-2-4.92-2-4.92S355,265.36,355,267.08Z" transform="translate(-54.82 -36.46)"/><path class="cls-1" d="M267,569.61c0,1.72.89,2.36,2,2.36s2-.7,2-2.36-2-4.92-2-4.92S267,567.89,267,569.61Z" transform="translate(-54.82 -36.46)"/><path class="cls-1" d="M802.37,504.92c0,1.72.89,2.36,2,2.36s2-.7,2-2.36-2-4.92-2-4.92S802.37,503.19,802.37,504.92Z" transform="translate(-54.82 -36.46)"/><path class="cls-1" d="M1121.81,424.66c0,1.72.89,2.36,2,2.36s2-.7,2-2.36-2-4.92-2-4.92S1121.81,422.93,1121.81,424.66Z" transform="translate(-54.82 -36.46)"/><path class="cls-1" d="M1197,628.64c0,1.72.89,2.36,2,2.36s2-.7,2-2.36-2-4.92-2-4.92S1197,626.92,1197,628.64Z" transform="translate(-54.82 -36.46)"/><path class="cls-1" d="M1013,683.64c0,1.72.89,2.36,2,2.36s2-.7,2-2.36-2-4.92-2-4.92S1013,681.92,1013,683.64Z" transform="translate(-54.82 -36.46)"/><path class="cls-1" d="M1341,765c0,1.72.89,2.36,2,2.36s2-.7,2-2.36-2-4.92-2-4.92S1341,763.28,1341,765Z" transform="translate(-54.82 -36.46)"/><path class="cls-1" d="M1475,532.57c0,1.72.89,2.36,2,2.36s2-.7,2-2.36-2-4.92-2-4.92S1475,530.84,1475,532.57Z" transform="translate(-54.82 -36.46)"/><path class="cls-1" d="M1402.77,392.16c0,1.72.89,2.36,2,2.36s2-.7,2-2.36-2-4.92-2-4.92S1402.77,390.43,1402.77,392.16Z" transform="translate(-54.82 -36.46)"/><path class="cls-1" d="M766,263.44c0,1.72.89,2.36,2,2.36s2-.7,2-2.36-2-4.92-2-4.92S766,261.72,766,263.44Z" transform="translate(-54.82 -36.46)"/><path class="cls-1" d="M695.47,749.21c0,1.72.89,2.36,2,2.36s2-.7,2-2.36-2-4.92-2-4.92S695.47,747.49,695.47,749.21Z" transform="translate(-54.82 -36.46)"/><path class="cls-1" d="M265,738.7c0,1.72.89,2.36,2,2.36s2-.7,2-2.36-2-4.92-2-4.92S265,737,265,738.7Z" transform="translate(-54.82 -36.46)"/><path class="cls-1" d="M429,88.33c0,1.72.89,2.36,2,2.36s2-.7,2-2.36-2-4.92-2-4.92S429,86.61,429,88.33Z" transform="translate(-54.82 -36.46)"/><path class="cls-1" d="M245.62,418.91c0,3.26,1.69,4.47,3.77,4.47s3.77-1.32,3.77-4.47-3.77-9.3-3.77-9.3S245.62,415.66,245.62,418.91Z" transform="translate(-54.82 -36.46)"/><path class="cls-1" d="M644.56,540.58c0,3.26,1.69,4.47,3.77,4.47s3.77-1.32,3.77-4.47-3.77-9.3-3.77-9.3S644.56,537.33,644.56,540.58Z" transform="translate(-54.82 -36.46)"/><path class="cls-1" d="M527.6,339.59c0,3.26,1.69,4.47,3.77,4.47s3.77-1.32,3.77-4.47-3.77-9.3-3.77-9.3S527.6,336.34,527.6,339.59Z" transform="translate(-54.82 -36.46)"/><path class="cls-1" d="M658.06,160.12c0,3.26,1.69,4.47,3.77,4.47s3.77-1.32,3.77-4.47-3.77-9.3-3.77-9.3S658.06,156.86,658.06,160.12Z" transform="translate(-54.82 -36.46)"/><path class="cls-1" d="M1123.8,507.88c0,3.26,1.69,4.47,3.77,4.47s3.77-1.32,3.77-4.47-3.77-9.3-3.77-9.3S1123.8,504.62,1123.8,507.88Z" transform="translate(-54.82 -36.46)"/><path class="cls-1" d="M912.77,353.35c0,3.26,1.69,4.47,3.77,4.47s3.77-1.32,3.77-4.47-3.77-9.3-3.77-9.3S912.77,350.1,912.77,353.35Z" transform="translate(-54.82 -36.46)"/><path class="cls-1" d="M1057.08,125.72c0,3.26,1.69,4.47,3.77,4.47s3.77-1.32,3.77-4.47-3.77-9.3-3.77-9.3S1057.08,122.46,1057.08,125.72Z" transform="translate(-54.82 -36.46)"/><path class="cls-1" d="M1357,268.15c0,3.26,1.69,4.47,3.77,4.47s3.77-1.32,3.77-4.47-3.77-9.3-3.77-9.3S1357,264.89,1357,268.15Z" transform="translate(-54.82 -36.46)"/><path class="cls-1" d="M1395.23,665.7c0,3.26,1.69,4.47,3.77,4.47s3.77-1.32,3.77-4.47-3.77-9.3-3.77-9.3S1395.23,662.45,1395.23,665.7Z" transform="translate(-54.82 -36.46)"/><path class="cls-1" d="M393.34,658.82c0,3.26,1.69,4.47,3.77,4.47s3.77-1.32,3.77-4.47-3.77-9.3-3.77-9.3S393.34,655.57,393.34,658.82Z" transform="translate(-54.82 -36.46)"/><path class="cls-1" d="M54.82,750.35c0,3.26,1.69,4.47,3.77,4.47s3.77-1.32,3.77-4.47-3.77-9.3-3.77-9.3S54.82,747.09,54.82,750.35Z" transform="translate(-54.82 -36.46)"/><path class="cls-1" d="M194.67,249.92c0,6.52,3.38,8.93,7.54,8.93s7.54-2.63,7.54-8.93-7.54-18.59-7.54-18.59S194.67,243.41,194.67,249.92Z" transform="translate(-54.82 -36.46)"/><path class="cls-1" d="M464.67,198.92c0,6.52,3.38,8.93,7.54,8.93s7.54-2.63,7.54-8.93-7.54-18.59-7.54-18.59S464.67,192.41,464.67,198.92Z" transform="translate(-54.82 -36.46)"/><path class="cls-1" d="M813.93,148.78c0,6.52,3.38,8.93,7.54,8.93s7.54-2.63,7.54-8.93-7.54-18.59-7.54-18.59S813.93,142.26,813.93,148.78Z" transform="translate(-54.82 -36.46)"/><path class="cls-1" d="M697.46,392.07c0,6.52,3.38,8.93,7.54,8.93s7.54-2.63,7.54-8.93S705,373.48,705,373.48,697.46,385.55,697.46,392.07Z" transform="translate(-54.82 -36.46)"/><path class="cls-1" d="M909,573.16c0,6.52,3.38,8.93,7.54,8.93s7.54-2.63,7.54-8.93-7.54-18.59-7.54-18.59S909,566.65,909,573.16Z" transform="translate(-54.82 -36.46)"/><path class="cls-1" d="M1246.48,85.69c0,6.52,3.38,8.93,7.54,8.93s7.54-2.63,7.54-8.93S1254,67.1,1254,67.1,1246.48,79.17,1246.48,85.69Z" transform="translate(-54.82 -36.46)"/><path class="cls-1" d="M1090.08,277.44c0,6.52,3.38,8.93,7.54,8.93s7.54-2.63,7.54-8.93-7.54-18.59-7.54-18.59S1090.08,270.93,1090.08,277.44Z" transform="translate(-54.82 -36.46)"/><path class="cls-1" d="M1301.49,479.92c0,6.52,3.38,8.93,7.54,8.93s7.54-2.63,7.54-8.93-7.54-18.59-7.54-18.59S1301.49,473.41,1301.49,479.92Z" transform="translate(-54.82 -36.46)"/><path class="cls-1" d="M1181.5,731.91c0,6.52,3.38,8.93,7.54,8.93s7.54-2.63,7.54-8.93-7.54-18.59-7.54-18.59S1181.5,725.4,1181.5,731.91Z" transform="translate(-54.82 -36.46)"/><path class="cls-1" d="M1516,661.24c0,6.52,3.38,8.93,7.54,8.93s7.54-2.63,7.54-8.93-7.54-18.59-7.54-18.59S1516,654.72,1516,661.24Z" transform="translate(-54.82 -36.46)"/><path class="cls-1" d="M778.62,733c0,6.52,3.38,8.93,7.54,8.93s7.54-2.63,7.54-8.93-7.54-18.59-7.54-18.59S778.62,726.45,778.62,733Z" transform="translate(-54.82 -36.46)"/><path class="cls-1" d="M1451.77,212.68c0,6.52,3.38,8.93,7.54,8.93s7.54-2.63,7.54-8.93-7.54-18.59-7.54-18.59S1451.77,206.17,1451.77,212.68Z" transform="translate(-54.82 -36.46)"/><path class="cls-1" d="M563.93,675c0,6.52,3.38,8.93,7.54,8.93S579,681.3,579,675s-7.54-18.59-7.54-18.59S563.93,668.48,563.93,675Z" transform="translate(-54.82 -36.46)"/><path class="cls-1" d="M366.67,479.92c0,6.52,3.38,8.93,7.54,8.93s7.54-2.63,7.54-8.93-7.54-18.59-7.54-18.59S366.67,473.41,366.67,479.92Z" transform="translate(-54.82 -36.46)"/><path class="cls-1" d="M113.67,586.92c0,6.52,3.38,8.93,7.54,8.93s7.54-2.63,7.54-8.93-7.54-18.59-7.54-18.59S113.67,580.41,113.67,586.92Z" transform="translate(-54.82 -36.46)"/></svg>