<?xml version="1.0" encoding="utf-8"?>
<!-- Generator: Adobe Illustrator 21.0.0, SVG Export Plug-In . SVG Version: 6.00 Build 0)  -->
<svg version="1.1" id="圖層_1" xmlns="http://www.w3.org/2000/svg" xmlns:xlink="http://www.w3.org/1999/xlink" x="0px" y="0px"
	 viewBox="0 0 800 800" style="enable-background:new 0 0 800 800;" xml:space="preserve">
<style type="text/css">
	.st0{fill:#83D6FF;}
</style>
<g id="圖層_2">

		<path class="st0" d="M193,336.2c0,7.4,3.7,10.2,8.2,10.2s8.2-3,8.2-10.2c0-7.2-8.2-21.2-8.2-21.2S193,328.8,193,336.2z"/>

		<path class="st0" d="M710,140.2c0,7.4,3.7,10.2,8.2,10.2s8.2-3,8.2-10.2s-8.2-21.2-8.2-21.2S710,132.8,710,140.2z"/>

		<path class="st0" d="M550,390.2c0,7.4,3.7,10.2,8.2,10.2s8.2-3,8.2-10.2c0-7.2-8.2-21.2-8.2-21.2S550,382.8,550,390.2z"/>

		<path class="st0" d="M67,233.2c0,7.4,3.7,10.2,8.2,10.2c4.5,0,8.2-3,8.2-10.2S75.2,212,75.2,212S67,225.8,67,233.2z"/>

		<path class="st0" d="M550,192.2c0,7.4,3.7,10.2,8.2,10.2s8.2-3,8.2-10.2s-8.2-21.2-8.2-21.2S550,184.8,550,192.2z"/>

		<path class="st0" d="M526,584.2c0,7.4,3.7,10.2,8.2,10.2s8.2-3,8.2-10.2c0-7.2-8.2-21.2-8.2-21.2S526,576.8,526,584.2z"/>

		<path class="st0" d="M415,131.2c0,7.4,3.7,10.2,8.2,10.2c4.5,0,8.2-3,8.2-10.2s-8.2-21.2-8.2-21.2S415,123.8,415,131.2z"/>

		<path class="st0" d="M400,415.2c0,7.4,3.7,10.2,8.2,10.2c4.5,0,8.2-3,8.2-10.2c0-7.2-8.2-21.2-8.2-21.2S400,407.8,400,415.2z"/>

		<path class="st0" d="M285,498.2c0,7.4,3.7,10.2,8.2,10.2c4.5,0,8.2-3,8.2-10.2c0-7.2-8.2-21.2-8.2-21.2S285,490.8,285,498.2z"/>

		<path class="st0" d="M154,535.2c0,7.4,3.7,10.2,8.2,10.2s8.2-3,8.2-10.2c0-7.2-8.2-21.2-8.2-21.2S154,527.8,154,535.2z"/>

		<path class="st0" d="M259,700.2c0,7.4,3.7,10.2,8.2,10.2c4.5,0,8.2-3,8.2-10.2c0-7.2-8.2-21.2-8.2-21.2S259,692.8,259,700.2z"/>

		<path class="st0" d="M446,710.2c0,7.4,3.7,10.2,8.2,10.2c4.5,0,8.2-3,8.2-10.2c0-7.2-8.2-21.2-8.2-21.2S446,702.8,446,710.2z"/>

		<path class="st0" d="M635,545.2c0,7.4,3.7,10.2,8.2,10.2s8.2-3,8.2-10.2c0-7.2-8.2-21.2-8.2-21.2S635,537.8,635,545.2z"/>

		<path class="st0" d="M655,674.2c0,7.4,3.7,10.2,8.2,10.2s8.2-3,8.2-10.2c0-7.2-8.2-21.2-8.2-21.2S655,666.8,655,674.2z"/>

		<path class="st0" d="M51,431.2c0,7.4,3.7,10.2,8.2,10.2s8.2-3,8.2-10.2c0-7.2-8.2-21.2-8.2-21.2S51,423.8,51,431.2z"/>

		<path class="st0" d="M228,115.2c0,7.4,3.7,10.2,8.2,10.2s8.2-3,8.2-10.2S236.2,94,236.2,94S228,107.8,228,115.2z"/>

		<path class="st0" d="M710,390.2c0,7.4,3.7,10.2,8.2,10.2s8.2-3,8.2-10.2c0-7.2-8.2-21.2-8.2-21.2S710,382.8,710,390.2z"/>

		<path class="st0" d="M392,572.2c0,7.4,3.7,10.2,8.2,10.2c4.5,0,8.2-3,8.2-10.2c0-7.2-8.2-21.2-8.2-21.2S392,564.8,392,572.2z"/>

		<path class="st0" d="M119,658.2c0,7.4,3.7,10.2,8.2,10.2s8.2-3,8.2-10.2c0-7.2-8.2-21.2-8.2-21.2S119,650.8,119,658.2z"/>

		<path class="st0" d="M315,297.2c0,7.4,3.7,10.2,8.2,10.2c4.5,0,8.2-3,8.2-10.2c0-7.2-8.2-21.2-8.2-21.2S315,289.8,315,297.2z"/>

		<path class="st0" d="M643,303.2c0,7.4,3.7,10.2,8.2,10.2s8.2-3,8.2-10.2c0-7.2-8.2-21.2-8.2-21.2S643,295.8,643,303.2z"/>

		<path class="st0" d="M469,287.2c0,7.4,3.7,10.2,8.2,10.2c4.5,0,8.2-3,8.2-10.2c0-7.2-8.2-21.2-8.2-21.2S469,279.8,469,287.2z"/>

		<path class="st0" d="M604,73.2c0,7.4,3.7,10.2,8.2,10.2s8.2-3,8.2-10.2S612.2,52,612.2,52S604,65.8,604,73.2z"/>

		<path class="st0" d="M177,202.2c0,7.4,3.7,10.2,8.2,10.2s8.2-3,8.2-10.2s-8.2-21.2-8.2-21.2S177,194.8,177,202.2z"/>

		<path class="st0" d="M83,61.2c0,7.4,3.7,10.2,8.2,10.2c4.5,0,8.2-3,8.2-10.2S91.2,40,91.2,40S83,53.8,83,61.2z"/>


</svg>
