<svg id="圖層_1" data-name="圖層 1" xmlns="http://www.w3.org/2000/svg" viewBox="0 0 1498.69 745.85"><defs><style>.cls-1{fill:#83d6ff;}</style></defs><title>rainDropsss2</title><path class="cls-1" d="M1537,102.67s-7.54,12.29-7.54,18.59,3.38,8.93,7.54,8.93,7.54-2.41,7.54-8.93S1537,102.67,1537,102.67Z" transform="translate(-52.36 -36.46)"/><path class="cls-1" d="M1471,171.05s-5.08,8.29-5.08,12.54,2.28,6,5.08,6,5.08-1.63,5.08-6S1471,171.05,1471,171.05Z" transform="translate(-52.36 -36.46)"/><path class="cls-1" d="M1537,442.77s-5.08,8.29-5.08,12.54,2.28,6,5.08,6,5.08-1.63,5.08-6S1537,442.77,1537,442.77Z" transform="translate(-52.36 -36.46)"/><path class="cls-1" d="M1264.22,356.39s-5.08,8.29-5.08,12.54,2.28,6,5.08,6,5.08-1.63,5.08-6S1264.22,356.39,1264.22,356.39Z" transform="translate(-52.36 -36.46)"/><path class="cls-1" d="M1116.88,408.46s-5.08,8.29-5.08,12.54,2.28,6,5.08,6,5.08-1.63,5.08-6S1116.88,408.46,1116.88,408.46Z" transform="translate(-52.36 -36.46)"/><path class="cls-1" d="M992.78,763.75s-5.08,8.29-5.08,12.54,2.28,6,5.08,6,5.08-1.63,5.08-6S992.78,763.75,992.78,763.75Z" transform="translate(-52.36 -36.46)"/><path class="cls-1" d="M1413.19,494.36s-5.08,8.29-5.08,12.54,2.28,6,5.08,6,5.08-1.63,5.08-6S1413.19,494.36,1413.19,494.36Z" transform="translate(-52.36 -36.46)"/><path class="cls-1" d="M748.37,277.09s-5.08,8.29-5.08,12.54,2.28,6,5.08,6,5.08-1.63,5.08-6S748.37,277.09,748.37,277.09Z" transform="translate(-52.36 -36.46)"/><path class="cls-1" d="M1026.87,87.06s-5.08,8.29-5.08,12.54,2.28,6,5.08,6,5.08-1.63,5.08-6S1026.87,87.06,1026.87,87.06Z" transform="translate(-52.36 -36.46)"/><path class="cls-1" d="M839.87,36.46s-5.08,8.29-5.08,12.54,2.28,6,5.08,6S845,53.39,845,49,839.87,36.46,839.87,36.46Z" transform="translate(-52.36 -36.46)"/><path class="cls-1" d="M676.71,96.34s-5.08,8.29-5.08,12.54,2.28,6,5.08,6,5.08-1.63,5.08-6S676.71,96.34,676.71,96.34Z" transform="translate(-52.36 -36.46)"/><path class="cls-1" d="M944,256.52S939,264.81,939,269.06s2.28,6,5.08,6,5.08-1.63,5.08-6S944,256.52,944,256.52Z" transform="translate(-52.36 -36.46)"/><path class="cls-1" d="M638.78,231.33s-5.08,8.29-5.08,12.54,2.28,6,5.08,6,5.08-1.63,5.08-6S638.78,231.33,638.78,231.33Z" transform="translate(-52.36 -36.46)"/><path class="cls-1" d="M592.86,442.77s-5.08,8.29-5.08,12.54,2.28,6,5.08,6,5.08-1.63,5.08-6S592.86,442.77,592.86,442.77Z" transform="translate(-52.36 -36.46)"/><path class="cls-1" d="M758.54,417.74s-5.08,8.29-5.08,12.54,2.28,6,5.08,6,5.08-1.63,5.08-6S758.54,417.74,758.54,417.74Z" transform="translate(-52.36 -36.46)"/><path class="cls-1" d="M706.54,728.14s-5.08,8.29-5.08,12.54,2.28,6,5.08,6,5.08-1.63,5.08-6S706.54,728.14,706.54,728.14Z" transform="translate(-52.36 -36.46)"/><path class="cls-1" d="M533.54,605s-5.08,8.29-5.08,12.54,2.28,6,5.08,6,5.08-1.63,5.08-6S533.54,605,533.54,605Z" transform="translate(-52.36 -36.46)"/><path class="cls-1" d="M363.78,535.77s-5.08,8.29-5.08,12.54,2.28,6,5.08,6,5.08-1.63,5.08-6S363.78,535.77,363.78,535.77Z" transform="translate(-52.36 -36.46)"/><path class="cls-1" d="M296.84,682.36s-5.08,8.29-5.08,12.54,2.28,6,5.08,6,5.08-1.63,5.08-6S296.84,682.36,296.84,682.36Z" transform="translate(-52.36 -36.46)"/><path class="cls-1" d="M130.85,754.44s-5.08,8.29-5.08,12.54,2.28,6,5.08,6,5.08-1.63,5.08-6S130.85,754.44,130.85,754.44Z" transform="translate(-52.36 -36.46)"/><path class="cls-1" d="M210.64,526.49s-5.08,8.29-5.08,12.54,2.28,6,5.08,6,5.08-1.63,5.08-6S210.64,526.49,210.64,526.49Z" transform="translate(-52.36 -36.46)"/><path class="cls-1" d="M59.9,465.81s-5.08,8.29-5.08,12.54,2.28,6,5.08,6,5.08-1.63,5.08-6S59.9,465.81,59.9,465.81Z" transform="translate(-52.36 -36.46)"/><path class="cls-1" d="M368.87,341.66s-5.08,8.29-5.08,12.54,2.28,6,5.08,6,5.08-1.63,5.08-6S368.87,341.66,368.87,341.66Z" transform="translate(-52.36 -36.46)"/><path class="cls-1" d="M296.84,155.31s-5.08,8.29-5.08,12.54,2.28,6,5.08,6,5.08-1.63,5.08-6S296.84,155.31,296.84,155.31Z" transform="translate(-52.36 -36.46)"/><path class="cls-1" d="M100,348.54s-5.08,8.29-5.08,12.54,2.28,6,5.08,6,5.08-1.63,5.08-6S100,348.54,100,348.54Z" transform="translate(-52.36 -36.46)"/><path class="cls-1" d="M133.94,57.82s-5.08,8.29-5.08,12.54,2.28,6,5.08,6,5.08-1.63,5.08-6S133.94,57.82,133.94,57.82Z" transform="translate(-52.36 -36.46)"/><path class="cls-1" d="M404.87,198.57s-5.08,8.29-5.08,12.54,2.28,6,5.08,6,5.08-1.63,5.08-6S404.87,198.57,404.87,198.57Z" transform="translate(-52.36 -36.46)"/><path class="cls-1" d="M1280,164.59s-5.08,8.29-5.08,12.54,2.28,6,5.08,6,5.08-1.63,5.08-6S1280,164.59,1280,164.59Z" transform="translate(-52.36 -36.46)"/><path class="cls-1" d="M1433.57,763.75s-5.08,8.29-5.08,12.54,2.28,6,5.08,6,5.08-1.63,5.08-6S1433.57,763.75,1433.57,763.75Z" transform="translate(-52.36 -36.46)"/><path class="cls-1" d="M1133.66,728.14s-5.08,8.29-5.08,12.54,2.28,6,5.08,6,5.08-1.63,5.08-6S1133.66,728.14,1133.66,728.14Z" transform="translate(-52.36 -36.46)"/><path class="cls-1" d="M1372,660.89s-5.08,8.29-5.08,12.54,2.28,6,5.08,6,5.08-1.63,5.08-6S1372,660.89,1372,660.89Z" transform="translate(-52.36 -36.46)"/><path class="cls-1" d="M1098.87,522s-5.08,8.29-5.08,12.54,2.28,6,5.08,6,5.08-1.63,5.08-6S1098.87,522,1098.87,522Z" transform="translate(-52.36 -36.46)"/><path class="cls-1" d="M862.68,605s-5.08,8.29-5.08,12.54,2.28,6,5.08,6,5.08-1.63,5.08-6S862.68,605,862.68,605Z" transform="translate(-52.36 -36.46)"/><path class="cls-1" d="M1298.77,65.33s-3.77,6.15-3.77,9.3,1.69,4.47,3.77,4.47,3.77-1.21,3.77-4.47S1298.77,65.33,1298.77,65.33Z" transform="translate(-52.36 -36.46)"/><path class="cls-1" d="M1492.2,265.8s-3.77,6.15-3.77,9.3,1.69,4.47,3.77,4.47,3.77-1.21,3.77-4.47S1492.2,265.8,1492.2,265.8Z" transform="translate(-52.36 -36.46)"/><path class="cls-1" d="M1449.53,365.67s-2,3.25-2,4.92.89,2.36,2,2.36,2-.64,2-2.36S1449.53,365.67,1449.53,365.67Z" transform="translate(-52.36 -36.46)"/><path class="cls-1" d="M1411.2,126.55s-2,3.25-2,4.92.89,2.36,2,2.36,2-.64,2-2.36S1411.2,126.55,1411.2,126.55Z" transform="translate(-52.36 -36.46)"/><path class="cls-1" d="M1248.87,262.16s-2,3.25-2,4.92.89,2.36,2,2.36,2-.64,2-2.36S1248.87,262.16,1248.87,262.16Z" transform="translate(-52.36 -36.46)"/><path class="cls-1" d="M1336.86,564.69s-2,3.25-2,4.92.89,2.36,2,2.36,2-.64,2-2.36S1336.86,564.69,1336.86,564.69Z" transform="translate(-52.36 -36.46)"/><path class="cls-1" d="M801.51,500s-2,3.25-2,4.92.89,2.36,2,2.36,2-.64,2-2.36S801.51,500,801.51,500Z" transform="translate(-52.36 -36.46)"/><path class="cls-1" d="M482.06,419.74s-2,3.25-2,4.92.89,2.36,2,2.36,2-.64,2-2.36S482.06,419.74,482.06,419.74Z" transform="translate(-52.36 -36.46)"/><path class="cls-1" d="M406.87,623.72s-2,3.25-2,4.92.89,2.36,2,2.36,2-.64,2-2.36S406.87,623.72,406.87,623.72Z" transform="translate(-52.36 -36.46)"/><path class="cls-1" d="M590.87,678.72s-2,3.25-2,4.92.89,2.36,2,2.36,2-.64,2-2.36S590.87,678.72,590.87,678.72Z" transform="translate(-52.36 -36.46)"/><path class="cls-1" d="M262.86,760.08s-2,3.25-2,4.92.89,2.36,2,2.36,2-.64,2-2.36S262.86,760.08,262.86,760.08Z" transform="translate(-52.36 -36.46)"/><path class="cls-1" d="M128.86,527.65s-2,3.25-2,4.92.89,2.36,2,2.36,2-.64,2-2.36S128.86,527.65,128.86,527.65Z" transform="translate(-52.36 -36.46)"/><path class="cls-1" d="M201.11,387.24s-2,3.25-2,4.92.89,2.36,2,2.36,2-.64,2-2.36S201.11,387.24,201.11,387.24Z" transform="translate(-52.36 -36.46)"/><path class="cls-1" d="M837.87,258.52s-2,3.25-2,4.92.89,2.36,2,2.36,2-.64,2-2.36S837.87,258.52,837.87,258.52Z" transform="translate(-52.36 -36.46)"/><path class="cls-1" d="M908.4,744.3s-2,3.25-2,4.92.89,2.36,2,2.36,2-.64,2-2.36S908.4,744.3,908.4,744.3Z" transform="translate(-52.36 -36.46)"/><path class="cls-1" d="M1338.85,733.78s-2,3.25-2,4.92.89,2.36,2,2.36,2-.64,2-2.36S1338.85,733.78,1338.85,733.78Z" transform="translate(-52.36 -36.46)"/><path class="cls-1" d="M1174.86,83.42s-2,3.25-2,4.92.89,2.36,2,2.36,2-.64,2-2.36S1174.86,83.42,1174.86,83.42Z" transform="translate(-52.36 -36.46)"/><path class="cls-1" d="M1356.48,409.62s-3.77,6.15-3.77,9.3,1.69,4.47,3.77,4.47,3.77-1.21,3.77-4.47S1356.48,409.62,1356.48,409.62Z" transform="translate(-52.36 -36.46)"/><path class="cls-1" d="M957.54,531.29s-3.77,6.15-3.77,9.3,1.69,4.47,3.77,4.47,3.77-1.21,3.77-4.47S957.54,531.29,957.54,531.29Z" transform="translate(-52.36 -36.46)"/><path class="cls-1" d="M1074.5,330.3s-3.77,6.15-3.77,9.3,1.69,4.47,3.77,4.47,3.77-1.21,3.77-4.47S1074.5,330.3,1074.5,330.3Z" transform="translate(-52.36 -36.46)"/><path class="cls-1" d="M944,150.83s-3.77,6.15-3.77,9.3,1.69,4.47,3.77,4.47,3.77-1.21,3.77-4.47S944,150.83,944,150.83Z" transform="translate(-52.36 -36.46)"/><path class="cls-1" d="M478.29,498.59s-3.77,6.15-3.77,9.3,1.69,4.47,3.77,4.47,3.77-1.21,3.77-4.47S478.29,498.59,478.29,498.59Z" transform="translate(-52.36 -36.46)"/><path class="cls-1" d="M689.33,344.06s-3.77,6.15-3.77,9.3,1.69,4.47,3.77,4.47,3.77-1.21,3.77-4.47S689.33,344.06,689.33,344.06Z" transform="translate(-52.36 -36.46)"/><path class="cls-1" d="M545,116.43s-3.77,6.15-3.77,9.3,1.69,4.47,3.77,4.47,3.77-1.21,3.77-4.47S545,116.43,545,116.43Z" transform="translate(-52.36 -36.46)"/><path class="cls-1" d="M245.1,258.85s-3.77,6.15-3.77,9.3,1.69,4.47,3.77,4.47,3.77-1.21,3.77-4.47S245.1,258.85,245.1,258.85Z" transform="translate(-52.36 -36.46)"/><path class="cls-1" d="M206.87,656.41s-3.77,6.15-3.77,9.3,1.69,4.47,3.77,4.47,3.77-1.21,3.77-4.47S206.87,656.41,206.87,656.41Z" transform="translate(-52.36 -36.46)"/><path class="cls-1" d="M1208.76,649.53s-3.77,6.15-3.77,9.3,1.69,4.47,3.77,4.47,3.77-1.21,3.77-4.47S1208.76,649.53,1208.76,649.53Z" transform="translate(-52.36 -36.46)"/><path class="cls-1" d="M1547.28,741.06s-3.77,6.15-3.77,9.3,1.69,4.47,3.77,4.47,3.77-1.21,3.77-4.47S1547.28,741.06,1547.28,741.06Z" transform="translate(-52.36 -36.46)"/><path class="cls-1" d="M1403.66,231.33s-7.54,12.29-7.54,18.59,3.38,8.93,7.54,8.93,7.54-2.41,7.54-8.93S1403.66,231.33,1403.66,231.33Z" transform="translate(-52.36 -36.46)"/><path class="cls-1" d="M1133.66,180.33s-7.54,12.29-7.54,18.59,3.38,8.93,7.54,8.93,7.54-2.41,7.54-8.93S1133.66,180.33,1133.66,180.33Z" transform="translate(-52.36 -36.46)"/><path class="cls-1" d="M784.4,130.19s-7.54,12.29-7.54,18.59,3.38,8.93,7.54,8.93,7.54-2.41,7.54-8.93S784.4,130.19,784.4,130.19Z" transform="translate(-52.36 -36.46)"/><path class="cls-1" d="M59.9,137.07s-7.54,12.29-7.54,18.59,3.38,8.93,7.54,8.93,7.54-2.41,7.54-8.93S59.9,137.07,59.9,137.07Z" transform="translate(-52.36 -36.46)"/><path class="cls-1" d="M900.87,373.48s-7.54,12.29-7.54,18.59,3.38,8.93,7.54,8.93,7.54-2.41,7.54-8.93S900.87,373.48,900.87,373.48Z" transform="translate(-52.36 -36.46)"/><path class="cls-1" d="M689.33,554.57s-7.54,12.29-7.54,18.59,3.38,8.93,7.54,8.93,7.54-2.41,7.54-8.93S689.33,554.57,689.33,554.57Z" transform="translate(-52.36 -36.46)"/><path class="cls-1" d="M351.85,67.1s-7.54,12.29-7.54,18.59,3.38,8.93,7.54,8.93,7.54-2.41,7.54-8.93S351.85,67.1,351.85,67.1Z" transform="translate(-52.36 -36.46)"/><path class="cls-1" d="M508.25,258.85s-7.54,12.29-7.54,18.59,3.38,8.93,7.54,8.93,7.54-2.41,7.54-8.93S508.25,258.85,508.25,258.85Z" transform="translate(-52.36 -36.46)"/><path class="cls-1" d="M296.84,461.33s-7.54,12.29-7.54,18.59,3.38,8.93,7.54,8.93,7.54-2.41,7.54-8.93S296.84,461.33,296.84,461.33Z" transform="translate(-52.36 -36.46)"/><path class="cls-1" d="M416.83,713.32s-7.54,12.29-7.54,18.59,3.38,8.93,7.54,8.93,7.54-2.41,7.54-8.93S416.83,713.32,416.83,713.32Z" transform="translate(-52.36 -36.46)"/><path class="cls-1" d="M82.35,642.65s-7.54,12.29-7.54,18.59,3.38,8.93,7.54,8.93,7.54-2.41,7.54-8.93S82.35,642.65,82.35,642.65Z" transform="translate(-52.36 -36.46)"/><path class="cls-1" d="M819.71,714.38s-7.54,12.29-7.54,18.59,3.38,8.93,7.54,8.93,7.54-2.41,7.54-8.93S819.71,714.38,819.71,714.38Z" transform="translate(-52.36 -36.46)"/><path class="cls-1" d="M146.56,194.09S139,206.39,139,212.68s3.38,8.93,7.54,8.93,7.54-2.41,7.54-8.93S146.56,194.09,146.56,194.09Z" transform="translate(-52.36 -36.46)"/><path class="cls-1" d="M1034.4,656.41s-7.54,12.29-7.54,18.59,3.38,8.93,7.54,8.93,7.54-2.41,7.54-8.93S1034.4,656.41,1034.4,656.41Z" transform="translate(-52.36 -36.46)"/><path class="cls-1" d="M1231.66,461.33s-7.54,12.29-7.54,18.59,3.38,8.93,7.54,8.93,7.54-2.41,7.54-8.93S1231.66,461.33,1231.66,461.33Z" transform="translate(-52.36 -36.46)"/><path class="cls-1" d="M1484.66,568.33s-7.54,12.29-7.54,18.59,3.38,8.93,7.54,8.93,7.54-2.41,7.54-8.93S1484.66,568.33,1484.66,568.33Z" transform="translate(-52.36 -36.46)"/></svg>