<svg xmlns="http://www.w3.org/2000/svg" viewBox="0 0 502.36 343.79"><defs><style>.cls-1,.cls-3{fill:#fff;}.cls-2{fill:gray;}.cls-3,.cls-4,.cls-5,.cls-6{stroke:gray;stroke-miterlimit:10;}.cls-3{stroke-width:4px;}.cls-4,.cls-5,.cls-6{fill:none;stroke-linecap:round;stroke-width:3px;}.cls-5{stroke-dasharray:12.45 12.45;}.cls-6{stroke-dasharray:12.06 12.06;}.cls-7{fill:#666;}</style></defs><title>資產 11</title><g id="圖層_2" data-name="圖層 2"><g id="圖層_3" data-name="圖層 3"><rect class="cls-1" width="502.36" height="343.79"/><rect class="cls-2" x="217.36" y="163.46" width="8.18" height="119.97" rx="2.59" ry="2.59"/><path class="cls-3" d="M107,144.92c15.87,0,29.85,9.71,38.15,24.49,8.29-14.78,22.28-24.49,38.15-24.49s29.85,9.71,38.15,24.49c8.29-14.78,22.28-24.49,38.15-24.49s29.85,9.71,38.15,24.49c8.29-14.78,22.28-24.49,38.15-24.49a38.69,38.69,0,0,1,13.38,2.41C337.51,84.51,284.79,37.11,221.45,37.11S105.39,84.51,93.63,147.32A38.69,38.69,0,0,1,107,144.92Z"/><path class="cls-2" d="M223.62,275.26a20.45,20.45,0,0,1-24.23-16.55,4.11,4.11,0,0,0-4-3.48h0a4.08,4.08,0,0,0-4.07,4.65,28.38,28.38,0,0,0,32.33,23.64Z"/><path class="cls-2" d="M225.94,37.82h-8.18V28.93a4.09,4.09,0,0,1,4.09-4.09h0a4.09,4.09,0,0,1,4.09,4.09Z"/><line class="cls-4" x1="38.15" y1="31.5" x2="38.15" y2="37.5"/><line class="cls-5" x1="38.15" y1="49.95" x2="38.15" y2="267.78"/><line class="cls-4" x1="38.15" y1="274" x2="38.15" y2="280"/><polygon class="cls-2" points="33.07 37.48 38.15 32.39 43.24 37.48 43.24 33.16 38.15 28.08 33.07 33.16 33.07 37.48"/><polygon class="cls-2" points="33.07 274.03 38.15 279.12 43.24 274.03 43.24 278.35 38.15 283.43 33.07 278.35 33.07 274.03"/><line class="cls-4" x1="344.72" y1="317.61" x2="338.72" y2="317.61"/><line class="cls-6" x1="326.66" y1="317.61" x2="115.61" y2="317.61"/><line class="cls-4" x1="109.58" y1="317.61" x2="103.58" y2="317.61"/><polygon class="cls-2" points="338.75 312.52 343.84 317.61 338.75 322.69 343.06 322.69 348.15 317.61 343.06 312.52 338.75 312.52"/><polygon class="cls-2" points="109.56 312.52 104.47 317.61 109.56 322.69 105.24 322.69 100.15 317.61 105.24 312.52 109.56 312.52"/><rect class="cls-1" x="4.15" y="141.78" width="68" height="27.95"/><path class="cls-7" d="M35.5,153.7l-.45.68a17.34,17.34,0,0,1-6.51-4q-1.9,2.37-6.59,4l-.43-.73a13.77,13.77,0,0,0,6-3.34H25.93v-.75h3Q30.73,151.93,35.5,153.7Zm-.38,8H21.91V161h6.2v-2.8H23.7v-.73h4.41v-2.7H23.72v-.71H33.3v.71H28.93v2.7h4.35v.73H28.93V161h6.18Z"/><path class="cls-7" d="M54.79,156.37H43.85v4.55q1.57-.41,3.62-1.11l.2.73q-2.45.84-4.61,1.4l-.3-.77a.38.38,0,0,0,.26-.34v-4.46H40.87v-.71h2.55v-6H53.85v.71H44.27v1.28H53v.72H44.27v1.28H53v.7H44.27v1.31H54.79Zm-.08,4.87-.47.7a17.22,17.22,0,0,1-4.52-1.6,6.82,6.82,0,0,1-2.92-3l.73-.31a6.8,6.8,0,0,0,1.89,2.23,16.53,16.53,0,0,0,3.34-2.17l.61.5a17,17,0,0,1-3.2,2.14A16,16,0,0,0,54.71,161.24Z"/><rect class="cls-1" x="187.65" y="302.11" width="68" height="32"/><path class="cls-7" d="M218.44,323.57H204.52v-.75H207v-8.88h3.31a11.77,11.77,0,0,0,.62-1.52h-6.14v-.75h6.41q.38-1.16.5-1.7l.8.18q-.29,1.13-.41,1.52h6.13v.75h-6.38q-.17.48-.59,1.52H216v8.88h2.48Zm-3.34-7.37v-1.5h-7.25v1.5Zm0,2.2v-1.49h-7.25v1.49Zm0,2.22v-1.5h-7.25v1.5Zm0,2.21v-1.5h-7.25v1.5Z"/><path class="cls-7" d="M227.39,310.14a14.7,14.7,0,0,1-3.13,4.45l-.56-.67a14.67,14.67,0,0,0,3-4.09Zm.64,3.25q-.58,1.08-1.27,2.17v8.34h-.81v-7.1a21.35,21.35,0,0,1-1.81,2l-.45-.73a17.68,17.68,0,0,0,3.62-5.07Zm9.66,10.14h-10v-.78h4.56v-3.28h-4v-.78h9v.78H233v3.28h4.64Zm-7-6-.7.4a21.61,21.61,0,0,0-2-2.95A17.71,17.71,0,0,0,229.9,312l.73.37a24.09,24.09,0,0,1-1.65,2.52A21.42,21.42,0,0,1,230.73,317.5Zm6.61-6.3h-9.27v-.78h9.27Zm-3.41,6.24-.72.4a20.08,20.08,0,0,0-2.07-2.86,14.4,14.4,0,0,0,1.94-2.95l.77.38a18.56,18.56,0,0,1-1.7,2.52A23.23,23.23,0,0,1,233.93,317.44Zm3.15,0-.72.38a17.58,17.58,0,0,0-2.09-2.86,18.23,18.23,0,0,0,2-2.91l.75.34a23,23,0,0,1-1.68,2.54A23.45,23.45,0,0,1,237.08,317.46Z"/></g></g></svg>