<svg xmlns="http://www.w3.org/2000/svg" viewBox="0 0 343.79 343.79"><defs><style>.cls-1{fill:#fff;}.cls-2{fill:#666;}</style></defs><title>資產 13</title><g id="圖層_2" data-name="圖層 2"><g id="圖層_3" data-name="圖層 3"><rect class="cls-1" width="343.79" height="343.79"/><path class="cls-2" d="M174,79.85l-.45.75A17.19,17.19,0,0,1,167,76.2q-1.9,2.59-6.59,4.4l-.43-.8a13.54,13.54,0,0,0,6-3.66h-1.55v-.82h3Q169.23,77.91,174,79.85Zm-.38,8.81h-13.2v-.8h6.2V84.79H162.2V84h4.41V81h-4.38v-.78h9.58V81h-4.37v3h4.35v.8h-4.35v3.07h6.18Z"/><path class="cls-2" d="M193.29,82.78H182.34v5q1.57-.45,3.62-1.22l.2.8q-2.45.92-4.61,1.54l-.3-.84a.41.41,0,0,0,.26-.37V82.78h-2.13V82h2.55V75.42h10.43v.78h-9.58V77.6h8.73v.79h-8.73V79.8h8.73v.77h-8.73V82h10.52Zm-.08,5.34-.47.77a16.27,16.27,0,0,1-4.52-1.75,7.22,7.22,0,0,1-2.92-3.32l.73-.34a7.33,7.33,0,0,0,1.89,2.45,16.39,16.39,0,0,0,3.34-2.38l.61.55a17,17,0,0,1-3.2,2.35A15.11,15.11,0,0,0,193.21,88.12Z"/><path class="cls-2" d="M205.59,80.28a.93.93,0,0,1,.91-.92.87.87,0,0,1,.64.27.9.9,0,0,1,.27.65.9.9,0,0,1-1.54.65A.86.86,0,0,1,205.59,80.28Zm0,7.19a.93.93,0,0,1,.91-.92.87.87,0,0,1,.64.27.9.9,0,0,1,.27.65.9.9,0,0,1-1.54.65A.86.86,0,0,1,205.59,87.47Z"/><path class="cls-2" d="M222.22,81.82a3.22,3.22,0,0,1-2.19-3,2.64,2.64,0,0,1,1-2.15,3.86,3.86,0,0,1,2.52-.82,3.45,3.45,0,0,1,2.27.77,2.5,2.5,0,0,1,.93,2,3.46,3.46,0,0,1-2.25,3.14v0q2.65,1,2.65,3.28a2.88,2.88,0,0,1-1.1,2.41,4.66,4.66,0,0,1-2.95.86,3.72,3.72,0,0,1-2.52-.87,2.86,2.86,0,0,1-1-2.28q0-2.33,2.63-3.4Zm1.06.66q-2.35.94-2.35,2.7a1.85,1.85,0,0,0,.7,1.54,2.79,2.79,0,0,0,1.79.56,2.63,2.63,0,0,0,1.73-.56,1.82,1.82,0,0,0,.68-1.48Q225.83,83.4,223.29,82.49Zm2.13-3.63a1.72,1.72,0,0,0-.54-1.35,2.08,2.08,0,0,0-1.44-.49,2.17,2.17,0,0,0-1.44.51,1.62,1.62,0,0,0-.61,1.29q0,1.61,2,2.43Q225.42,80.39,225.42,78.85Z"/><path class="cls-2" d="M232.59,86.49a4.57,4.57,0,0,0,2.52.8,3,3,0,0,0,2.09-.74,2.53,2.53,0,0,0,.8-2,2.33,2.33,0,0,0-.8-1.9,3.53,3.53,0,0,0-2.32-.67q-.47,0-1.9.09v-6h5.8v1.19h-4.55v3.63l1,0a4.35,4.35,0,0,1,3,1,3.4,3.4,0,0,1,1.08,2.69,3.61,3.61,0,0,1-1.17,2.84,4.47,4.47,0,0,1-3.08,1,4.81,4.81,0,0,1-2.48-.5Z"/><path class="cls-2" d="M258.15,87.79a4.44,4.44,0,0,1-2.34.61,3.88,3.88,0,0,1-3-1.2,4.36,4.36,0,0,1-1.13-3.12,4.8,4.8,0,0,1,1.22-3.44,4.25,4.25,0,0,1,3.24-1.29,4.54,4.54,0,0,1,2,.42v1.37a3.54,3.54,0,0,0-2.07-.68,2.82,2.82,0,0,0-2.19,1A3.65,3.65,0,0,0,253,84a3.5,3.5,0,0,0,.8,2.44,2.77,2.77,0,0,0,2.16.89,3.46,3.46,0,0,0,2.14-.76Z"/><path class="cls-2" d="M275.64,88.2h-1.3v-5a3.77,3.77,0,0,0-.46-2.14,1.74,1.74,0,0,0-1.51-.63,1.89,1.89,0,0,0-1.52.83,3.13,3.13,0,0,0-.64,2V88.2h-1.3V83.06q0-2.59-2-2.59a1.85,1.85,0,0,0-1.53.79,3.21,3.21,0,0,0-.61,2V88.2h-1.3V79.56h1.3v1.37h0a2.91,2.91,0,0,1,2.67-1.57,2.5,2.5,0,0,1,1.52.5,2.44,2.44,0,0,1,.92,1.31,3.08,3.08,0,0,1,2.88-1.8q2.85,0,2.85,3.52Z"/><path class="cls-2" d="M174,133.83H160.12v-.75h2.48V124.2h3.31a12.06,12.06,0,0,0,.62-1.52h-6.14v-.75h6.41q.38-1.16.5-1.7l.8.18q-.29,1.13-.41,1.52h6.13v.75h-6.38q-.17.48-.59,1.52h4.73v8.88H174Zm-3.34-7.37V125h-7.25v1.5Zm0,2.2v-1.49h-7.25v1.49Zm0,2.22v-1.5h-7.25v1.5Zm0,2.21v-1.5h-7.25v1.5Z"/><path class="cls-2" d="M183,120.41a14.67,14.67,0,0,1-3.13,4.45l-.56-.67a14.63,14.63,0,0,0,3-4.09Zm.64,3.25q-.58,1.08-1.27,2.17v8.34h-.81v-7.1a21.22,21.22,0,0,1-1.81,2l-.45-.73a17.66,17.66,0,0,0,3.62-5.07Zm9.66,10.14h-10V133h4.56v-3.28h-4V129h9v.78h-4.13V133h4.64Zm-7-6-.7.4a21.61,21.61,0,0,0-2-2.95,17.58,17.58,0,0,0,1.89-2.92l.73.37a23.93,23.93,0,0,1-1.65,2.52A21.3,21.3,0,0,1,186.33,127.77Zm6.61-6.3h-9.27v-.78h9.27Zm-3.41,6.24-.72.4a20,20,0,0,0-2.07-2.86,14.36,14.36,0,0,0,1.94-2.95l.77.38a18.38,18.38,0,0,1-1.7,2.52A23,23,0,0,1,189.53,127.7Zm3.15,0-.72.38a17.47,17.47,0,0,0-2.09-2.86,18.1,18.1,0,0,0,2-2.91l.75.34a22.91,22.91,0,0,1-1.68,2.54A23.31,23.31,0,0,1,192.68,127.72Z"/><path class="cls-2" d="M205.59,125.48a.93.93,0,0,1,.91-.92.87.87,0,0,1,.64.27.9.9,0,0,1,.27.65.9.9,0,0,1-1.54.65A.86.86,0,0,1,205.59,125.48Zm0,7.19a.93.93,0,0,1,.91-.92.87.87,0,0,1,.64.27.9.9,0,0,1,.27.65.9.9,0,0,1-1.54.65A.86.86,0,0,1,205.59,132.67Z"/><path class="cls-2" d="M227,133.4h-6.8v-1.16H223v-9.52l-2.82.85v-1.26l4.13-1.29v11.21H227Z"/><path class="cls-2" d="M231.95,127.59a9.16,9.16,0,0,1,1-4.85,3.35,3.35,0,0,1,3-1.65q3.77,0,3.77,6.2a8.75,8.75,0,0,1-1,4.66,3.34,3.34,0,0,1-3,1.64,3.11,3.11,0,0,1-2.81-1.58A8.49,8.49,0,0,1,231.95,127.59Zm1.33-.07q0,5,2.59,5t2.57-5q0-5.24-2.51-5.24T233.27,127.52Z"/><path class="cls-2" d="M245.07,131.69a4.56,4.56,0,0,0,2.52.8,3,3,0,0,0,2.09-.74,2.53,2.53,0,0,0,.8-2,2.34,2.34,0,0,0-.8-1.9,3.53,3.53,0,0,0-2.32-.67q-.48,0-1.9.09v-6h5.8v1.19h-4.55v3.63l1,0a4.36,4.36,0,0,1,3,1,3.41,3.41,0,0,1,1.08,2.69,3.61,3.61,0,0,1-1.17,2.84,4.47,4.47,0,0,1-3.08,1,4.8,4.8,0,0,1-2.48-.5Z"/><path class="cls-2" d="M270.62,133a4.44,4.44,0,0,1-2.34.61,3.89,3.89,0,0,1-3-1.2,4.37,4.37,0,0,1-1.13-3.12,4.8,4.8,0,0,1,1.22-3.44,4.25,4.25,0,0,1,3.24-1.29,4.52,4.52,0,0,1,2,.42v1.37a3.54,3.54,0,0,0-2.07-.68,2.83,2.83,0,0,0-2.19,1,3.66,3.66,0,0,0-.86,2.54,3.51,3.51,0,0,0,.8,2.44,2.77,2.77,0,0,0,2.16.89,3.46,3.46,0,0,0,2.14-.76Z"/><path class="cls-2" d="M288.11,133.4h-1.3v-5a3.77,3.77,0,0,0-.46-2.14,1.74,1.74,0,0,0-1.51-.63,1.88,1.88,0,0,0-1.52.83,3.12,3.12,0,0,0-.64,2v4.94h-1.3v-5.14q0-2.59-2-2.59a1.85,1.85,0,0,0-1.53.79,3.2,3.2,0,0,0-.61,2v4.94h-1.3v-8.64h1.3v1.37h0a2.91,2.91,0,0,1,2.67-1.57,2.5,2.5,0,0,1,1.52.5,2.46,2.46,0,0,1,.92,1.31,3.08,3.08,0,0,1,2.88-1.8q2.85,0,2.85,3.52Z"/><rect class="cls-2" x="41.05" y="91.53" width="64.28" height="28" rx="14" ry="14"/><path class="cls-1" d="M69.68,102.56q-1.26,5.42-3.12,7.59l-.69-.51q1.81-2.24,3-7.31ZM73.56,112a1.05,1.05,0,0,1-.27.71,1.21,1.21,0,0,1-.59.39,5.18,5.18,0,0,1-1.19.09c-.46,0-.83,0-1.11,0l-.34-.84a10.27,10.27,0,0,0,2.37-.07.49.49,0,0,0,.27-.49V99.19h.85Zm6.35-2.27-.81.35a55.26,55.26,0,0,0-2.73-7.44l.82-.34A63.26,63.26,0,0,1,79.91,109.76Z"/><rect class="cls-2" x="41.05" y="227.95" width="64.28" height="28" rx="14" ry="14"/><path class="cls-1" d="M80,249l-.57.72a14.65,14.65,0,0,1-4.12-3.82A15.21,15.21,0,0,1,73,240.5q-1,5.62-6.54,9.14l-.55-.73a17.53,17.53,0,0,0,2.73-2.16,13.51,13.51,0,0,0,2.17-2.65,11.53,11.53,0,0,0,1.33-3.83H66.18v-.83h6.09a34.1,34.1,0,0,0,.27-3.89h.91q-.08,2.09-.3,3.89h6.55v.83H73.78a14.47,14.47,0,0,0,2.37,5.37A13.61,13.61,0,0,0,80,249Z"/><path class="cls-2" d="M174,214.87l-.45.75a17.19,17.19,0,0,1-6.51-4.4q-1.9,2.59-6.59,4.4l-.43-.8a13.54,13.54,0,0,0,6-3.66h-1.55v-.82h3Q169.23,212.94,174,214.87Zm-.38,8.81h-13.2v-.8h6.2v-3.07H162.2V219h4.41v-3h-4.38v-.78h9.58v.78h-4.37v3h4.35v.8h-4.35v3.07h6.18Z"/><path class="cls-2" d="M193.29,217.8H182.34v5q1.57-.45,3.62-1.22l.2.8q-2.45.92-4.61,1.54l-.3-.84a.41.41,0,0,0,.26-.37V217.8h-2.13V217h2.55v-6.59h10.43v.78h-9.58v1.41h8.73v.79h-8.73v1.41h8.73v.77h-8.73V217h10.52Zm-.08,5.34-.47.77a16.27,16.27,0,0,1-4.52-1.75,7.22,7.22,0,0,1-2.92-3.32l.73-.34a7.33,7.33,0,0,0,1.89,2.45,16.39,16.39,0,0,0,3.34-2.38l.61.55a17,17,0,0,1-3.2,2.35A15.11,15.11,0,0,0,193.21,223.15Z"/><path class="cls-2" d="M205.59,215.31a.93.93,0,0,1,.91-.92.87.87,0,0,1,.64.27.9.9,0,0,1,.27.65.9.9,0,0,1-1.54.65A.86.86,0,0,1,205.59,215.31Zm0,7.19a.93.93,0,0,1,.91-.92.87.87,0,0,1,.64.27.9.9,0,0,1,.27.65.9.9,0,0,1-1.54.65A.86.86,0,0,1,205.59,222.5Z"/><path class="cls-2" d="M220.2,221.75a4.32,4.32,0,0,0,2.13.57,3,3,0,0,0,2.58-1.35,6.71,6.71,0,0,0,.93-3.83s0,0,0,0a2.78,2.78,0,0,1-2.72,1.58,3.32,3.32,0,0,1-2.55-1.07,3.81,3.81,0,0,1-1-2.7,4.09,4.09,0,0,1,1.06-2.88,3.62,3.62,0,0,1,2.8-1.15,3.17,3.17,0,0,1,2.79,1.43,7.28,7.28,0,0,1,1,4.1,9,9,0,0,1-1.27,5.14,4.13,4.13,0,0,1-3.61,1.84,4.87,4.87,0,0,1-2.08-.41Zm.68-7a3,3,0,0,0,.66,2,2.52,2.52,0,0,0,3.54.08,2.27,2.27,0,0,0,.68-1.65,3.7,3.7,0,0,0-.68-2.26,2.13,2.13,0,0,0-1.8-.91,2.16,2.16,0,0,0-1.73.79A2.87,2.87,0,0,0,220.88,214.76Z"/><path class="cls-2" d="M231.95,217.42a9.16,9.16,0,0,1,1-4.85,3.35,3.35,0,0,1,3-1.65q3.77,0,3.77,6.2a8.75,8.75,0,0,1-1,4.66,3.34,3.34,0,0,1-3,1.64,3.11,3.11,0,0,1-2.81-1.58A8.49,8.49,0,0,1,231.95,217.42Zm1.33-.07q0,5,2.59,5t2.57-5q0-5.24-2.51-5.24T233.27,217.35Z"/><path class="cls-2" d="M258.15,222.82a4.44,4.44,0,0,1-2.34.61,3.88,3.88,0,0,1-3-1.2,4.36,4.36,0,0,1-1.13-3.12,4.8,4.8,0,0,1,1.22-3.44,4.25,4.25,0,0,1,3.24-1.29,4.54,4.54,0,0,1,2,.42v1.37a3.54,3.54,0,0,0-2.07-.68,2.82,2.82,0,0,0-2.19,1A3.65,3.65,0,0,0,253,219a3.5,3.5,0,0,0,.8,2.44,2.77,2.77,0,0,0,2.16.89,3.46,3.46,0,0,0,2.14-.76Z"/><path class="cls-2" d="M275.64,223.22h-1.3v-5a3.77,3.77,0,0,0-.46-2.14,1.74,1.74,0,0,0-1.51-.63,1.89,1.89,0,0,0-1.52.83,3.13,3.13,0,0,0-.64,2v4.94h-1.3v-5.14q0-2.59-2-2.59a1.85,1.85,0,0,0-1.53.79,3.21,3.21,0,0,0-.61,2v4.94h-1.3v-8.64h1.3V216h0a2.91,2.91,0,0,1,2.67-1.57,2.5,2.5,0,0,1,1.52.5,2.44,2.44,0,0,1,.92,1.31,3.08,3.08,0,0,1,2.88-1.8q2.85,0,2.85,3.52Z"/><path class="cls-2" d="M174,268.85H160.12v-.75h2.48v-8.88h3.31a12.06,12.06,0,0,0,.62-1.52h-6.14V257h6.41q.38-1.16.5-1.7l.8.18q-.29,1.13-.41,1.52h6.13v.75h-6.38q-.17.48-.59,1.52h4.73v8.88H174Zm-3.34-7.37V260h-7.25v1.5Zm0,2.2v-1.49h-7.25v1.49Zm0,2.22v-1.5h-7.25v1.5Zm0,2.21v-1.5h-7.25v1.5Z"/><path class="cls-2" d="M183,255.43a14.67,14.67,0,0,1-3.13,4.45l-.56-.67a14.63,14.63,0,0,0,3-4.09Zm.64,3.25q-.58,1.08-1.27,2.17v8.34h-.81v-7.1a21.22,21.22,0,0,1-1.81,2l-.45-.73a17.66,17.66,0,0,0,3.62-5.07Zm9.66,10.14h-10V268h4.56v-3.28h-4V264h9v.78h-4.13V268h4.64Zm-7-6-.7.4a21.61,21.61,0,0,0-2-2.95,17.58,17.58,0,0,0,1.89-2.92l.73.37a23.93,23.93,0,0,1-1.65,2.52A21.3,21.3,0,0,1,186.33,262.79Zm6.61-6.3h-9.27v-.78h9.27Zm-3.41,6.24-.72.4a20,20,0,0,0-2.07-2.86,14.36,14.36,0,0,0,1.94-2.95l.77.38a18.38,18.38,0,0,1-1.7,2.52A23,23,0,0,1,189.53,262.73Zm3.15,0-.72.38a17.47,17.47,0,0,0-2.09-2.86,18.1,18.1,0,0,0,2-2.91l.75.34a22.91,22.91,0,0,1-1.68,2.54A23.31,23.31,0,0,1,192.68,262.74Z"/><path class="cls-2" d="M205.59,260.51a.93.93,0,0,1,.91-.92.87.87,0,0,1,.64.27.9.9,0,0,1,.27.65.9.9,0,0,1-1.54.65A.86.86,0,0,1,205.59,260.51Zm0,7.19a.93.93,0,0,1,.91-.92.87.87,0,0,1,.64.27.9.9,0,0,1,.27.65.9.9,0,0,1-1.54.65A.86.86,0,0,1,205.59,267.7Z"/><path class="cls-2" d="M227,268.42h-6.8v-1.16H223v-9.52l-2.82.85v-1.26l4.13-1.29v11.21H227Z"/><path class="cls-2" d="M239.26,268.42H232v-1.18l3.52-3.55a13,13,0,0,0,2.15-2.56,3.65,3.65,0,0,0,.4-1.68,2.17,2.17,0,0,0-.61-1.65,2.42,2.42,0,0,0-1.74-.58,4.53,4.53,0,0,0-3.11,1.4v-1.39a5.1,5.1,0,0,1,3.28-1.12,3.55,3.55,0,0,1,2.5.87,3,3,0,0,1,.94,2.35,4.54,4.54,0,0,1-.62,2.25,14.51,14.51,0,0,1-2.35,2.83l-2.82,2.79v0h5.68Z"/><path class="cls-2" d="M244.42,262.62a9.16,9.16,0,0,1,1-4.85,3.35,3.35,0,0,1,3-1.65q3.77,0,3.77,6.2a8.77,8.77,0,0,1-1,4.66,3.35,3.35,0,0,1-3,1.64,3.11,3.11,0,0,1-2.81-1.58A8.48,8.48,0,0,1,244.42,262.62Zm1.33-.07q0,5,2.59,5t2.57-5q0-5.24-2.51-5.24T245.75,262.55Z"/><path class="cls-2" d="M270.62,268a4.44,4.44,0,0,1-2.34.61,3.89,3.89,0,0,1-3-1.2,4.37,4.37,0,0,1-1.13-3.12,4.8,4.8,0,0,1,1.22-3.44,4.25,4.25,0,0,1,3.24-1.29,4.52,4.52,0,0,1,2,.42v1.37a3.54,3.54,0,0,0-2.07-.68,2.83,2.83,0,0,0-2.19,1,3.66,3.66,0,0,0-.86,2.54,3.51,3.51,0,0,0,.8,2.44,2.77,2.77,0,0,0,2.16.89,3.46,3.46,0,0,0,2.14-.76Z"/><path class="cls-2" d="M288.11,268.42h-1.3v-5a3.77,3.77,0,0,0-.46-2.14,1.74,1.74,0,0,0-1.51-.63,1.88,1.88,0,0,0-1.52.83,3.12,3.12,0,0,0-.64,2v4.94h-1.3v-5.14q0-2.59-2-2.59a1.85,1.85,0,0,0-1.53.79,3.2,3.2,0,0,0-.61,2v4.94h-1.3v-8.64h1.3v1.37h0a2.91,2.91,0,0,1,2.67-1.57,2.5,2.5,0,0,1,1.52.5,2.46,2.46,0,0,1,.92,1.31,3.08,3.08,0,0,1,2.88-1.8q2.85,0,2.85,3.52Z"/></g></g></svg>