<?xml version="1.0" encoding="utf-8"?>
<!-- Generator: Adobe Illustrator 21.0.0, SVG Export Plug-In . SVG Version: 6.00 Build 0)  -->
<svg version="1.1" id="圖層_1" xmlns="http://www.w3.org/2000/svg" xmlns:xlink="http://www.w3.org/1999/xlink" x="0px" y="0px"
	 viewBox="0 0 502.4 343.8" style="enable-background:new 0 0 502.4 343.8;" xml:space="preserve">
<style type="text/css">
	.st0{fill:#FFFFFF;}
	.st1{fill:#FFFFFF;stroke:#808080;stroke-width:4;stroke-miterlimit:10;}
	.st2{fill:#808080;}
	.st3{fill:none;stroke:#808080;stroke-width:3;stroke-linecap:round;stroke-miterlimit:10;}
	.st4{fill:none;stroke:#808080;stroke-width:3;stroke-linecap:round;stroke-miterlimit:10;stroke-dasharray:12.45,12.45;}
	.st5{fill:none;stroke:#808080;stroke-width:3;stroke-linecap:round;stroke-miterlimit:10;stroke-dasharray:12.06,12.06;}
	.st6{fill:#666666;}
</style>
<title>資產 11</title>
<g id="圖層_2">
	<g id="圖層_3">
		<rect class="st0" width="502.4" height="343.8"/>
		<path class="st1" d="M181.5,137.3c15.9,0,29.9,9.7,38.1,24.5c8.3-14.8,22.3-24.5,38.1-24.5s29.9,9.7,38.1,24.5
			c8.3-14.8,22.3-24.5,38.1-24.5s29.9,9.7,38.1,24.5c8.3-14.8,22.3-24.5,38.1-24.5c4.6,0,9.1,0.8,13.4,2.4
			C412,76.9,359.3,29.5,295.9,29.5S179.9,76.9,168.1,139.7C172.4,138.2,176.9,137.3,181.5,137.3z"/>
		<path class="st2" d="M294.4,155.9h3c1.4,0,2.6,1.2,2.6,2.6v114.8c0,1.4-1.2,2.6-2.6,2.6h-3c-1.4,0-2.6-1.2-2.6-2.6V158.5
			C291.8,157,293,155.9,294.4,155.9z"/>
		<path class="st2" d="M298.1,267.7c-11.1,2.3-21.9-4.9-24.1-16c0-0.2-0.1-0.4-0.1-0.6c-0.3-2-2-3.5-4-3.5l0,0c-2.3,0-4.1,1.8-4.1,4
			c0,0.2,0,0.4,0,0.6c2.4,15.4,16.9,26,32.3,23.6L298.1,267.7z"/>
		<path class="st2" d="M300.4,30.2h-8.2v-8.9c0-2.3,1.8-4.1,4.1-4.1l0,0c2.3,0,4.1,1.8,4.1,4.1V30.2z"/>
		<line class="st3" x1="112.6" y1="23.9" x2="112.6" y2="29.9"/>
		<line class="st4" x1="112.6" y1="42.4" x2="112.6" y2="260.2"/>
		<line class="st3" x1="112.6" y1="266.4" x2="112.6" y2="272.4"/>
		<polygon class="st2" points="107.5,29.9 112.6,24.8 117.7,29.9 117.7,25.6 112.6,20.5 107.5,25.6 		"/>
		<polygon class="st2" points="107.5,266.5 112.6,271.5 117.7,266.5 117.7,270.8 112.6,275.9 107.5,270.8 		"/>
		<line class="st3" x1="419.2" y1="310" x2="413.2" y2="310"/>
		<line class="st5" x1="401.1" y1="310" x2="190.1" y2="310"/>
		<line class="st3" x1="184" y1="310" x2="178" y2="310"/>
		<polygon class="st2" points="413.2,304.9 418.3,310 413.2,315.1 417.5,315.1 422.6,310 417.5,304.9 		"/>
		<polygon class="st2" points="184,304.9 178.9,310 184,315.1 179.7,315.1 174.6,310 179.7,304.9 		"/>
		<rect x="78.6" y="134.2" class="st0" width="68" height="27.9"/>
		<path class="st6" d="M110,146.1l-0.5,0.7c-2.4-0.8-4.7-2.2-6.5-4c-1.3,1.6-3.5,2.9-6.6,4l-0.4-0.7c2.2-0.6,4.3-1.7,6-3.3h-1.6V142
			h3C104.6,143.6,106.8,144.9,110,146.1z M109.6,154.1H96.4v-0.7h6.2v-2.8h-4.4v-0.7h4.4v-2.7h-4.4v-0.7h9.6v0.7h-4.4v2.7h4.3v0.7
			h-4.3v2.8h6.2L109.6,154.1z"/>
		<path class="st6" d="M129.3,148.8h-10.9v4.6c1-0.3,2.3-0.6,3.6-1.1l0.2,0.7c-1.6,0.6-3.2,1-4.6,1.4l-0.3-0.8
			c0.1,0,0.3-0.2,0.3-0.3v-4.5h-2.2v-0.7h2.6v-6h10.4v0.7h-9.6v1.3h8.7v0.7h-8.7v1.3h8.7v0.7h-8.7v1.3h10.5V148.8z M129.2,153.7
			l-0.5,0.7c-1.6-0.3-3.1-0.9-4.5-1.6c-1.3-0.7-2.3-1.7-2.9-3l0.7-0.3c0.5,0.9,1.1,1.6,1.9,2.2c1.2-0.6,2.3-1.3,3.3-2.2l0.6,0.5
			c-1,0.8-2.1,1.6-3.2,2.1C126.1,152.9,127.6,153.4,129.2,153.7L129.2,153.7z"/>
		<rect x="262.1" y="294.5" class="st0" width="68" height="32"/>
		<path class="st6" d="M292.9,316H279v-0.8h2.5v-8.9h3.3c0.2-0.5,0.4-1,0.6-1.5h-6.1v-0.8h6.4c0.3-0.8,0.4-1.3,0.5-1.7l0.8,0.2
			c-0.2,0.8-0.3,1.3-0.4,1.5h6.1v0.8h-6.4c-0.1,0.3-0.3,0.8-0.6,1.5h4.8v8.9h2.5L292.9,316z M289.6,308.6v-1.5h-7.3v1.5H289.6z
			 M289.6,310.8v-1.5h-7.3v1.5H289.6z M289.6,313v-1.5h-7.3v1.5H289.6z M289.6,315.3v-1.5h-7.3v1.5H289.6z"/>
		<path class="st6" d="M301.9,302.6c-0.8,1.7-1.8,3.2-3.1,4.5l-0.6-0.7c1.2-1.2,2.2-2.6,3-4.1L301.9,302.6z M302.5,305.8
			c-0.4,0.7-0.8,1.4-1.3,2.2v8.3h-0.8v-7.1c-0.6,0.7-1.2,1.4-1.8,2l-0.5-0.7c1.5-1.5,2.7-3.2,3.6-5.1L302.5,305.8z M312.2,316h-10
			v-0.8h4.6v-3.3h-4v-0.8h9v0.8h-4.3v3.3h4.6L312.2,316z M305.2,310l-0.7,0.4c-0.6-1-1.3-2-2-3c0.7-0.9,1.4-1.9,1.9-3l0.7,0.4
			c-0.5,0.9-1,1.7-1.6,2.5C304.1,308.1,304.7,309,305.2,310L305.2,310z M311.8,303.7h-9.3v-0.8h9.3V303.7z M308.4,309.9l-0.7,0.4
			c-0.6-1-1.3-2-2.1-2.9c0.8-0.9,1.4-1.9,1.9-3l0.8,0.4c-0.5,0.9-1.1,1.7-1.7,2.5C307.2,308.2,307.8,309,308.4,309.9L308.4,309.9z
			 M311.5,309.9l-0.7,0.4c-0.6-1-1.3-2-2.1-2.9c0.8-0.9,1.4-1.9,2-2.9l0.8,0.3c-0.5,0.9-1.1,1.7-1.7,2.5
			C310.4,308.2,311,309,311.5,309.9L311.5,309.9z"/>
	</g>
</g>
</svg>
