<svg xmlns="http://www.w3.org/2000/svg" viewBox="0 0 1488.09 925.84"><defs><style>.cls-1{fill:#fff8b8;}</style></defs><title>資產 1</title><g id="圖層_2" data-name="圖層 2"><g id="圖層_1-2" data-name="圖層 1"><rect class="cls-1" x="1002.28" y="-60.98" width="20" height="721.46" transform="translate(423.11 -576.29) rotate(39.58)"/><rect class="cls-1" x="1389.8" y="30.68" width="22.82" height="892.87" transform="translate(86.42 -202.86) rotate(8.54)"/><rect class="cls-1" x="1125.91" y="-10.67" width="36.78" height="735.56" transform="translate(301.98 -495.79) rotate(28.03)"/><rect class="cls-1" x="490.14" y="-194.81" width="36.78" height="1329.43" transform="translate(521.08 -222.37) rotate(48.3)"/><rect class="cls-1" x="979.46" y="-76.73" width="5.8" height="759.48" transform="translate(418.33 -556.47) rotate(39.58)"/><rect class="cls-1" x="866.89" y="-134.78" width="6.44" height="877.85" transform="translate(492.65 -536.76) rotate(46.56)"/><rect class="cls-1" x="1419.38" y="33.7" width="2.26" height="894.81" transform="translate(2753.79 1167.89) rotate(-171.46)"/><rect class="cls-1" x="415.27" y="-216.12" width="22.82" height="950.52" transform="translate(445.24 -239.72) rotate(60.86)"/><rect class="cls-1" x="438.84" y="-212.11" width="2.42" height="972.31" transform="translate(414.98 791.84) rotate(-119.14)"/></g></g></svg>