<svg xmlns="http://www.w3.org/2000/svg" id="umbrella-care-5" viewBox="0 0 223 179" width="100%" height="100%"><title>umbrella-care-5</title><g clip-path="url(&quot;#bba&quot;)"><path fill="none" stroke="#000" stroke-linecap="round" stroke-linejoin="round" stroke-width="1.12" d="M 4.077 156.008 L 2.57 164.57 m 26.448 -90.318 s -18.683 52.575 -23.85 81.95 m 3.36 -85.554 s -0.38 55.794 -5.545 85.17 m -0.923 -0.163 l 4.069 0.716 m -0.981 -86.317 l 27.25 4.793 M 172.578 33.66 c 0 -3.205 2.399 -3.205 2.399 -6.41 c 0 -3.204 -2.4 -3.204 -2.4 -6.41 s 2.4 -3.204 2.4 -6.41 m -31.571 19.23 c 0 -3.205 2.398 -3.205 2.398 -6.41 c 0 -3.204 -2.398 -3.204 -2.398 -6.41 s 2.398 -3.204 2.398 -6.41 m -31.571 19.23 c 0 -3.205 2.398 -3.205 2.398 -6.41 c 0 -3.204 -2.398 -3.204 -2.398 -6.41 s 2.398 -3.204 2.398 -6.41 M 85.06 33.66 c 0 -3.205 2.398 -3.205 2.398 -6.41 c 0 -3.204 -2.398 -3.204 -2.398 -6.41 s 2.398 -3.204 2.398 -6.41 M 55.888 33.66 c 0 -3.205 2.398 -3.205 2.398 -6.41 c 0 -3.204 -2.398 -3.204 -2.398 -6.41 s 2.398 -3.204 2.398 -6.41 m -31.57 19.23 c 0 -3.205 2.398 -3.205 2.398 -6.41 c 0 -3.204 -2.398 -3.204 -2.398 -6.41 s 2.398 -3.204 2.398 -6.41 m 157.853 38.414 c 0 -3.205 2.398 -3.205 2.398 -6.41 c 0 -3.204 -2.398 -3.204 -2.398 -6.41 s 2.398 -3.204 2.398 -6.41 c 0 -3.211 -2.398 -3.211 -2.398 -6.422 s 2.398 -3.211 2.398 -6.421 m -31.571 32.073 c 0 -3.205 2.398 -3.205 2.398 -6.41 c 0 -3.204 -2.398 -3.204 -2.398 -6.41 s 2.398 -3.204 2.398 -6.41 c 0 -3.211 -2.398 -3.211 -2.398 -6.422 s 2.398 -3.211 2.398 -6.421 m -31.57 32.073 c 0 -3.205 2.398 -3.205 2.398 -6.41 c 0 -3.204 -2.398 -3.204 -2.398 -6.41 s 2.398 -3.204 2.398 -6.41 c 0 -3.211 -2.398 -3.211 -2.398 -6.422 s 2.398 -3.211 2.398 -6.421 M 99.449 52.845 c 0 -3.205 2.398 -3.205 2.398 -6.41 c 0 -3.204 -2.398 -3.204 -2.398 -6.41 s 2.398 -3.204 2.398 -6.41 c 0 -3.211 -2.398 -3.211 -2.398 -6.422 s 2.398 -3.211 2.398 -6.421 m -31.57 32.073 c 0 -3.205 2.398 -3.205 2.398 -6.41 c 0 -3.204 -2.398 -3.204 -2.398 -6.41 s 2.398 -3.204 2.398 -6.41 c 0 -3.211 -2.398 -3.211 -2.398 -6.422 s 2.398 -3.211 2.398 -6.421 M 41.104 52.845 c 0 -3.205 2.398 -3.205 2.398 -6.41 c 0 -3.204 -2.398 -3.204 -2.398 -6.41 s 2.398 -3.204 2.398 -6.41 c 0 -3.211 -2.398 -3.211 -2.398 -6.422 s 2.398 -3.211 2.398 -6.421 M 215.64 136.158 h -3.073 m -1.51 7.474 v 3.36 h -20.283 m 23.02 -4.601 h -5.658 a 1.058 1.058 0 0 1 -1.048 -0.918 l -1.37 -10.353 a 1.056 1.056 0 0 1 1.048 -1.195 h 8.584 a 1.056 1.056 0 0 1 1.045 1.213 l -1.556 10.353 a 1.057 1.057 0 0 1 -1.045 0.9 Z m -40.391 14.392 v -9.791 h -4.764 v 9.716 m -121.197 0.075 v -9.791 h -4.764 v 9.716 m 136.137 7.862 h -15.588 v -4.532 a 3.112 3.112 0 0 1 3.112 -3.112 h 9.364 a 3.112 3.112 0 0 1 3.112 3.112 Z m -125.962 0 H 37.266 v -4.532 a 3.112 3.112 0 0 1 3.112 -3.112 h 9.364 a 3.112 3.112 0 0 1 3.11 3.112 Z m 139.795 -84.845 v 59.873 a 1.904 1.904 0 0 1 -1.904 1.903 H 188.3 M 177.66 68.66 v 70.937 a 1.904 1.904 0 0 1 -1.904 1.903 h -2.443 m -10.641 -72.84 v 70.937 a 1.904 1.904 0 0 1 -1.904 1.903 h -2.443 m -10.641 -72.84 v 70.937 a 1.904 1.904 0 0 1 -1.904 1.903 h -2.443 m -10.641 -72.84 v 70.937 a 1.904 1.904 0 0 1 -1.904 1.903 h -2.443 m -10.641 -72.84 v 70.937 a 1.904 1.904 0 0 1 -1.904 1.903 h -2.443 m -10.642 -72.84 v 70.937 a 1.903 1.903 0 0 1 -1.903 1.903 h -2.443 M 87.73 68.66 v 70.937 a 1.903 1.903 0 0 1 -1.903 1.903 h -2.443 M 72.743 68.66 v 70.937 a 1.903 1.903 0 0 1 -1.904 1.903 h -2.442 M 57.755 68.66 v 70.937 a 1.903 1.903 0 0 1 -1.904 1.903 h -2.442 M 42.767 68.66 v 70.937 a 1.903 1.903 0 0 1 -1.904 1.903 H 38.42 M 27.779 68.66 v 4.915 m 0 4.71 v 61.312 a 1.903 1.903 0 0 1 -1.904 1.903 h -2.442 m -8.62 -70.297 v -2.66 a 5.374 5.374 0 0 1 5.375 -5.373 h 166.778 m 14.3 20.673 v 57.775 a 5.373 5.373 0 0 1 -5.374 5.373 H 20.188 a 5.373 5.373 0 0 1 -5.374 -5.373 v -23.68" /></g><path fill="none" stroke="#000" stroke-linecap="round" stroke-linejoin="round" stroke-width="2.801" d="M 18.97 71.401 l 1.809 -10.529" /><g clip-path="url(&quot;#bba&quot;)"><path fill="none" stroke="#000" stroke-linecap="round" stroke-linejoin="round" stroke-width="4.481" d="M 12.513 54.066 l 0.155 -0.885 a 4.652 4.652 0 1 1 9.162 1.616 l -1.477 8.42" /><path fill="none" stroke="#000" stroke-linecap="round" stroke-linejoin="round" stroke-width="1.12" d="M 198.45 59.284 l 11.024 14.724 m 0 -14.724 L 198.45 74.008 m 22.49 -7.362 a 16.978 16.978 0 1 0 -16.978 16.978 a 16.978 16.978 0 0 0 16.978 -16.978 Z" /><path d="M 22.841 66.922 l -5.83 -1.044 a 0.663 0.663 0 0 1 -0.536 -0.769 l 0.315 -1.757 a 0.663 0.663 0 0 1 0.77 -0.536 l 5.83 1.043 a 0.663 0.663 0 0 1 0.535 0.77 l -0.314 1.757 a 0.663 0.663 0 0 1 -0.77 0.536" /></g></svg>