<svg xmlns="http://www.w3.org/2000/svg" id="umbrella-care-1" viewBox="0 0 223.997 180.086" width="100%" height="100%"><title>umbrella-care-1</title><g clip-path="url(&quot;#axa&quot;)"><path d="M 17.924 125.766 a 1.762 1.762 0 1 0 -1.762 1.762 a 1.762 1.762 0 0 0 1.762 -1.762" /><path fill="none" stroke="#000" stroke-linecap="round" stroke-linejoin="round" stroke-width="0.997" d="M 28.918 121.321 h 29.109 m -4.52 -16.239 H 98.21 m -63.931 0 a 5.516 5.516 0 1 1 5.515 5.515 m -39.297 0 h 39.297" /><path d="M 41.067 87.956 a 1.762 1.762 0 1 0 -1.762 1.762 a 1.762 1.762 0 0 0 1.762 -1.762 M 17.924 125.766 a 1.762 1.762 0 1 0 -1.762 1.762 a 1.762 1.762 0 0 0 1.762 -1.762" /></g><path fill="none" stroke="#000" stroke-linecap="round" stroke-linejoin="round" stroke-width="0.997" d="M 48.528 91.524 H 70.85 m -46.068 5.975 H 13.597" /><g clip-path="url(&quot;#axa&quot;)"><path d="M 68.692 117.647 a 1.762 1.762 0 1 0 -1.762 1.761 a 1.762 1.762 0 0 0 1.762 -1.761 M 93.136 81.955 a 1.762 1.762 0 1 0 -1.762 1.762 a 1.762 1.762 0 0 0 1.762 -1.762 M 115.115 178.324 a 1.762 1.762 0 1 0 -1.762 1.762 a 1.762 1.762 0 0 0 1.762 -1.762" /><path fill="none" stroke="#000" stroke-linecap="round" stroke-linejoin="round" stroke-width="0.997" d="M 120.787 173.88 h 34.43 m -4.518 -16.24 h 32.479 m -51.706 0 a 5.516 5.516 0 1 1 5.515 5.515 m -76.295 0 h 76.295" /><path d="M 138.259 140.514 a 1.762 1.762 0 1 0 -1.762 1.762 a 1.762 1.762 0 0 0 1.762 -1.762 M 115.115 178.324 a 1.762 1.762 0 1 0 -1.762 1.762 a 1.762 1.762 0 0 0 1.762 -1.762" /></g><path fill="none" stroke="#000" stroke-linecap="round" stroke-linejoin="round" stroke-width="0.997" d="M 145.719 144.081 h 23.555 m -47.301 5.975 H 96.196" /><g clip-path="url(&quot;#axa&quot;)"><path d="M 165.884 170.204 a 1.762 1.762 0 1 0 -1.762 1.762 a 1.762 1.762 0 0 0 1.762 -1.762" /><path fill="none" stroke="#000" stroke-linecap="round" stroke-linejoin="round" stroke-width="0.997" d="M 172.023 123.162 a 5.515 5.515 0 1 1 5.515 5.515 m -31.819 0 h 31.82" /><path d="M 195.204 146.775 a 1.762 1.762 0 1 0 -1.762 1.762 a 1.762 1.762 0 0 0 1.762 -1.762 M 199.98 108.903 a 1.762 1.762 0 1 0 -1.763 1.762 a 1.762 1.762 0 0 0 1.762 -1.762" /><path fill="none" stroke="#000" stroke-linecap="round" stroke-linejoin="round" stroke-width="0.997" d="M 59.688 38.466 H 50.35 m 24.267 30.909 H 17.923 m 56.83 -18.021 a 5.515 5.515 0 1 1 5.514 5.515 m -35.496 0 h 35.496 m 32.494 70.659 h 9.173 m 77.434 -6.206 h 10.926" /><path d="M 31.558 43.24 a 1.762 1.762 0 1 0 -1.762 1.762 a 1.762 1.762 0 0 0 1.762 -1.762" /></g><path fill="none" stroke="#000" stroke-linecap="round" stroke-linejoin="round" stroke-width="0.997" d="M 53.507 154.325 h 11.662 m -17.423 -8.579 H 25.378" /><g clip-path="url(&quot;#axa&quot;)"><path d="M 34.28 169.242 a 1.762 1.762 0 1 0 -1.762 1.762 a 1.762 1.762 0 0 0 1.762 -1.762" /><path fill="none" stroke="#000" stroke-linecap="round" stroke-linejoin="round" stroke-width="0.997" d="M 214.125 89.718 h 6.28 M 184.25 34.062 h 13.968 m -70.5 -28.803 h 15.933 M 61.49 16.19 h 30.17 M 139.92 40.19 h 7.3 m 39.788 6.607 h -9.47 m 34.93 13.462 a 5.516 5.516 0 1 1 5.516 5.516 m -47.155 0 h 47.155 m -52.995 -45.502 a 5.516 5.516 0 1 1 5.515 5.516 m -31.82 0 h 31.82 M 56.247 135.214 h 8.957" /><path d="M 160.533 38.35 a 1.762 1.762 0 1 0 -1.762 1.763 a 1.762 1.762 0 0 0 1.762 -1.762 M 196.394 81.286 a 1.762 1.762 0 1 0 -1.762 1.762 a 1.762 1.762 0 0 0 1.762 -1.762 M 110.1 1.762 a 1.762 1.762 0 1 0 -1.763 1.762 a 1.762 1.762 0 0 0 1.762 -1.762" /><path fill="none" stroke="#000" stroke-linecap="round" stroke-linejoin="round" stroke-width="0.997" d="M 123.486 112.054 h 18.365 m -14.4 -75.43 q -0.578 0.692 -1.128 1.417 c -11.447 15.093 -10.406 36.038 1.218 51.168 m 50.257 -13.88 q -0.511 0.743 -1.06 1.468 c -11.448 15.093 -31.79 19.598 -49.35 12.294 m -0.662 0.118 l 26.03 -34.322 m 26.712 18.177 c -3.17 4.181 -0.097 11.908 6.865 17.26 c 5.838 4.488 12.557 5.88 16.443 3.747 m -48.89 -40.674 c -3.17 4.181 0.275 12.195 7.236 17.547 c 6.962 5.351 15.176 6.301 18.346 2.12 m -50.42 -38.76 c -3.17 4.18 -0.098 11.907 6.864 17.26 s 14.803 6.014 17.974 1.833 m -51.178 -35.85 c -0.782 4.314 2.31 10.267 7.994 14.636 c 6.961 5.351 15.175 6.301 18.346 2.12 m -26.3 -16.954 q -0.057 0.209 -0.11 0.417 a 68.562 68.562 0 0 0 24.11 71.603 a 67.467 67.467 0 0 0 74.784 5.45 q 0.738 -0.42 1.47 -0.86" /></g><path fill="none" stroke="#000" stroke-linecap="round" stroke-linejoin="round" stroke-width="2.492" d="M 96.258 129.384 l 30.469 -40.175" /><g clip-path="url(&quot;#axa&quot;)"><path fill="none" stroke="#000" stroke-linecap="round" stroke-linejoin="round" stroke-width="3.988" d="M 79.461 131.646 l -0.69 0.93 a 6.055 6.055 0 0 0 1.22 8.437 a 5.962 5.962 0 0 0 8.379 -1.228 l 7.137 -9.411" /><path d="M 97.758 132.078 l -4.568 -3.318 a 0.602 0.602 0 0 1 -0.133 -0.84 l 1.02 -1.405 a 0.6 0.6 0 0 1 0.84 -0.133 l 4.569 3.318 a 0.602 0.602 0 0 1 0.133 0.84 l -1.021 1.405 a 0.601 0.601 0 0 1 -0.84 0.133" /></g></svg>