<svg xmlns="http://www.w3.org/2000/svg" id="umbrella-care-3" viewBox="0 0 223 189.274" width="100%" height="100%"><title>umbrella-care-3</title><g clip-path="url(&quot;#aza&quot;)"><path fill="none" stroke="#000" stroke-linecap="round" stroke-linejoin="round" stroke-width="0.98" d="M 144.357 48.609 l -2.64 -2.023 m -120.99 -7.125 l 0.598 -0.341 a 109.595 109.595 0 0 1 33.657 -12.258 m 34.305 -0.991 a 107.982 107.982 0 0 1 90.736 134.616 q -0.348 1.31 -0.731 2.612" /><path fill="none" stroke="#000" stroke-linecap="round" stroke-linejoin="round" stroke-width="4.9" d="M 24.458 161.922 l -1.155 1.44 a 9.649 9.649 0 0 0 1.43 13.508 a 9.498 9.498 0 0 0 13.416 -1.445 l 11.94 -14.553" /><path fill="none" stroke="#000" stroke-linecap="round" stroke-linejoin="round" stroke-width="0.98" d="M 22.586 15.938 l 2.481 2.48 m 0 -2.48 l -2.48 2.48 m 0 -2.48 l 2.48 2.48 m 0.763 53.256 l 2.481 2.48 m 0 -2.48 l -2.48 2.48 m 0 -2.48 l 2.48 2.48 m 41.936 16.849 l 2.48 2.48 m 0 -2.48 l -2.48 2.48 m 0 -2.48 l 2.48 2.48 m 14.797 70.798 l 2.48 2.48 m 0 -2.48 l -2.48 2.48 m 0 -2.48 l 2.48 2.48 m 19.96 -36.438 l 2.48 2.48 m 0 -2.48 l -2.48 2.48 m 0 -2.48 l 2.48 2.48 m 87.348 0.705 l 2.481 2.48 m 0 -2.48 l -2.48 2.48 m 0 -2.48 l 2.48 2.48 m -41.406 -90.792 l 2.481 2.48 m 0 -2.48 l -2.48 2.48 m 0 -2.48 l 2.48 2.48 M 100.763 6.539 l 2.48 2.48 m 0 -2.48 l -2.48 2.48 m 0 -2.48 l 2.48 2.48 m -22.56 6.748 l -11.32 15.118 m -6.178 -6.177 l 6.178 6.177 m 20.003 -7.56 a 17.433 17.433 0 1 0 -17.433 17.434 a 17.433 17.433 0 0 0 17.433 -17.433 Z m 52.15 25.019 c -28.017 -11.815 -60.727 -4.627 -79.377 19.11 c -0.597 0.762 -1.182 1.379 -1.739 2.158 l -1.818 2.162 m 83.698 -23.278 c 18.348 24.122 18.603 57.302 -0.047 81.04 q -0.895 1.141 -1.834 2.229 l -2.245 2.669 M 98.53 101.8 l 47.318 -57.652 m -8.266 91.104 c 5.165 -6.575 18.32 -4.956 29.38 3.617 c 9.274 7.189 14.131 16.985 12.411 23.838 M 96.938 103.75 c 5.165 -6.575 18.911 -4.497 29.971 4.075 c 11.06 8.573 15.838 20.853 10.673 27.428 m -80.104 -62.09 c 5.165 -6.574 18.32 -4.955 29.38 3.618 s 15.245 20.394 10.08 26.969 M 21.016 39.319 c 6.334 -2.946 16.76 -0.581 25.79 6.417 c 11.06 8.573 15.837 20.853 10.672 27.428" /><path d="M 47.202 1.522 a 1.522 1.522 0 1 0 -1.522 1.522 a 1.522 1.522 0 0 0 1.522 -1.522 M 135.253 26.164 a 1.523 1.523 0 1 0 -1.522 1.522 a 1.522 1.522 0 0 0 1.522 -1.522 M 185.963 83.247 a 1.523 1.523 0 1 0 -1.522 1.522 a 1.522 1.522 0 0 0 1.522 -1.522 M 143.068 151.56 a 1.523 1.523 0 1 0 -1.522 1.522 a 1.522 1.522 0 0 0 1.522 -1.522 M 46.16 115.02 a 1.522 1.522 0 1 0 -1.523 1.524 a 1.523 1.523 0 0 0 1.522 -1.523" /></g><path fill="none" stroke="#000" stroke-linecap="round" stroke-linejoin="round" stroke-width="2.94" d="M 48.537 162.711 l 47.843 -58.292 l 2.149 -2.619" /><g clip-path="url(&quot;#aza&quot;)"><path d="M 96.38 105.889 a 1.47 1.47 0 0 1 -1.135 -2.402 l 3.453 -4.246 c 0.513 -0.627 0.138 0.908 0.764 1.423 c 0.628 0.515 2.056 -0.194 1.541 0.433 l -3.486 4.255 a 1.466 1.466 0 0 1 -1.137 0.537 M 52.726 163.347 l -5.628 -4.38 a 0.593 0.593 0 0 1 -0.103 -0.83 l 1.466 -1.884 a 0.592 0.592 0 0 1 0.83 -0.103 l 5.627 4.381 a 0.592 0.592 0 0 1 0.104 0.83 l -1.467 1.883 a 0.59 0.59 0 0 1 -0.829 0.103" /></g></svg>