<svg xmlns="http://www.w3.org/2000/svg" id="umbrella-care-6" viewBox="0 0 232 186.224" width="100%" height="100%"><title>umbrella-care-6</title><g clip-path="url(&quot;#bca&quot;)"><path fill="none" stroke="#000" stroke-linecap="round" stroke-linejoin="round" stroke-width="5.224" d="M 95.786 148.529 l 0.005 1.308 a 6.837 6.837 0 0 0 6.803 6.806 a 6.73 6.73 0 0 0 6.749 -6.772 l 0.097 -13.334" /></g>
        <path fill="none" stroke="#000" stroke-linecap="round" stroke-linejoin="round" stroke-width="1.306" d="M 109.563 34.062 l 0.003 -4.481" />
        <path fill="none" stroke="#000" stroke-linecap="round" stroke-linejoin="round" stroke-width="3.265" d="M 109.404 138.24 l 0.125 -16.102" />
        <path fill="none" stroke="#000" stroke-linecap="round" stroke-linejoin="round" stroke-width="1.306" d="M 109.82 32.75 l 12.814 88.082 m -26.165 0 h 27.1 M 97.405 120.832 l 0.035 -0.259" />
        <path fill="none" stroke="#000" stroke-dasharray="0.554,2.671" stroke-linecap="round" stroke-linejoin="round" stroke-width="1.306" d="M 97.798 117.952 l 11.41 -83.633" />
        <path fill="none" stroke="#000" stroke-linecap="round" stroke-linejoin="round" stroke-width="1.306" d="M 109.388 33.008 l 0.034 -0.259" />
        <path fill="none" stroke="#000" stroke-dasharray="0.506,2.596" stroke-linecap="round" stroke-linejoin="round" stroke-width="1.306" d="M 109.529 120.669 v -81.15" /><g clip-path="url(&quot;#bca&quot;)">
        <path fill="none" stroke="#000" stroke-linecap="round" stroke-linejoin="round" stroke-width="1.306" d="M 120.989 66.959 l -2.775 -2.694 l 2.775 -2.694 m -2.406 -4.081 c 9.737 0 17.63 1.517 17.63 3.388 c 0 1.87 -7.893 3.387 -17.63 3.387" />
        <path d="M 113.05 137.625 h -7.04 a 0.788 0.788 0 0 1 -0.789 -0.788 v -2.122 a 0.788 0.788 0 0 1 0.788 -0.788 h 7.04 a 0.788 0.788 0 0 1 0.788 0.788 v 2.122 a 0.788 0.788 0 0 1 -0.788 0.788" /></g><path fill="none" stroke="#000" stroke-linecap="round" stroke-linejoin="round" stroke-width="1.306" d="M 19.87 32.75 l -3.102 -0.033 m 94.346 0 l -3.102 -0.033" /><g clip-path="url(&quot;#bca&quot;)">
        <path fill="none" stroke="#000" stroke-linecap="round" stroke-linejoin="round" stroke-width="5.224" d="M 4.5 148.529 l 0.005 1.308 a 6.836 6.836 0 0 0 6.802 6.806 a 6.729 6.729 0 0 0 6.749 -6.772 l 0.098 -13.334" /></g>
        <path fill="none" stroke="#000" stroke-linecap="round" stroke-linejoin="round" stroke-width="1.306" d="M 18.277 34.062 l 0.003 -4.481" />
        <path fill="none" stroke="#000" stroke-linecap="round" stroke-linejoin="round" stroke-width="3.265" d="M 18.118 138.24 l 0.125 -16.102" />
        <path fill="none" stroke="#000" stroke-linecap="round" stroke-linejoin="round" stroke-width="1.306" d="M 6.12 120.832 L 18.136 32.75 m 0.397 0 l 12.813 88.083 m -26.164 0 h 27.1" />
        <path fill="none" stroke="#000" stroke-dasharray="0.506,2.596" stroke-linecap="round" stroke-linejoin="round" stroke-width="1.306" d="M 18.243 120.669 v -81.15" /><g clip-path="url(&quot;#bca&quot;)">
        <path fill="none" stroke="#000" stroke-linecap="round" stroke-linejoin="round" stroke-width="5.224" d="M 204.94 148.529 l 0.005 1.308 a 6.837 6.837 0 0 0 6.803 6.806 a 6.73 6.73 0 0 0 6.75 -6.772 l 0.096 -13.334" /></g>
        <path fill="none" stroke="#000" stroke-linecap="round" stroke-linejoin="round" stroke-width="1.306" d="M 218.718 34.062 l 0.003 -4.481" />
        <path fill="none" stroke="#000" stroke-linecap="round" stroke-linejoin="round" stroke-width="3.265" d="M 218.559 138.24 l 0.125 -16.102" /><g clip-path="url(&quot;#bca&quot;)">
        <path fill="none" stroke="#000" stroke-linecap="round" stroke-linejoin="round" stroke-width="1.306" d="M 214.028 105.783 h 2.223 m 4.473 0 a 2.04 2.04 0 1 0 -2.04 2.041 a 2.04 2.04 0 0 0 2.04 -2.04 Z m -0.594 -56.84 l -3.003 7.09 m 4 7.791 l -5.183 12.24 m 6.172 2.66 l -7.507 17.726 m 8.678 -3.255 l -4.392 10.37 m -1.68 3.966 l -3.733 8.815 m 10.857 -8.4 l -5.443 12.852 m -5.806 0.034 l 5.487 -88.083 m 0.398 0 l 6.283 88.083 m -14.41 0 H 227.5" />
        <path d="M 222.204 137.625 h -7.04 a 0.788 0.788 0 0 1 -0.788 -0.788 v -2.122 a 0.788 0.788 0 0 1 0.788 -0.788 h 7.04 a 0.788 0.788 0 0 1 0.788 0.788 v 2.122 a 0.788 0.788 0 0 1 -0.788 0.788 M 21.638 137.625 h -7.04 a 0.788 0.788 0 0 1 -0.788 -0.788 v -2.122 a 0.788 0.788 0 0 1 0.788 -0.788 h 7.04 a 0.788 0.788 0 0 1 0.788 0.788 v 2.122 a 0.788 0.788 0 0 1 -0.788 0.788" /></g>
        <path fill="none" stroke="#000" stroke-linecap="round" stroke-linejoin="round" stroke-width="1.306" d="M 220.272 32.717 l -3.102 -0.033" /></svg>