<svg xmlns="http://www.w3.org/2000/svg" id="umbrella-care-2" viewBox="0 0 223 180.127" width="100%" height="100%"><title>umbrella-care-2</title><g clip-path="url(&quot;#aya&quot;)"><path fill="none" stroke="#000" stroke-linecap="round" stroke-linejoin="round" stroke-width="1.126" d="M 121.285 39.584 l 3.907 4.643 m -6.078 -4.336 l -2.183 5.94 m 0.511 -8.937 l 1.672 2.997 l 2.171 -0.307 l 0.913 -3.262 m -3.795 16.321 l 3.651 2.592 l 3.162 -4.207 m -5.268 -17.265 l -4.999 6.102 m 4.221 -5.12 l 6.586 2.776 m -0.883 -9.973 l -5.703 7.196 l -8.147 -3.596 m 7.094 48.604 l 5.963 4.956 l 5.346 -6.006 m 11.853 20.854 c -0.812 9.614 -2.339 27.063 -3.693 38.942 l -0.096 0.75 m -9.87 -45.919 l -2.428 0.07 s 0.395 16.071 0.264 28.33 l -0.027 0.771 m -1.424 21.05 c -1.143 10.117 -3.075 20.314 -3.166 20.872 c -0.217 1.328 0.75 2.637 5.325 3.044 c 3.95 0.351 5.181 0.646 5.78 -1.168 c 0.6 -1.813 1.775 -6.266 2.603 -9.57 m -25.136 -50.845 v 12.261 s -0.702 4.633 3.861 10.81 c 4.562 6.177 21.451 27.97 22.434 29.267 c 0.982 1.3 2.801 1.62 7.68 -1.68 c 5.077 -3.433 3.858 -5.17 1.55 -7.932 c -10.389 -12.425 -20.292 -27.272 -20.292 -27.272 s -2.473 -3.583 -1.79 -7.353 c 0.772 -4.264 1.93 -8.897 1.93 -8.897 l 0.491 -1.898 m -20.194 -67.762 c 4.058 5.45 13.21 18.943 13.33 36.74 M 98.9 40.014 a 18.656 18.656 0 0 1 5.914 9.16 c 1.51 5.877 1.895 12.9 1.228 33.59 c -0.645 20.048 -1.817 23.352 4.06 23.105 c 7.207 -0.302 6.374 -2.403 7.08 -11.224 c 0.747 -9.364 2.231 -33.96 0.724 -43.96 a 43.223 43.223 0 0 0 -7.44 -18.947 m 2.061 -4.43 a 8.66 8.66 0 0 1 -4.519 6.177 c -4.563 2.668 -9.547 3.826 -11.09 9.758 c -0.779 2.99 0 18.321 -2.107 27.376 c -2.106 9.056 -2.246 9.758 -3.93 15.724 a 2.224 2.224 0 0 0 1.333 2.95 a 13.26 13.26 0 0 0 2.448 0.736 c 1.404 0.215 2.311 0.33 2.311 0.33 s 1.348 0.065 2.19 -2.47 c 0.88 -2.652 6.74 -16.883 7.113 -26.14 m 20.69 -32.934 c -1.495 8.397 -3.385 24.883 0.654 41.37 m 15.592 -37.655 c -2.43 1.688 -5.114 4.74 -3.966 9.66 c 1.965 8.423 2.667 18.462 2.948 31.588 c 0.036 0.6 0.075 1.213 0.124 1.844 m -7.788 -46.1 c -6.625 12.83 -7.455 26.226 -7.709 29.024 c -0.702 14.601 6.46 31.912 7.862 37.976 c 1.193 5.16 7.23 2.808 10.038 2.246 c 6.077 -1.652 1.65 -7.29 -0.178 -12.275 l -0.498 -1.308 M 121.85 25.212 c 1.03 0.975 5.444 4.852 10.234 4.484 c 5.476 -0.42 8.564 -0.702 11.653 3.51 c 3.09 4.211 16.76 18.97 17.883 21.99 c 1.123 3.017 0.087 5.457 -1.387 10.16 a 84.928 84.928 0 0 1 -6.246 13.244 c -0.62 0.867 -1.387 1.32 -3.21 0.238 c -1.225 -0.726 -4.574 -2.47 -3.53 -4.497 c 0 0 7.932 -12.81 4.843 -16.918 c -2.247 -2.987 -11.863 -11.3 -11.863 -11.3" /></g><path d="M 119.17 34.745 l -1.728 2.15 l 1.728 3.383 l -2.239 5.553 l 1.48 7.301 l 3.398 1.93 l 3.064 -3.306 l -0.335 -8.895 l -3.253 -3.478 l 0.913 -3.061 l -3.028 -1.577 Z" /><g clip-path="url(&quot;#aya&quot;)"><path d="M 123.147 58.442 a 0.784 0.784 0 1 0 -0.784 0.784 a 0.784 0.784 0 0 0 0.784 -0.784 M 123.617 65.337 a 0.784 0.784 0 1 0 -0.784 0.784 a 0.784 0.784 0 0 0 0.784 -0.784 M 124.086 72.233 a 0.784 0.784 0 1 0 -0.784 0.784 a 0.784 0.784 0 0 0 0.784 -0.784 M 124.556 79.128 a 0.784 0.784 0 1 0 -0.784 0.784 a 0.784 0.784 0 0 0 0.784 -0.784" /><path fill="none" stroke="#000" stroke-linecap="round" stroke-linejoin="round" stroke-width="1.126" d="M 122.585 10.93 a 17.89 17.89 0 0 1 0.663 2.471 c 1.4 7.07 -0.834 13.56 -5.862 14.555 c -5.028 0.997 -9.39 -4.228 -10.791 -11.297 a 28.29 28.29 0 0 1 -0.093 -0.497" /><path d="M 114.39 60.01 a 0.784 0.784 0 1 0 -0.784 0.784 a 0.784 0.784 0 0 0 0.784 -0.784 M 114.793 67.858 a 0.784 0.784 0 1 0 -0.784 0.784 a 0.784 0.784 0 0 0 0.784 -0.784 M 115.197 75.706 a 0.784 0.784 0 1 0 -0.784 0.784 a 0.784 0.784 0 0 0 0.784 -0.784 M 115.6 83.555 a 0.784 0.784 0 1 0 -0.783 0.784 a 0.784 0.784 0 0 0 0.784 -0.784" /><path fill="none" stroke="#000" stroke-linecap="round" stroke-linejoin="round" stroke-width="1.126" d="M 84.237 108.764 h 18.996 m -11.592 62.999 l 2.588 0.793 m 6.222 -63.537 l 2.905 32.718 l -12.58 37.827 l 9.675 -37.483 l -13.606 -33.1 m 60.147 -33.357 a 31.493 31.493 0 0 0 -6.186 1.139 c -2.079 0.685 -1.42 4.124 -1.42 4.124 c 0.578 4.054 3.805 4.005 5.053 4.195 c 2.08 0.316 3.423 2.714 4.896 -0.922 a 10.896 10.896 0 0 1 3.317 -4.687 m -14.733 79.674 c 1.573 1.72 3.93 4.537 4.438 6.459 c 0.713 2.694 0.503 3.887 -1.108 5.983 c 0 0 -2.145 2.22 2.067 2.853 c 2.036 0.175 6.704 1.158 7.02 -4.422 c 0.315 -5.581 0.631 -6.974 1.72 -8.624 c 1.017 -1.37 2.281 -4.247 0 -5.756 c -2.282 -1.51 -2.984 -1.344 -5.124 -4.117 m -25.842 14.083 l -0.895 6.496 s -0.684 3.133 1.937 3.772 c 0.535 0.13 1.064 0.304 1.792 0.49 c 0.482 0.124 0.95 0.188 1.424 0.295 c 3.875 0.87 10.484 2.343 12.51 1.824 c 2.738 -0.702 2.446 -3.655 -0.368 -4.813 c -5.379 -2.214 -5.779 -5.027 -5.873 -6.691" /></g><path fill="none" stroke="#000" stroke-linecap="round" stroke-linejoin="round" stroke-width="2.816" d="M 93.735 107.785 v -7.421" /><g clip-path="url(&quot;#aya&quot;)"><path fill="none" stroke="#000" stroke-linecap="round" stroke-linejoin="round" stroke-width="1.126" d="M 93.27 137.238 l -15.53 -3.459 m 15 9.004 l -31.59 3.37 m 30.886 3.137 l -17.576 7.122 m 23.05 -66.203 s -0.357 2.111 0.71 2.674 c 1.805 0.952 3.32 2.496 1.11 5.808 c -2.405 3.606 -4.23 -0.421 -7.277 1 c -1.09 0.509 -2.617 -0.414 -2.572 -4.489 a 24.81 24.81 0 0 1 1.573 -6.764" /><path d="M 86.477 159.915 a 1.615 1.615 0 1 0 -1.615 1.615 a 1.615 1.615 0 0 0 1.615 -1.615 M 64.134 153.313 a 1.615 1.615 0 1 0 -1.615 1.615 a 1.615 1.615 0 0 0 1.615 -1.615 M 74.668 138.852 a 1.615 1.615 0 1 0 -1.615 1.615 a 1.615 1.615 0 0 0 1.615 -1.615 M 89.767 97.352 l 0.09 0.766 a 2.716 2.716 0 0 0 -0.957 -0.18 a 2.986 2.986 0 0 0 -0.755 0.124 a 2.255 2.255 0 0 1 -1.352 -4.303 a 7.144 7.144 0 0 1 2.107 -0.327 a 6.258 6.258 0 0 1 0.923 0.068 l -0.18 1.092 Z M 95.963 100.484 a 2.253 2.253 0 1 1 -4.506 0 a 2.703 2.703 0 0 0 -0.056 -0.53 c 0.056 -0.011 1.363 -0.304 1.363 -0.304 l 1.307 -0.236 l 1.013 0.383 l 0.856 0.146 c 0.012 0.18 0.023 0.36 0.023 0.54" /><path fill="none" stroke="#000" stroke-linecap="round" stroke-linejoin="round" stroke-width="1.126" d="M 121.463 5.524 c 1.467 -0.08 3.735 -0.004 4.366 1.124 c 1.016 1.815 -4.152 5.48 -10.802 7.735 s -12.893 2.159 -13.284 0.419 c 0 0 -0.928 -2.135 2.905 -3.051 m 7.825 -7.264 a 6.01 6.01 0 0 0 -0.41 -0.927 c -2.183 -3.89 -4.754 -1.317 -4.754 -1.317 l 0.291 -0.23 c -3.58 2.513 -3.73 6.994 -2.686 10.615 c 0 0 0.054 0.294 0.181 0.717 c 0.106 0.354 0.69 0.654 2.417 0.338 a 34.525 34.525 0 0 0 7.287 -1.647 a 20.966 20.966 0 0 0 6.013 -3.33 c 1.124 -0.92 1.29 -1.342 1.122 -1.925 a 3.507 3.507 0 0 0 -0.086 -0.265 c -1.104 -3.31 -3.045 -5.562 -5.104 -5.88 a 4.211 4.211 0 0 0 -4.89 2.573" /><path d="M 121.837 5.773 a 27.533 27.533 0 0 1 -17.234 6.263 l -0.338 -1.701 c 3.3 -0.034 10.667 -0.777 16.637 -5.981 Z M 96.188 104.281 h -4.907 a 0.679 0.679 0 0 1 -0.679 -0.679 v -1.33 a 0.679 0.679 0 0 1 0.68 -0.68 h 4.906 a 0.679 0.679 0 0 1 0.68 0.68 v 1.33 a 0.679 0.679 0 0 1 -0.68 0.68" /></g></svg>