<svg xmlns="http://www.w3.org/2000/svg" id="umbrella-care-8" viewBox="0 0 223 179" width="100%" height="100%"><title>umbrella-care-8</title><path d="M 56.742 12.646 l -0.07 1.075 l 0.07 2.034 l 0.66 2.295 l 1.597 -0.086 l 6.281 0.399 l 0.846 -4.458 l -3.577 -0.184 l -5.807 -1.075 Z" /><g clip-path="url(&quot;#bea&quot;)"><path fill="none" stroke="#000" stroke-linecap="round" stroke-linejoin="round" stroke-width="1.227" d="M 58.256 25.55 l -0.674 -3.256 l 9.017 2.352 m -9.193 -7.069 a 47.855 47.855 0 0 0 7.876 0.798 m -8.536 -5.716 a 47.581 47.581 0 0 0 9.317 0.95 m -2.902 -9.105 c -1.829 0.957 -5.287 3.154 -6.102 6.431 a 10.397 10.397 0 0 0 0.897 7.86 a 14.426 14.426 0 0 1 1.282 3.784 m 6.503 -19.953 l 1.281 1.185 c 4.533 4.534 2.441 9.715 1.793 13.7 c -0.647 3.986 2.541 7.622 2.541 7.622 l 5.125 7.33 l 0.788 1.035 M 63.435 5.008 s -1.594 -1.994 1.893 -2.342 c 3.487 -0.349 13.026 -0.922 17.484 6.177 c 1.146 1.893 5.032 8.033 0.698 17.237 c -1.44 2.638 -2.02 4.642 -7.739 8.461 c -0.482 0.321 -0.95 0.81 -1.716 0.416 c -0.454 -0.195 -1.16 -1.299 -1.16 -1.299 l -5.126 -7.329 s -3.188 -3.637 -2.54 -7.622 c 0.647 -3.986 2.74 -9.167 -1.794 -13.7 Z M 23.66 82.895 a 10.383 10.383 0 0 1 -0.934 4.746 c -0.672 1.812 -1.656 4.795 0.816 7.734 c 1.314 1.457 3.331 4.184 5.61 3.848 c 1.046 -0.187 1.812 -0.299 1.644 -2.615 c 0 0 -0.43 -2.859 1.195 -2.54 c 1.077 0.21 1.756 0.826 3.026 0.13 c 0.686 -0.498 0.86 -1.663 -0.946 -3.124 a 13.53 13.53 0 0 1 -4.807 -8.179 m 15.241 -4.87 c 7.058 2.61 19.52 5.376 35.795 1.575 m -33.765 -5.656 a 62.28 62.28 0 0 0 31.718 1.322 m -51.87 67.551 c 3.784 0.238 7.636 0.997 10.511 2.771 m -9.842 -9.004 c 4.65 0.192 9.532 1.115 12.684 3.701 m 55.395 7.68 a 19.6 19.6 0 0 0 10.72 -2.036 m -12.555 -4.34 c 3.833 0.428 8.22 0.283 11.875 -1.52 m 7.578 36.608 H 101.79 s -5.466 0.355 -6.077 -3.189 c -0.299 -1.743 -1.32 -11.364 3.188 -9.216 c 1.24 0.591 1.483 2.418 3.18 2.822 a 4.222 4.222 0 0 0 5.288 -2.423 s 1.694 -2.192 3.487 -1.146 s 4.981 6.177 8.22 6.875 c 3.237 0.697 5.777 0.996 5.877 3.587 c 0 0 0.187 2.731 -4.035 2.731 c -5.03 0 -8.169 -0.04 -8.169 -0.04 Z M 75.89 45.01 s 7.696 10.462 18.605 15.17 s 10.087 4.932 32.13 5.231 c 2.066 -5.157 -0.375 -7.548 -0.375 -7.548 c -16.513 -0.149 -18.829 -2.242 -23.536 -4.409 c -4.708 -2.167 -14.869 -13.899 -17.485 -16.813 c -1.785 -1.989 -4.719 -2.969 -7.4 -3.557 m -6.459 -1.606 a 21.263 21.263 0 0 1 -4.596 -2.982 a 15.261 15.261 0 0 0 -5.23 -2.54 a 16.082 16.082 0 0 0 -14.122 3.511 c -2.092 1.943 -7.024 8.743 -11.133 13.227 c -4.11 4.483 -9.639 11.283 -9.639 11.283 s -2.017 2.691 -2.39 8.743 c -0.375 6.053 -0.972 14.572 -0.599 20.176 c 0 0 2.186 1.57 5.604 0 c 0 0 2.167 -15.318 4.857 -21.745 c 1.77 -4.226 6.994 -9.098 10.366 -11.939 m 18.714 51.39 c -1.1 4.087 -3.802 10.341 -10.027 19.508 c -2.24 3.437 -9.799 12.393 -13.3 19.877 c -2.989 6.39 -4.96 8.343 -6.874 11.36 c -2.11 3.324 -3.784 8.157 -4.746 15.82 M 80.002 49.731 a 21.166 21.166 0 0 1 -1.125 7.385 c -2.017 4.932 -3.437 10.088 -1.942 14.87 c 1.494 4.783 11.88 24.511 18.156 34.524 c 6.277 10.013 7.173 14.721 8.742 24.361 a 273.55 273.55 0 0 1 3.362 34.018 M 59.152 94.33 s 12.104 18.233 16.438 23.015 c 4.333 4.783 15.84 17.636 17.857 24.735 c 1.975 6.946 4.092 13.678 5.092 21.666 M 43.822 41.784 c 0.182 4.09 0.857 11.05 3.3 14.51 c 0.747 1.121 3.96 6.875 -1.12 18.682 c -2.245 4.408 -6.277 11.134 -5.904 20.624 c -0.024 1.943 0.897 4.932 -3.885 13.675 s -7.696 13.9 -8.892 23.613 c -0.373 3.662 -0.299 11.658 -3.586 19.877 c -3.288 8.22 -3.587 8.893 -5.38 11.508 c 0 0 -0.395 0.561 -0.116 0.932 c 1.06 1.41 1.794 1.17 2.255 1.061 c 1.191 -0.279 1.64 -2.214 3.477 -2.36 a 2.557 2.557 0 0 1 1.278 0.208 a 1.75 1.75 0 0 1 1.272 1.601 c 0.067 0.982 0.427 1.566 1.733 1.452 v 4.017 s 0.191 4.077 -3.694 4.077 h -3.132 a 6.39 6.39 0 0 1 -4.567 -2.475 a 8.207 8.207 0 0 1 -2.248 -5.978 c 0 -0.893 0.352 -2.883 1.041 -3.476" /></g><path fill="none" stroke="#000" stroke-linecap="round" stroke-linejoin="round" stroke-width="0.613" d="M 84.066 24.783 l -7.577 7.58 m 9.018 -12.989 L 74.82 30.066 M 85.354 15.56 L 73.187 27.731 m 11.38 -15.35 L 71.555 25.395 m 11.88 -15.85 L 69.963 23.02 m 11.728 -15.7 L 68.893 20.124 M 79.714 5.332 l -10.42 10.423 m 7.783 -11.753 l -6.985 6.987 m 3.986 -7.955 L 69.484 7.63 m 1.384 -5.352 L 68.1 5.048 m 8.028 -1.29 l 8.335 8.338 M 71.081 2.678 l 14.43 14.433 M 67.056 2.621 l 18.294 18.3 M 69.794 9.324 l 14.6 14.604 m -14.77 -10.808 L 83.18 26.682 M 69.008 16.474 l 12.733 12.737 m -13.048 -9.085 l 11.195 11.198" /><g clip-path="url(&quot;#bea&quot;)"><path fill="none" stroke="#000" stroke-linecap="round" stroke-linejoin="round" stroke-width="1.227" d="M 162.6 38.36 l -18.924 10.242 m 62.18 -36.418 l 2.53 4.675 m -42.872 24.736 l 41.276 -22.176 a 2.622 2.622 0 0 1 1.064 -3.544 l -1.465 -2.706 a 2.622 2.622 0 0 1 -3.549 -1.05 l -41.277 22.177 a 0.792 0.792 0 0 0 -0.319 1.073 l 3.197 5.906 a 0.791 0.791 0 0 0 1.073 0.32 Z M 33.396 137.37 l -1.406 6.257 m 5.681 -4.695 c -0.733 1.538 -1.819 3.73 -2.897 5.587 m -5.027 -7.76 c -0.188 1.723 -0.485 4.014 -0.922 6.288 m 73.918 -1.883 l 1.016 5.46 m -4.37 -4.966 l 1.562 5.984 m -4.827 -5.848 a 284.746 284.746 0 0 1 1.741 5.93 m -74.147 -67.77 a 12.625 12.625 0 0 0 5.828 -0.03 m 93.998 -21.91 a 19.276 19.276 0 0 1 0.21 7.174 M 15.655 163.33 s 1.132 -1.245 3.3 0.05 M 126.823 58.52 c 1.01 0.063 3.598 0.094 4.521 -1.13 c 1.318 -1.75 3.808 -4.696 6.974 -3.935 c 3.095 0.743 4.964 1.025 5.007 7.123 c 0 2.075 -0.349 6.974 -5.605 6.974 c -2.092 0 -3.125 -0.053 -4.658 -1.27 a 4.298 4.298 0 0 0 -2.665 -1.245 a 90.402 90.402 0 0 0 -3.138 -0.2" /><path d="M 150.481 47.016 l -1.73 -3.199 a 0.722 0.722 0 0 0 -0.979 -0.291 l -0.649 0.351 a 0.722 0.722 0 0 0 -0.29 0.978 l 1.73 3.199 a 0.722 0.722 0 0 0 0.978 0.291 l 0.65 -0.351 a 0.722 0.722 0 0 0 0.29 -0.978" /></g><path fill="none" stroke="#000" stroke-linecap="round" stroke-linejoin="round" stroke-width="1.227" d="M 185.496 21.414 l 1.45 2.677 m 15.81 -2.513 l 2.412 -8.097 m -9.071 11.445 l 3.255 -10.93 M 189.334 28.62 l 3.277 -11.005 m -10.001 14.62 l 3.223 -10.82 M 175.81 36.048 l 3.313 -11.123 M 169.07 39.67 l 3.29 -11.049 m -8.842 10.678 l 2.148 -7.212" /><g clip-path="url(&quot;#bea&quot;)"><path d="M 188.169 26.345 a 1.54 1.54 0 1 1 0.62 -2.088 a 1.54 1.54 0 0 1 -0.62 2.088 M 148.357 47.909 l -9.327 5.023 a 3.623 3.623 0 0 0 -0.754 0.526 l -0.8 -0.24 l -1.626 0.108 l -1.746 1.088 a 0.738 0.738 0 0 1 0.035 -0.155 a 6.915 6.915 0 0 1 3.408 -4.102 l 9.315 -5.022 a 1.578 1.578 0 0 1 2.141 0.633 a 1.594 1.594 0 0 1 -0.646 2.14" /></g></svg>