<svg xmlns="http://www.w3.org/2000/svg" id="umbrella-care-7" viewBox="0 0 223 179" width="100%" height="100%"><title>umbrella-care-7</title><g clip-path="url(&quot;#bda&quot;)"><path fill="none" stroke="#000" stroke-linecap="round" stroke-linejoin="round" stroke-width="0.998" d="M 19.245 111.818 l -16.249 0.105 m 174.96 18.3 s -51.852 -8.408 -101.884 -13.16 m -35.216 -2.636 c -7.697 -0.382 -14.98 -0.579 -21.598 -0.536 m 158.445 -22.539 s -51.689 9.072 -101.634 14.475 m -34.152 3.031 c -8.097 0.523 -15.754 0.841 -22.686 0.886 m -0.025 -0.895 l 0.077 5.937 M 177.661 84.94 l 0.336 51.695" /></g><path fill="none" stroke="#000" stroke-linecap="round" stroke-linejoin="round" stroke-width="2.495" d="M 178.676 110.755 l 21.15 -0.077" /><g clip-path="url(&quot;#bda&quot;)"><path fill="none" stroke="#000" stroke-linecap="round" stroke-linejoin="round" stroke-width="4.989" d="M 209.542 93.107 l 1.681 -0.011 a 8.705 8.705 0 1 1 0.113 17.409 l -15.987 0.104" /><path fill="none" stroke="#000" stroke-linecap="round" stroke-linejoin="round" stroke-width="0.998" d="M 66.772 128.895 h -16.82 V 61.563 h 16.82 Z m -2.463 -75.641 V 47.32 m -5.851 6.194 V 47.58 m -5.85 5.414 V 47.58 m 16.732 -1.984 a 27.991 27.991 0 0 1 -10.882 1.984 c -6.409 0 -9.786 -1.333 -11.074 -2 m 22.776 6.138 s -4.249 2.37 -11.702 2.37 c -8.546 0 -11.701 -2.37 -11.701 -2.37 v -4.001 c 0 -2.431 1.571 -3.51 4.4 -4.402 a 28.534 28.534 0 0 1 14.603 0 c 2.981 1.095 4.4 1.97 4.4 4.402 Z m -23.466 -0.075 a 16.457 16.457 0 0 0 -5.831 12.585 c 0 0.033 0.009 0.062 0.009 0.095 s -0.009 0.063 -0.009 0.096 v 15.756 l 2.691 2.693 l -2.691 2.742 v 3.77 l 2.691 2.694 l -2.691 2.742 v 3.77 l 2.691 2.694 l -2.691 2.743 v 3.77 l 2.691 2.694 l -2.691 2.742 v 15.474 a 7.97 7.97 0 0 0 7.977 7.933 h 19.236 a 7.971 7.971 0 0 0 7.978 -7.933 V 113.18 l -2.692 -2.693 l 2.692 -2.694 v -3.82 l -2.692 -2.693 l 2.692 -2.693 v -3.82 l -2.692 -2.693 l 2.692 -2.693 v -3.82 l -2.692 -2.693 l 2.692 -2.693 V 64.419 c 0 -0.033 -0.009 -0.063 -0.009 -0.096 s 0.009 -0.062 0.009 -0.095 a 16.454 16.454 0 0 0 -5.808 -12.565" /><path d="M 62.71 110.11 a 1.119 1.119 0 0 1 -0.526 0.944 l -1.784 1.111 l 1.822 1.237 a 1.003 1.003 0 0 1 0.483 1.003 a 1.115 1.115 0 0 1 -0.64 0.922 l -6.481 3.01 a 1.112 1.112 0 0 1 -0.933 -2.018 l 4.702 -2.18 l -1.616 -1.1 a 1.036 1.036 0 0 1 -0.488 -0.939 a 1.127 1.127 0 0 1 0.526 -0.922 l 1.48 -0.916 l -4.598 -2.104 a 1.11 1.11 0 1 1 0.922 -2.018 l 6.48 2.961 a 1.098 1.098 0 0 1 0.646 0.94 a 0.325 0.325 0 0 1 0.005 0.07 M 59.57 103.55 l -1.784 -0.815 l 1.784 -0.815 Z m 1.567 -4.785 l -6.48 2.961 a 1.199 1.199 0 0 0 -0.348 0.21 a 1.443 1.443 0 0 0 -0.202 0.381 a 1.314 1.314 0 0 0 0 0.83 c 0.006 0.015 -0.006 0.032 0.002 0.05 a 0.93 0.93 0 0 0 0.218 0.335 a 1.209 1.209 0 0 0 0.33 0.211 l 6.48 2.961 a 1.108 1.108 0 0 0 1.47 -0.547 a 1.068 1.068 0 0 0 0.103 -0.46 a 1.107 1.107 0 0 0 -0.65 -1.01 l -0.267 -0.12 v -3.663 l 0.266 -0.122 a 1.106 1.106 0 0 0 0.651 -1.008 a 1.062 1.062 0 0 0 -0.103 -0.46 a 1.107 1.107 0 0 0 -1.47 -0.549 M 54.006 90.737 v 7.12 a 1.112 1.112 0 0 0 2.224 0 v -2.445 h 5.368 a 1.112 1.112 0 0 0 0 -2.224 H 56.23 v -2.45 a 1.112 1.112 0 0 0 -2.224 0 M 60.486 82.504 v 3.433 h -1.014 v -2.126 a 1.112 1.112 0 1 0 -2.224 0 v 2.126 H 56.23 v -3.433 a 1.112 1.112 0 0 0 -2.224 0 v 4.544 a 1.113 1.113 0 0 0 1.112 1.112 h 6.481 a 1.113 1.113 0 0 0 1.111 -1.112 v -4.544 a 1.111 1.111 0 1 0 -2.223 0 M 56.23 77.705 h 1.133 v -3.46 H 56.23 Z m 6.48 -4.572 a 1.13 1.13 0 0 1 -0.195 0.629 l -2.695 3.943 h 1.778 a 1.111 1.111 0 1 1 0 2.223 h -6.48 a 1.113 1.113 0 0 1 -1.112 -1.112 v -5.683 a 1.113 1.113 0 0 1 1.112 -1.112 h 3.357 a 1.113 1.113 0 0 1 1.11 1.112 v 0.976 l 1.097 -1.605 a 1.112 1.112 0 0 1 2.028 0.629" /><path fill="none" stroke="#000" stroke-linecap="round" stroke-linejoin="round" stroke-width="0.998" d="M 154.972 63.309 l 5.171 5.17 m 0 -5.17 l -5.17 5.17 m 0 -5.17 l 5.17 5.17 m -138.28 62.986 l 5.17 5.17 m 0 -5.17 l -5.17 5.17 m 0 -5.17 l 5.17 5.17 M 4.254 90.062 l 5.171 5.17 m 0 -5.17 l -5.17 5.17 m 0 -5.17 l 5.17 5.17 M 89.61 73.397 l 5.171 5.17 m 0 -5.17 l -5.17 5.17 m 0 -5.17 l 5.17 5.17 M 40.994 67.852 c 3.466 0 3.466 -1.959 6.933 -1.959 a 6.688 6.688 0 0 1 1.705 0.2 m 17.743 1.636 a 7.08 7.08 0 0 0 1.37 0.123 c 3.48 0 3.48 -1.959 6.96 -1.959" /><path d="M 130.066 79.928 a 3.174 3.174 0 1 0 -3.174 3.174 a 3.174 3.174 0 0 0 3.174 -3.174 M 28.6 74.111 a 3.174 3.174 0 1 0 -3.175 3.174 a 3.174 3.174 0 0 0 3.174 -3.174 M 103.037 130.234 a 3.174 3.174 0 1 0 -3.174 3.174 a 3.174 3.174 0 0 0 3.174 -3.174 M 192.3 114.53 v -7.627 a 0.585 0.585 0 0 1 0.585 -0.585 h 2.604 a 0.585 0.585 0 0 1 0.586 0.585 v 7.627 a 0.586 0.586 0 0 1 -0.586 0.586 h -2.604 a 0.586 0.586 0 0 1 -0.586 -0.586" /></g></svg>