<svg xmlns="http://www.w3.org/2000/svg" id="umbrella-care-4" viewBox="0 0 223 182.042" width="100%" height="100%"><title>umbrella-care-4</title><g clip-path="url(&quot;#baa&quot;)"><path fill="none" stroke="#000" stroke-linecap="round" stroke-linejoin="round" stroke-width="0.897" d="M 129.725 58.774 l -3.17 -2.43 M 16.193 50.137 l 0.548 -0.312 a 100.35 100.35 0 0 1 30.815 -11.223 s 15.78 -2.977 31.409 -0.907 a 99.715 99.715 0 0 1 47.752 19.707 a 98.436 98.436 0 0 1 35.323 103.544 q -0.32 1.199 -0.67 2.391" /><path fill="none" stroke="#000" stroke-linecap="round" stroke-linejoin="round" stroke-width="4.486" d="M 19.61 162.259 l -1.057 1.319 a 8.833 8.833 0 0 0 1.308 12.367 a 8.696 8.696 0 0 0 12.284 -1.323 l 10.932 -13.324" /><path fill="none" stroke="#000" stroke-linecap="round" stroke-linejoin="round" stroke-width="0.897" d="M 127.173 58.322 c -25.652 -10.817 -55.988 -4.289 -73.064 17.445 c -0.547 0.696 -1.082 1.261 -1.592 1.975 l -1.665 1.979 m 76.601 -21.399 c 16.798 22.086 17.063 52.55 -0.012 74.285 q -0.82 1.044 -1.68 2.04 l -2.055 2.444 m -36.495 -29.614 l 43.54 -53.048 m -7.569 83.412 c 4.73 -6.02 16.773 -4.537 26.9 3.312 c 8.491 6.582 12.938 15.552 11.363 21.826 M 85.97 108.998 c 4.73 -6.02 17.314 -4.117 27.441 3.732 c 10.126 7.848 14.501 19.091 9.771 25.111 m -73.34 -56.846 c 4.73 -6.02 16.772 -4.538 26.898 3.311 s 13.96 18.672 9.23 24.692 M 16.458 50.007 c 5.8 -2.697 15.344 -0.532 23.611 5.876 c 10.127 7.849 14.502 19.092 9.772 25.112" /><path d="M 35.32 126.516 c 0 -1.36 -1.866 -7.102 -2.464 -7.102 s -2.463 5.742 -2.463 7.102 a 2.463 2.463 0 1 0 4.926 0 M 53.39 106.403 c 0 -1.36 -1.865 -7.102 -2.463 -7.102 s -2.463 5.742 -2.463 7.102 a 2.463 2.463 0 1 0 4.926 0 M 33.2 90.132 c 0 -1.36 -1.865 -7.102 -2.463 -7.102 s -2.463 5.742 -2.463 7.102 a 2.463 2.463 0 1 0 4.926 0 M 101.373 176.985 c 0 -1.36 1.865 -7.102 2.463 -7.102 s 2.463 5.742 2.463 7.102 a 2.463 2.463 0 1 1 -4.926 0 M 83.302 156.872 c 0 -1.36 1.865 -7.102 2.463 -7.102 s 2.463 5.742 2.463 7.102 a 2.463 2.463 0 1 1 -4.926 0 M 103.492 140.601 c 0 -1.36 1.865 -7.102 2.463 -7.102 s 2.463 5.742 2.463 7.102 a 2.463 2.463 0 1 1 -4.926 0" /><path fill="none" stroke="#000" stroke-linecap="round" stroke-linejoin="round" stroke-width="0.897" d="M 170.486 42.143 L 157.008 60.48 m 32.535 -18.676 l 9.235 12.895 m -8.063 -28.79 l 13.37 -8.358 m -29.699 3.713 l -6.639 -17.17 m -10.739 33.497 l 9.354 -3.098 m 12.442 -19.202 l 0.144 4.916 m 17.968 7.748 l -4.386 1.293 m -8.005 16.1 l 0.902 4.885 m 7.071 -13.235 l 7.252 1.86 m -25.332 6.57 l -3.826 10.368 m -3.337 -26.548 l -6.872 -1.958 m 27.742 -3.987 l 4.381 -9.806 m 0.276 19.343 l 14.025 -1.546 M 182.9 20.685 L 190.507 0.448 M 179.55 46.163 l -3.257 18.024 m -8.057 -25.329 l -17.36 6.57 m 19.796 -21.25 l -19.796 -9.887 m 41.918 18.953 a 12.919 12.919 0 1 0 -12.919 12.92 a 12.919 12.919 0 0 0 12.92 -12.92 Z" /></g><path fill="none" stroke="#000" stroke-linecap="round" stroke-linejoin="round" stroke-width="2.692" d="M 41.656 162.982 l 44.917 -54.727" /><g clip-path="url(&quot;#baa&quot;)"><path d="M 86.572 109.6 a 1.346 1.346 0 0 1 -1.04 -2.198 l 1.796 -2.183 c 0.473 -0.575 0.161 0.746 0.736 1.218 s 1.905 -0.214 1.433 0.36 l -1.883 2.312 a 1.347 1.347 0 0 1 -1.042 0.492 M 45.278 164.21 l -5.616 -4.2 a 0.54 0.54 0 0 1 -0.11 -0.756 l 1.433 -1.916 a 0.542 0.542 0 0 1 0.758 -0.11 l 5.616 4.2 a 0.542 0.542 0 0 1 0.11 0.758 l -1.434 1.916 a 0.54 0.54 0 0 1 -0.757 0.109" /></g></svg>